<ttFont>
    <TTGlyph name=".notdef" xMin="123" yMin="0" xMax="543" yMax="685">
      <contour>
        <pt x="123" y="685" on="1"/>
        <pt x="543" y="685" on="1"/>
        <pt x="543" y="0" on="1"/>
        <pt x="123" y="0" on="1"/>
      </contour>
      <contour>
        <pt x="489" y="52" on="1"/>
        <pt x="489" y="633" on="1"/>
        <pt x="178" y="633" on="1"/>
        <pt x="178" y="52" on="1"/>
      </contour>
      <contour>
        <pt x="340" y="251" on="1"/>
        <pt x="340" y="240" on="0"/>
        <pt x="324" y="227" on="0"/>
        <pt x="315" y="227" on="1"/>
        <pt x="305" y="227" on="0"/>
        <pt x="290" y="240" on="0"/>
        <pt x="290" y="251" on="1"/>
        <pt x="290" y="335" on="1"/>
        <pt x="344" y="338" on="0"/>
        <pt x="381" y="372" on="0"/>
        <pt x="381" y="412" on="1"/>
        <pt x="381" y="441" on="0"/>
        <pt x="358" y="481" on="0"/>
        <pt x="320" y="481" on="1"/>
        <pt x="291" y="481" on="0"/>
        <pt x="268" y="470" on="1"/>
        <pt x="260" y="467" on="0"/>
        <pt x="255" y="467" on="1"/>
        <pt x="244" y="467" on="0"/>
        <pt x="231" y="480" on="0"/>
        <pt x="231" y="490" on="1"/>
        <pt x="231" y="500" on="0"/>
        <pt x="249" y="515" on="0"/>
        <pt x="277" y="524" on="0"/>
        <pt x="309" y="529" on="0"/>
        <pt x="324" y="529" on="1"/>
        <pt x="356" y="529" on="0"/>
        <pt x="399" y="510" on="0"/>
        <pt x="424" y="478" on="0"/>
        <pt x="435" y="436" on="0"/>
        <pt x="435" y="414" on="1"/>
        <pt x="435" y="361" on="0"/>
        <pt x="391" y="304" on="0"/>
        <pt x="340" y="296" on="1"/>
      </contour>
      <contour>
        <pt x="280" y="163" on="1"/>
        <pt x="280" y="178" on="0"/>
        <pt x="300" y="198" on="0"/>
        <pt x="315" y="198" on="1"/>
        <pt x="330" y="198" on="0"/>
        <pt x="350" y="178" on="0"/>
        <pt x="350" y="163" on="1"/>
        <pt x="350" y="147" on="0"/>
        <pt x="330" y="126" on="0"/>
        <pt x="315" y="126" on="1"/>
        <pt x="300" y="126" on="0"/>
        <pt x="280" y="147" on="0"/>
      </contour>
    </TTGlyph>
    <TTGlyph name="A" xMin="10" yMin="0" xMax="535" yMax="685">
      <contour>
        <pt x="414" y="185" on="1"/>
        <pt x="129" y="185" on="1"/>
        <pt x="70" y="0" on="1"/>
        <pt x="10" y="0" on="1"/>
        <pt x="235" y="685" on="1"/>
        <pt x="310" y="685" on="1"/>
        <pt x="535" y="0" on="1"/>
        <pt x="473" y="0" on="1"/>
      </contour>
      <contour>
        <pt x="145" y="235" on="1"/>
        <pt x="398" y="235" on="1"/>
        <pt x="273" y="632" on="1"/>
        <pt x="271" y="632" on="1"/>
      </contour>
    </TTGlyph>
    <TTGlyph name="AE" xMin="0" yMin="0" xMax="737" yMax="685">
      <contour>
        <pt x="130" y="185" on="1"/>
        <pt x="60" y="0" on="1"/>
        <pt x="0" y="0" on="1"/>
        <pt x="267" y="685" on="1"/>
        <pt x="689" y="685" on="1"/>
        <pt x="682" y="635" on="1"/>
        <pt x="355" y="635" on="1"/>
        <pt x="422" y="380" on="1"/>
        <pt x="670" y="380" on="1"/>
        <pt x="670" y="330" on="1"/>
        <pt x="435" y="330" on="1"/>
        <pt x="508" y="50" on="1"/>
        <pt x="737" y="50" on="1"/>
        <pt x="737" y="0" on="1"/>
        <pt x="463" y="0" on="1"/>
        <pt x="416" y="185" on="1"/>
      </contour>
      <contour>
        <pt x="149" y="235" on="1"/>
        <pt x="403" y="235" on="1"/>
        <pt x="303" y="633" on="1"/>
        <pt x="301" y="633" on="1"/>
      </contour>
    </TTGlyph>
    <TTGlyph name="AEacute" xMin="0" yMin="0" xMax="737" yMax="884">
      <component glyphName="AE" x="0" y="0" flags="0x204"/>
      <component glyphName="glyph00860" x="782" y="0" flags="0x4"/>
    </TTGlyph>
    <TTGlyph name="Aacute" xMin="10" yMin="0" xMax="535" yMax="894">
      <component glyphName="A" x="0" y="0" flags="0x204"/>
      <component glyphName="glyph00860" x="606" y="10" flags="0x4"/>
    </TTGlyph>
    <TTGlyph name="Abreve" xMin="10" yMin="0" xMax="535" yMax="873">
      <component glyphName="A" x="0" y="0" flags="0x204"/>
      <component glyphName="glyph00864" x="608" y="0" flags="0x4"/>
    </TTGlyph>
    <TTGlyph name="Acircumflex" xMin="10" yMin="0" xMax="535" yMax="887">
      <component glyphName="A" x="0" y="0" flags="0x204"/>
      <component glyphName="glyph00861" x="612" y="0" flags="0x4"/>
    </TTGlyph>
    <TTGlyph name="Adieresis" xMin="10" yMin="0" xMax="535" yMax="837">
      <component glyphName="A" x="0" y="0" flags="0x204"/>
      <component glyphName="glyph00866" x="612" y="0" flags="0x4"/>
    </TTGlyph>
    <TTGlyph name="Agrave" xMin="10" yMin="0" xMax="535" yMax="884">
      <component glyphName="A" x="0" y="0" flags="0x204"/>
      <component glyphName="glyph00859" x="586" y="0" flags="0x4"/>
    </TTGlyph>
    <TTGlyph name="Alpha" xMin="10" yMin="0" xMax="535" yMax="685">
      <component glyphName="A" x="0" y="0" flags="0x204"/>
    </TTGlyph>
    <TTGlyph name="Alphatonos" xMin="10" yMin="0" xMax="535" yMax="689">
      <component glyphName="A" x="0" y="0" flags="0x204"/>
      <component glyphName="glyph00884" x="190" y="0" flags="0x4"/>
    </TTGlyph>
    <TTGlyph name="Amacron" xMin="10" yMin="0" xMax="535" yMax="844">
      <component glyphName="A" x="0" y="0" flags="0x204"/>
      <component glyphName="glyph00863" x="605" y="0" flags="0x4"/>
    </TTGlyph>
    <TTGlyph name="Aogonek" xMin="10" yMin="-226" xMax="583" yMax="685">
      <contour>
        <pt x="451" y="-123" on="1"/>
        <pt x="451" y="-148" on="0"/>
        <pt x="481" y="-182" on="0"/>
        <pt x="512" y="-182" on="1"/>
        <pt x="529" y="-182" on="0"/>
        <pt x="558" y="-175" on="0"/>
        <pt x="566" y="-170" on="1"/>
        <pt x="583" y="-208" on="1"/>
        <pt x="562" y="-219" on="0"/>
        <pt x="526" y="-226" on="0"/>
        <pt x="505" y="-226" on="1"/>
        <pt x="449" y="-226" on="0"/>
        <pt x="394" y="-172" on="0"/>
        <pt x="394" y="-130" on="1"/>
        <pt x="394" y="-92" on="0"/>
        <pt x="436" y="-24" on="0"/>
        <pt x="473" y="0" on="1"/>
        <pt x="414" y="185" on="1"/>
        <pt x="129" y="185" on="1"/>
        <pt x="70" y="0" on="1"/>
        <pt x="10" y="0" on="1"/>
        <pt x="235" y="685" on="1"/>
        <pt x="310" y="685" on="1"/>
        <pt x="535" y="0" on="1"/>
        <pt x="486" y="-26" on="0"/>
        <pt x="451" y="-95" on="0"/>
      </contour>
      <contour>
        <pt x="145" y="235" on="1"/>
        <pt x="398" y="235" on="1"/>
        <pt x="273" y="632" on="1"/>
        <pt x="271" y="632" on="1"/>
      </contour>
    </TTGlyph>
    <TTGlyph name="Aring" xMin="10" yMin="0" xMax="535" yMax="924">
      <component glyphName="A" x="0" y="0" flags="0x204"/>
      <component glyphName="glyph00867" x="613" y="0" flags="0x4"/>
    </TTGlyph>
    <TTGlyph name="Atilde" xMin="10" yMin="0" xMax="535" yMax="866">
      <component glyphName="A" x="0" y="0" flags="0x204"/>
      <component glyphName="glyph00862" x="606" y="0" flags="0x4"/>
    </TTGlyph>
    <TTGlyph name="B" xMin="110" yMin="0" xMax="540" yMax="685">
      <contour>
        <pt x="510" y="517" on="1"/>
        <pt x="510" y="483" on="0"/>
        <pt x="492" y="431" on="0"/>
        <pt x="460" y="395" on="0"/>
        <pt x="417" y="372" on="0"/>
        <pt x="392" y="366" on="1"/>
        <pt x="392" y="364" on="1"/>
        <pt x="420" y="359" on="0"/>
        <pt x="473" y="338" on="0"/>
        <pt x="515" y="298" on="0"/>
        <pt x="540" y="237" on="0"/>
        <pt x="540" y="194" on="1"/>
        <pt x="540" y="142" on="0"/>
        <pt x="501" y="68" on="0"/>
        <pt x="432" y="22" on="0"/>
        <pt x="337" y="0" on="0"/>
        <pt x="282" y="0" on="1"/>
        <pt x="110" y="0" on="1"/>
        <pt x="110" y="685" on="1"/>
        <pt x="270" y="685" on="1"/>
        <pt x="318" y="685" on="0"/>
        <pt x="405" y="669" on="0"/>
        <pt x="471" y="631" on="0"/>
        <pt x="510" y="566" on="0"/>
      </contour>
      <contour>
        <pt x="169" y="337" on="1"/>
        <pt x="169" y="50" on="1"/>
        <pt x="296" y="50" on="1"/>
        <pt x="332" y="50" on="0"/>
        <pt x="398" y="64" on="0"/>
        <pt x="448" y="97" on="0"/>
        <pt x="478" y="151" on="0"/>
        <pt x="478" y="192" on="1"/>
        <pt x="478" y="232" on="0"/>
        <pt x="454" y="287" on="0"/>
        <pt x="411" y="322" on="0"/>
        <pt x="353" y="337" on="0"/>
        <pt x="319" y="337" on="1"/>
      </contour>
      <contour>
        <pt x="169" y="386" on="1"/>
        <pt x="308" y="386" on="1"/>
        <pt x="377" y="386" on="0"/>
        <pt x="449" y="453" on="0"/>
        <pt x="449" y="514" on="1"/>
        <pt x="449" y="577" on="0"/>
        <pt x="364" y="635" on="0"/>
        <pt x="284" y="635" on="1"/>
        <pt x="169" y="635" on="1"/>
      </contour>
    </TTGlyph>
    <TTGlyph name="Beta" xMin="110" yMin="0" xMax="540" yMax="685">
      <component glyphName="B" x="0" y="0" flags="0x204"/>
    </TTGlyph>
    <TTGlyph name="C" xMin="70" yMin="-11" xMax="526" yMax="696">
      <contour>
        <pt x="479" y="594" on="1"/>
        <pt x="448" y="620" on="0"/>
        <pt x="383" y="645" on="0"/>
        <pt x="340" y="645" on="1"/>
        <pt x="298" y="645" on="0"/>
        <pt x="222" y="612" on="0"/>
        <pt x="165" y="539" on="0"/>
        <pt x="132" y="424" on="0"/>
        <pt x="132" y="343" on="1"/>
        <pt x="132" y="264" on="0"/>
        <pt x="165" y="150" on="0"/>
        <pt x="222" y="76" on="0"/>
        <pt x="298" y="41" on="0"/>
        <pt x="342" y="41" on="1"/>
        <pt x="396" y="41" on="0"/>
        <pt x="466" y="73" on="0"/>
        <pt x="493" y="96" on="1"/>
        <pt x="526" y="55" on="1"/>
        <pt x="494" y="26" on="0"/>
        <pt x="402" y="-11" on="0"/>
        <pt x="339" y="-11" on="1"/>
        <pt x="281" y="-11" on="0"/>
        <pt x="183" y="34" on="0"/>
        <pt x="111" y="124" on="0"/>
        <pt x="70" y="256" on="0"/>
        <pt x="70" y="343" on="1"/>
        <pt x="70" y="430" on="0"/>
        <pt x="112" y="563" on="0"/>
        <pt x="185" y="651" on="0"/>
        <pt x="282" y="696" on="0"/>
        <pt x="336" y="696" on="1"/>
        <pt x="397" y="696" on="0"/>
        <pt x="481" y="663" on="0"/>
        <pt x="515" y="635" on="1"/>
      </contour>
    </TTGlyph>
    <TTGlyph name="Cacute" xMin="70" yMin="-11" xMax="526" yMax="884">
      <component glyphName="C" x="0" y="0" flags="0x204"/>
      <component glyphName="glyph00860" x="656" y="0" flags="0x4"/>
    </TTGlyph>
    <TTGlyph name="Ccaron" xMin="70" yMin="-11" xMax="526" yMax="887">
      <component glyphName="C" x="0" y="0" flags="0x204"/>
      <component glyphName="glyph00869" x="617" y="0" flags="0x4"/>
    </TTGlyph>
    <TTGlyph name="Ccedilla" xMin="70" yMin="-226" xMax="526" yMax="696">
      <contour>
        <pt x="381" y="-142" on="1"/>
        <pt x="381" y="-116" on="0"/>
        <pt x="338" y="-99" on="0"/>
        <pt x="302" y="-98" on="1"/>
        <pt x="308" y="-9" on="1"/>
        <pt x="256" y="-3" on="0"/>
        <pt x="169" y="47" on="0"/>
        <pt x="106" y="136" on="0"/>
        <pt x="70" y="262" on="0"/>
        <pt x="70" y="343" on="1"/>
        <pt x="70" y="430" on="0"/>
        <pt x="112" y="563" on="0"/>
        <pt x="185" y="651" on="0"/>
        <pt x="282" y="696" on="0"/>
        <pt x="336" y="696" on="1"/>
        <pt x="397" y="696" on="0"/>
        <pt x="481" y="663" on="0"/>
        <pt x="515" y="635" on="1"/>
        <pt x="479" y="594" on="1"/>
        <pt x="448" y="620" on="0"/>
        <pt x="383" y="645" on="0"/>
        <pt x="340" y="645" on="1"/>
        <pt x="298" y="645" on="0"/>
        <pt x="222" y="612" on="0"/>
        <pt x="165" y="539" on="0"/>
        <pt x="132" y="424" on="0"/>
        <pt x="132" y="343" on="1"/>
        <pt x="132" y="264" on="0"/>
        <pt x="165" y="150" on="0"/>
        <pt x="222" y="76" on="0"/>
        <pt x="298" y="41" on="0"/>
        <pt x="342" y="41" on="1"/>
        <pt x="396" y="41" on="0"/>
        <pt x="466" y="73" on="0"/>
        <pt x="493" y="96" on="1"/>
        <pt x="526" y="55" on="1"/>
        <pt x="496" y="28" on="0"/>
        <pt x="411" y="-9" on="0"/>
        <pt x="354" y="-11" on="1"/>
        <pt x="354" y="-67" on="1"/>
        <pt x="399" y="-72" on="0"/>
        <pt x="438" y="-111" on="0"/>
        <pt x="438" y="-143" on="1"/>
        <pt x="438" y="-185" on="0"/>
        <pt x="375" y="-226" on="0"/>
        <pt x="330" y="-226" on="1"/>
        <pt x="302" y="-226" on="0"/>
        <pt x="262" y="-216" on="0"/>
        <pt x="245" y="-207" on="1"/>
        <pt x="267" y="-168" on="1"/>
        <pt x="278" y="-174" on="0"/>
        <pt x="310" y="-182" on="0"/>
        <pt x="325" y="-182" on="1"/>
        <pt x="350" y="-182" on="0"/>
        <pt x="381" y="-165" on="0"/>
      </contour>
    </TTGlyph>
    <TTGlyph name="Ccircumflex" xMin="70" yMin="-11" xMax="526" yMax="887">
      <component glyphName="C" x="0" y="0" flags="0x204"/>
      <component glyphName="glyph00861" x="662" y="0" flags="0x4"/>
    </TTGlyph>
    <TTGlyph name="Cdotaccent" xMin="70" yMin="-11" xMax="526" yMax="854">
      <component glyphName="C" x="0" y="0" flags="0x204"/>
      <component glyphName="glyph00865" x="665" y="0" flags="0x4"/>
    </TTGlyph>
    <TTGlyph name="Chi" xMin="5" yMin="0" xMax="514" yMax="685">
      <component glyphName="X" x="0" y="0" flags="0x204"/>
    </TTGlyph>
    <TTGlyph name="D" xMin="110" yMin="0" xMax="567" yMax="685">
      <contour>
        <pt x="110" y="685" on="1"/>
        <pt x="244" y="685" on="1"/>
        <pt x="306" y="685" on="0"/>
        <pt x="422" y="660" on="0"/>
        <pt x="512" y="587" on="0"/>
        <pt x="567" y="455" on="0"/>
        <pt x="567" y="348" on="1"/>
        <pt x="567" y="241" on="0"/>
        <pt x="509" y="105" on="0"/>
        <pt x="418" y="28" on="0"/>
        <pt x="306" y="0" on="0"/>
        <pt x="251" y="0" on="1"/>
        <pt x="110" y="0" on="1"/>
      </contour>
      <contour>
        <pt x="169" y="50" on="1"/>
        <pt x="257" y="50" on="1"/>
        <pt x="303" y="50" on="0"/>
        <pt x="392" y="73" on="0"/>
        <pt x="462" y="139" on="0"/>
        <pt x="505" y="255" on="0"/>
        <pt x="505" y="348" on="1"/>
        <pt x="505" y="443" on="0"/>
        <pt x="461" y="557" on="0"/>
        <pt x="390" y="617" on="0"/>
        <pt x="299" y="635" on="0"/>
        <pt x="252" y="635" on="1"/>
        <pt x="169" y="635" on="1"/>
      </contour>
    </TTGlyph>
    <TTGlyph name="Dcaron" xMin="110" yMin="0" xMax="567" yMax="887">
      <component glyphName="D" x="0" y="0" flags="0x204"/>
      <component glyphName="glyph00869" x="608" y="0" flags="0x4"/>
    </TTGlyph>
    <TTGlyph name="Dcroat" xMin="23" yMin="0" xMax="567" yMax="685">
      <contour>
        <pt x="110" y="329" on="1"/>
        <pt x="23" y="329" on="1"/>
        <pt x="23" y="377" on="1"/>
        <pt x="110" y="377" on="1"/>
        <pt x="110" y="685" on="1"/>
        <pt x="244" y="685" on="1"/>
        <pt x="306" y="685" on="0"/>
        <pt x="422" y="660" on="0"/>
        <pt x="512" y="587" on="0"/>
        <pt x="567" y="455" on="0"/>
        <pt x="567" y="348" on="1"/>
        <pt x="567" y="241" on="0"/>
        <pt x="509" y="105" on="0"/>
        <pt x="418" y="28" on="0"/>
        <pt x="306" y="0" on="0"/>
        <pt x="251" y="0" on="1"/>
        <pt x="110" y="0" on="1"/>
      </contour>
      <contour>
        <pt x="169" y="329" on="1"/>
        <pt x="169" y="50" on="1"/>
        <pt x="257" y="50" on="1"/>
        <pt x="303" y="50" on="0"/>
        <pt x="392" y="73" on="0"/>
        <pt x="462" y="139" on="0"/>
        <pt x="505" y="255" on="0"/>
        <pt x="505" y="348" on="1"/>
        <pt x="505" y="443" on="0"/>
        <pt x="461" y="557" on="0"/>
        <pt x="390" y="617" on="0"/>
        <pt x="299" y="635" on="0"/>
        <pt x="252" y="635" on="1"/>
        <pt x="169" y="635" on="1"/>
        <pt x="169" y="377" on="1"/>
        <pt x="351" y="377" on="1"/>
        <pt x="351" y="329" on="1"/>
      </contour>
    </TTGlyph>
    <TTGlyph name="Delta" xMin="10" yMin="0" xMax="535" yMax="685">
      <contour>
        <pt x="10" y="0" on="1"/>
        <pt x="235" y="685" on="1"/>
        <pt x="310" y="685" on="1"/>
        <pt x="535" y="0" on="1"/>
      </contour>
      <contour>
        <pt x="86" y="51" on="1"/>
        <pt x="457" y="51" on="1"/>
        <pt x="273" y="633" on="1"/>
        <pt x="271" y="633" on="1"/>
      </contour>
    </TTGlyph>
    <TTGlyph name="E" xMin="110" yMin="0" xMax="464" yMax="685">
      <contour>
        <pt x="110" y="0" on="1"/>
        <pt x="110" y="685" on="1"/>
        <pt x="456" y="685" on="1"/>
        <pt x="449" y="635" on="1"/>
        <pt x="169" y="635" on="1"/>
        <pt x="169" y="380" on="1"/>
        <pt x="412" y="380" on="1"/>
        <pt x="412" y="330" on="1"/>
        <pt x="169" y="330" on="1"/>
        <pt x="169" y="50" on="1"/>
        <pt x="464" y="50" on="1"/>
        <pt x="464" y="0" on="1"/>
      </contour>
    </TTGlyph>
    <TTGlyph name="Eacute" xMin="110" yMin="0" xMax="464" yMax="884">
      <component glyphName="E" x="0" y="0" flags="0x204"/>
      <component glyphName="glyph00860" x="615" y="0" flags="0x4"/>
    </TTGlyph>
    <TTGlyph name="Ebreve" xMin="110" yMin="0" xMax="464" yMax="873">
      <component glyphName="E" x="0" y="0" flags="0x204"/>
      <component glyphName="glyph00864" x="618" y="0" flags="0x4"/>
    </TTGlyph>
    <TTGlyph name="Ecaron" xMin="110" yMin="0" xMax="464" yMax="887">
      <component glyphName="E" x="0" y="0" flags="0x204"/>
      <component glyphName="glyph00869" x="576" y="0" flags="0x4"/>
    </TTGlyph>
    <TTGlyph name="Ecircumflex" xMin="110" yMin="0" xMax="464" yMax="887">
      <component glyphName="E" x="0" y="0" flags="0x204"/>
      <component glyphName="glyph00861" x="621" y="0" flags="0x4"/>
    </TTGlyph>
    <TTGlyph name="Edieresis" xMin="110" yMin="0" xMax="464" yMax="837">
      <component glyphName="E" x="0" y="0" flags="0x204"/>
      <component glyphName="glyph00866" x="622" y="0" flags="0x4"/>
    </TTGlyph>
    <TTGlyph name="Edotaccent" xMin="110" yMin="0" xMax="464" yMax="854">
      <component glyphName="E" x="0" y="0" flags="0x204"/>
      <component glyphName="glyph00865" x="624" y="0" flags="0x4"/>
    </TTGlyph>
    <TTGlyph name="Egrave" xMin="110" yMin="0" xMax="464" yMax="884">
      <component glyphName="E" x="0" y="0" flags="0x204"/>
      <component glyphName="glyph00859" x="605" y="0" flags="0x4"/>
    </TTGlyph>
    <TTGlyph name="Emacron" xMin="110" yMin="0" xMax="464" yMax="844">
      <component glyphName="E" x="0" y="0" flags="0x204"/>
      <component glyphName="glyph00863" x="615" y="0" flags="0x4"/>
    </TTGlyph>
    <TTGlyph name="Eng" xMin="110" yMin="-205" xMax="562" yMax="685">
      <contour>
        <pt x="506" y="685" on="1"/>
        <pt x="562" y="685" on="1"/>
        <pt x="562" y="0" on="1"/>
        <pt x="562" y="-45" on="0"/>
        <pt x="544" y="-108" on="0"/>
        <pt x="506" y="-155" on="0"/>
        <pt x="446" y="-189" on="0"/>
        <pt x="405" y="-205" on="1"/>
        <pt x="390" y="-161" on="1"/>
        <pt x="424" y="-146" on="0"/>
        <pt x="469" y="-118" on="0"/>
        <pt x="496" y="-82" on="0"/>
        <pt x="507" y="-35" on="0"/>
        <pt x="508" y="0" on="1"/>
        <pt x="483" y="0" on="1"/>
        <pt x="160" y="619" on="1"/>
        <pt x="158" y="619" on="1"/>
        <pt x="162" y="573" on="0"/>
        <pt x="166" y="467" on="0"/>
        <pt x="166" y="404" on="1"/>
        <pt x="166" y="0" on="1"/>
        <pt x="110" y="0" on="1"/>
        <pt x="110" y="685" on="1"/>
        <pt x="188" y="685" on="1"/>
        <pt x="512" y="65" on="1"/>
        <pt x="514" y="65" on="1"/>
        <pt x="511" y="110" on="0"/>
        <pt x="506" y="217" on="0"/>
        <pt x="506" y="280" on="1"/>
      </contour>
    </TTGlyph>
    <TTGlyph name="Eogonek" xMin="110" yMin="-226" xMax="513" yMax="685">
      <contour>
        <pt x="464" y="0" on="1"/>
        <pt x="417" y="-29" on="0"/>
        <pt x="381" y="-94" on="0"/>
        <pt x="381" y="-123" on="1"/>
        <pt x="381" y="-148" on="0"/>
        <pt x="411" y="-182" on="0"/>
        <pt x="442" y="-182" on="1"/>
        <pt x="459" y="-182" on="0"/>
        <pt x="488" y="-175" on="0"/>
        <pt x="496" y="-170" on="1"/>
        <pt x="513" y="-208" on="1"/>
        <pt x="492" y="-219" on="0"/>
        <pt x="456" y="-226" on="0"/>
        <pt x="435" y="-226" on="1"/>
        <pt x="379" y="-226" on="0"/>
        <pt x="324" y="-172" on="0"/>
        <pt x="324" y="-130" on="1"/>
        <pt x="324" y="-92" on="0"/>
        <pt x="369" y="-24" on="0"/>
        <pt x="406" y="0" on="1"/>
        <pt x="110" y="0" on="1"/>
        <pt x="110" y="685" on="1"/>
        <pt x="456" y="685" on="1"/>
        <pt x="449" y="635" on="1"/>
        <pt x="169" y="635" on="1"/>
        <pt x="169" y="380" on="1"/>
        <pt x="412" y="380" on="1"/>
        <pt x="412" y="330" on="1"/>
        <pt x="169" y="330" on="1"/>
        <pt x="169" y="50" on="1"/>
        <pt x="464" y="50" on="1"/>
      </contour>
    </TTGlyph>
    <TTGlyph name="Epsilon" xMin="110" yMin="0" xMax="464" yMax="685">
      <contour>
        <pt x="110" y="0" on="1"/>
        <pt x="110" y="685" on="1"/>
        <pt x="456" y="685" on="1"/>
        <pt x="449" y="635" on="1"/>
        <pt x="169" y="635" on="1"/>
        <pt x="169" y="380" on="1"/>
        <pt x="412" y="380" on="1"/>
        <pt x="412" y="330" on="1"/>
        <pt x="169" y="330" on="1"/>
        <pt x="169" y="50" on="1"/>
        <pt x="464" y="50" on="1"/>
        <pt x="464" y="0" on="1"/>
      </contour>
    </TTGlyph>
    <TTGlyph name="Epsilontonos" xMin="-30" yMin="0" xMax="465" yMax="689">
      <component glyphName="E" x="1" y="0" flags="0x4"/>
      <component glyphName="glyph00884" x="95" y="0" flags="0x4"/>
    </TTGlyph>
    <TTGlyph name="Eta" xMin="110" yMin="0" xMax="550" yMax="685">
      <component glyphName="H" x="0" y="0" flags="0x204"/>
    </TTGlyph>
    <TTGlyph name="Etatonos" xMin="-30" yMin="0" xMax="551" yMax="689">
      <component glyphName="H" x="1" y="0" flags="0x4"/>
      <component glyphName="glyph00884" x="95" y="0" flags="0x4"/>
    </TTGlyph>
    <TTGlyph name="Eth" xMin="23" yMin="0" xMax="567" yMax="685">
      <contour>
        <pt x="110" y="329" on="1"/>
        <pt x="23" y="329" on="1"/>
        <pt x="23" y="377" on="1"/>
        <pt x="110" y="377" on="1"/>
        <pt x="110" y="685" on="1"/>
        <pt x="244" y="685" on="1"/>
        <pt x="306" y="685" on="0"/>
        <pt x="422" y="660" on="0"/>
        <pt x="512" y="587" on="0"/>
        <pt x="567" y="455" on="0"/>
        <pt x="567" y="348" on="1"/>
        <pt x="567" y="241" on="0"/>
        <pt x="509" y="105" on="0"/>
        <pt x="418" y="28" on="0"/>
        <pt x="306" y="0" on="0"/>
        <pt x="251" y="0" on="1"/>
        <pt x="110" y="0" on="1"/>
      </contour>
      <contour>
        <pt x="169" y="329" on="1"/>
        <pt x="169" y="50" on="1"/>
        <pt x="257" y="50" on="1"/>
        <pt x="303" y="50" on="0"/>
        <pt x="392" y="73" on="0"/>
        <pt x="462" y="139" on="0"/>
        <pt x="505" y="255" on="0"/>
        <pt x="505" y="348" on="1"/>
        <pt x="505" y="443" on="0"/>
        <pt x="461" y="557" on="0"/>
        <pt x="390" y="617" on="0"/>
        <pt x="299" y="635" on="0"/>
        <pt x="252" y="635" on="1"/>
        <pt x="169" y="635" on="1"/>
        <pt x="169" y="377" on="1"/>
        <pt x="351" y="377" on="1"/>
        <pt x="351" y="329" on="1"/>
      </contour>
    </TTGlyph>
    <TTGlyph name="Euro" xMin="46" yMin="-11" xMax="515" yMax="696">
      <contour>
        <pt x="125" y="395" on="1"/>
        <pt x="46" y="395" on="1"/>
        <pt x="58" y="444" on="1"/>
        <pt x="129" y="444" on="1"/>
        <pt x="139" y="506" on="0"/>
        <pt x="184" y="601" on="0"/>
        <pt x="249" y="664" on="0"/>
        <pt x="331" y="696" on="0"/>
        <pt x="378" y="696" on="1"/>
        <pt x="454" y="696" on="0"/>
        <pt x="515" y="657" on="1"/>
        <pt x="488" y="615" on="1"/>
        <pt x="462" y="631" on="0"/>
        <pt x="414" y="646" on="0"/>
        <pt x="382" y="646" on="1"/>
        <pt x="306" y="646" on="0"/>
        <pt x="205" y="551" on="0"/>
        <pt x="189" y="444" on="1"/>
        <pt x="447" y="444" on="1"/>
        <pt x="435" y="395" on="1"/>
        <pt x="185" y="395" on="1"/>
        <pt x="185" y="301" on="1"/>
        <pt x="417" y="301" on="1"/>
        <pt x="406" y="252" on="1"/>
        <pt x="186" y="252" on="1"/>
        <pt x="197" y="142" on="0"/>
        <pt x="282" y="39" on="0"/>
        <pt x="362" y="39" on="1"/>
        <pt x="408" y="39" on="0"/>
        <pt x="478" y="69" on="0"/>
        <pt x="505" y="92" on="1"/>
        <pt x="505" y="32" on="1"/>
        <pt x="482" y="15" on="0"/>
        <pt x="405" y="-11" on="0"/>
        <pt x="357" y="-11" on="1"/>
        <pt x="257" y="-11" on="0"/>
        <pt x="141" y="121" on="0"/>
        <pt x="127" y="252" on="1"/>
        <pt x="46" y="252" on="1"/>
        <pt x="58" y="301" on="1"/>
        <pt x="125" y="301" on="1"/>
      </contour>
    </TTGlyph>
    <TTGlyph name="F" xMin="110" yMin="0" xMax="451" yMax="685">
      <contour>
        <pt x="444" y="635" on="1"/>
        <pt x="169" y="635" on="1"/>
        <pt x="169" y="368" on="1"/>
        <pt x="407" y="368" on="1"/>
        <pt x="407" y="318" on="1"/>
        <pt x="169" y="318" on="1"/>
        <pt x="169" y="0" on="1"/>
        <pt x="110" y="0" on="1"/>
        <pt x="110" y="685" on="1"/>
        <pt x="451" y="685" on="1"/>
      </contour>
    </TTGlyph>
    <TTGlyph name="G" xMin="70" yMin="-11" xMax="555" yMax="696">
      <contour>
        <pt x="507" y="591" on="1"/>
        <pt x="475" y="619" on="0"/>
        <pt x="402" y="645" on="0"/>
        <pt x="354" y="645" on="1"/>
        <pt x="311" y="645" on="0"/>
        <pt x="231" y="611" on="0"/>
        <pt x="169" y="539" on="0"/>
        <pt x="132" y="424" on="0"/>
        <pt x="132" y="343" on="1"/>
        <pt x="132" y="265" on="0"/>
        <pt x="163" y="150" on="0"/>
        <pt x="219" y="76" on="0"/>
        <pt x="297" y="40" on="0"/>
        <pt x="345" y="40" on="1"/>
        <pt x="391" y="40" on="0"/>
        <pt x="465" y="59" on="0"/>
        <pt x="497" y="76" on="1"/>
        <pt x="497" y="321" on="1"/>
        <pt x="357" y="321" on="1"/>
        <pt x="350" y="371" on="1"/>
        <pt x="555" y="371" on="1"/>
        <pt x="555" y="45" on="1"/>
        <pt x="510" y="19" on="0"/>
        <pt x="403" y="-11" on="0"/>
        <pt x="342" y="-11" on="1"/>
        <pt x="282" y="-11" on="0"/>
        <pt x="182" y="33" on="0"/>
        <pt x="110" y="121" on="0"/>
        <pt x="70" y="254" on="0"/>
        <pt x="70" y="343" on="1"/>
        <pt x="70" y="431" on="0"/>
        <pt x="118" y="563" on="0"/>
        <pt x="197" y="651" on="0"/>
        <pt x="299" y="696" on="0"/>
        <pt x="353" y="696" on="1"/>
        <pt x="419" y="696" on="0"/>
        <pt x="505" y="662" on="0"/>
        <pt x="543" y="628" on="1"/>
      </contour>
    </TTGlyph>
    <TTGlyph name="Gamma" xMin="110" yMin="0" xMax="462" yMax="685">
      <component glyphName="uni0413" x="0" y="0" flags="0x204"/>
    </TTGlyph>
    <TTGlyph name="Gbreve" xMin="70" yMin="-11" xMax="555" yMax="873">
      <component glyphName="G" x="0" y="0" flags="0x204"/>
      <component glyphName="glyph00864" x="678" y="0" flags="0x4"/>
    </TTGlyph>
    <TTGlyph name="Gcircumflex" xMin="70" yMin="-11" xMax="555" yMax="887">
      <component glyphName="G" x="0" y="0" flags="0x204"/>
      <component glyphName="glyph00861" x="682" y="0" flags="0x4"/>
    </TTGlyph>
    <TTGlyph name="Gdotaccent" xMin="70" yMin="-11" xMax="555" yMax="854">
      <component glyphName="G" x="0" y="0" flags="0x204"/>
      <component glyphName="glyph00865" x="684" y="0" flags="0x4"/>
    </TTGlyph>
    <TTGlyph name="H" xMin="110" yMin="0" xMax="550" yMax="685">
      <contour>
        <pt x="491" y="0" on="1"/>
        <pt x="491" y="336" on="1"/>
        <pt x="169" y="336" on="1"/>
        <pt x="169" y="0" on="1"/>
        <pt x="110" y="0" on="1"/>
        <pt x="110" y="685" on="1"/>
        <pt x="169" y="685" on="1"/>
        <pt x="169" y="386" on="1"/>
        <pt x="491" y="386" on="1"/>
        <pt x="491" y="685" on="1"/>
        <pt x="550" y="685" on="1"/>
        <pt x="550" y="0" on="1"/>
      </contour>
    </TTGlyph>
    <TTGlyph name="Hbar" xMin="41" yMin="0" xMax="619" yMax="685">
      <contour>
        <pt x="491" y="0" on="1"/>
        <pt x="491" y="336" on="1"/>
        <pt x="169" y="336" on="1"/>
        <pt x="169" y="0" on="1"/>
        <pt x="110" y="0" on="1"/>
        <pt x="110" y="518" on="1"/>
        <pt x="41" y="518" on="1"/>
        <pt x="41" y="562" on="1"/>
        <pt x="110" y="562" on="1"/>
        <pt x="110" y="685" on="1"/>
        <pt x="169" y="685" on="1"/>
        <pt x="169" y="562" on="1"/>
        <pt x="491" y="562" on="1"/>
        <pt x="491" y="685" on="1"/>
        <pt x="550" y="685" on="1"/>
        <pt x="550" y="562" on="1"/>
        <pt x="619" y="562" on="1"/>
        <pt x="619" y="518" on="1"/>
        <pt x="550" y="518" on="1"/>
        <pt x="550" y="0" on="1"/>
      </contour>
      <contour>
        <pt x="491" y="386" on="1"/>
        <pt x="491" y="518" on="1"/>
        <pt x="169" y="518" on="1"/>
        <pt x="169" y="386" on="1"/>
      </contour>
    </TTGlyph>
    <TTGlyph name="Hcircumflex" xMin="110" yMin="0" xMax="550" yMax="887">
      <component glyphName="H" x="0" y="0" flags="0x204"/>
      <component glyphName="glyph00861" x="669" y="0" flags="0x4"/>
    </TTGlyph>
    <TTGlyph name="I" xMin="110" yMin="0" xMax="169" yMax="685">
      <contour>
        <pt x="169" y="685" on="1"/>
        <pt x="169" y="0" on="1"/>
        <pt x="110" y="0" on="1"/>
        <pt x="110" y="685" on="1"/>
      </contour>
    </TTGlyph>
    <TTGlyph name="IJ" xMin="110" yMin="-136" xMax="457" yMax="685">
      <component glyphName="I" x="0" y="0" flags="0x4"/>
      <component glyphName="J" x="279" y="0" flags="0x4"/>
    </TTGlyph>
    <TTGlyph name="Iacute" xMin="35" yMin="0" xMax="244" yMax="884">
      <component glyphName="I" x="0" y="0" flags="0x204"/>
      <component glyphName="glyph00860" x="463" y="0" flags="0x4"/>
    </TTGlyph>
    <TTGlyph name="Ibreve" xMin="15" yMin="0" xMax="263" yMax="873">
      <component glyphName="I" x="0" y="0" flags="0x204"/>
      <component glyphName="glyph00864" x="475" y="0" flags="0x4"/>
    </TTGlyph>
    <TTGlyph name="Icircumflex" xMin="-5" yMin="0" xMax="284" yMax="887">
      <component glyphName="I" x="0" y="0" flags="0x204"/>
      <component glyphName="glyph00861" x="479" y="0" flags="0x4"/>
    </TTGlyph>
    <TTGlyph name="Idieresis" xMin="5" yMin="0" xMax="273" yMax="837">
      <component glyphName="I" x="0" y="0" flags="0x204"/>
      <component glyphName="glyph00866" x="479" y="0" flags="0x4"/>
    </TTGlyph>
    <TTGlyph name="Idotaccent" xMin="97" yMin="0" xMax="181" yMax="854">
      <component glyphName="I" x="0" y="0" flags="0x204"/>
      <component glyphName="glyph00865" x="481" y="0" flags="0x4"/>
    </TTGlyph>
    <TTGlyph name="Igrave" xMin="35" yMin="0" xMax="244" yMax="884">
      <component glyphName="I" x="0" y="0" flags="0x204"/>
      <component glyphName="glyph00859" x="463" y="0" flags="0x4"/>
    </TTGlyph>
    <TTGlyph name="Imacron" xMin="22" yMin="0" xMax="256" yMax="844">
      <component glyphName="I" x="0" y="0" flags="0x204"/>
      <component glyphName="glyph00863" x="472" y="0" flags="0x4"/>
    </TTGlyph>
    <TTGlyph name="Iogonek" xMin="29" yMin="-226" xMax="218" yMax="685">
      <contour>
        <pt x="169" y="685" on="1"/>
        <pt x="169" y="0" on="1"/>
        <pt x="122" y="-29" on="0"/>
        <pt x="86" y="-94" on="0"/>
        <pt x="86" y="-123" on="1"/>
        <pt x="86" y="-148" on="0"/>
        <pt x="116" y="-182" on="0"/>
        <pt x="147" y="-182" on="1"/>
        <pt x="164" y="-182" on="0"/>
        <pt x="193" y="-175" on="0"/>
        <pt x="201" y="-170" on="1"/>
        <pt x="218" y="-208" on="1"/>
        <pt x="197" y="-219" on="0"/>
        <pt x="161" y="-226" on="0"/>
        <pt x="140" y="-226" on="1"/>
        <pt x="84" y="-226" on="0"/>
        <pt x="29" y="-172" on="0"/>
        <pt x="29" y="-130" on="1"/>
        <pt x="29" y="-92" on="0"/>
        <pt x="73" y="-24" on="0"/>
        <pt x="110" y="0" on="1"/>
        <pt x="110" y="685" on="1"/>
      </contour>
    </TTGlyph>
    <TTGlyph name="Iota" xMin="110" yMin="0" xMax="169" yMax="685">
      <component glyphName="I" x="0" y="0" flags="0x204"/>
    </TTGlyph>
    <TTGlyph name="Iotadieresis" xMin="5" yMin="0" xMax="273" yMax="837">
      <component glyphName="I" x="0" y="0" flags="0x204"/>
      <component glyphName="glyph00866" x="479" y="0" flags="0x4"/>
    </TTGlyph>
    <TTGlyph name="Iotatonos" xMin="-30" yMin="0" xMax="170" yMax="689">
      <component glyphName="I" x="1" y="0" flags="0x4"/>
      <component glyphName="glyph00884" x="95" y="0" flags="0x4"/>
    </TTGlyph>
    <TTGlyph name="Itilde" xMin="-7" yMin="0" xMax="285" yMax="866">
      <component glyphName="I" x="0" y="0" flags="0x204"/>
      <component glyphName="glyph00862" x="473" y="0" flags="0x4"/>
    </TTGlyph>
    <TTGlyph name="J" xMin="5" yMin="-136" xMax="178" yMax="685">
      <contour>
        <pt x="5" y="-89" on="1"/>
        <pt x="38" y="-76" on="0"/>
        <pt x="81" y="-45" on="0"/>
        <pt x="108" y="-5" on="0"/>
        <pt x="119" y="48" on="0"/>
        <pt x="119" y="82" on="1"/>
        <pt x="119" y="685" on="1"/>
        <pt x="178" y="685" on="1"/>
        <pt x="178" y="84" on="1"/>
        <pt x="178" y="34" on="0"/>
        <pt x="160" y="-35" on="0"/>
        <pt x="122" y="-85" on="0"/>
        <pt x="62" y="-120" on="0"/>
        <pt x="21" y="-136" on="1"/>
      </contour>
    </TTGlyph>
    <TTGlyph name="Jcircumflex" xMin="4" yMin="-136" xMax="293" yMax="887">
      <component glyphName="J" x="0" y="0" flags="0x204"/>
      <component glyphName="glyph00861" x="488" y="0" flags="0x4"/>
    </TTGlyph>
    <TTGlyph name="K" xMin="110" yMin="0" xMax="545" yMax="685">
      <contour>
        <pt x="528" y="685" on="1"/>
        <pt x="244" y="371" on="1"/>
        <pt x="545" y="0" on="1"/>
        <pt x="470" y="0" on="1"/>
        <pt x="173" y="368" on="1"/>
        <pt x="456" y="685" on="1"/>
      </contour>
      <contour>
        <pt x="169" y="685" on="1"/>
        <pt x="169" y="0" on="1"/>
        <pt x="110" y="0" on="1"/>
        <pt x="110" y="685" on="1"/>
      </contour>
    </TTGlyph>
    <TTGlyph name="Kappa" xMin="110" yMin="0" xMax="545" yMax="685">
      <component glyphName="K" x="0" y="0" flags="0x204"/>
    </TTGlyph>
    <TTGlyph name="L" xMin="110" yMin="0" xMax="455" yMax="685">
      <contour>
        <pt x="169" y="685" on="1"/>
        <pt x="169" y="54" on="1"/>
        <pt x="455" y="54" on="1"/>
        <pt x="447" y="0" on="1"/>
        <pt x="110" y="0" on="1"/>
        <pt x="110" y="685" on="1"/>
      </contour>
    </TTGlyph>
    <TTGlyph name="Lacute" xMin="80" yMin="0" xMax="455" yMax="884">
      <component glyphName="L" x="0" y="0" flags="0x204"/>
      <component glyphName="glyph00860" x="508" y="0" flags="0x4"/>
    </TTGlyph>
    <TTGlyph name="Lambda" xMin="10" yMin="0" xMax="525" yMax="685">
      <contour>
        <pt x="70" y="0" on="1"/>
        <pt x="10" y="0" on="1"/>
        <pt x="230" y="685" on="1"/>
        <pt x="305" y="685" on="1"/>
        <pt x="525" y="0" on="1"/>
        <pt x="463" y="0" on="1"/>
        <pt x="268" y="632" on="1"/>
        <pt x="266" y="632" on="1"/>
      </contour>
    </TTGlyph>
    <TTGlyph name="Lcaron" xMin="110" yMin="0" xMax="455" yMax="688">
      <component glyphName="L" x="0" y="0" flags="0x204"/>
      <component glyphName="uni0313" x="604" y="-129" flags="0x4"/>
    </TTGlyph>
    <TTGlyph name="Ldot" xMin="110" yMin="0" xMax="455" yMax="685">
      <component glyphName="L" x="0" y="0" flags="0x204"/>
      <component glyphName="uni0307" x="644" y="-319" flags="0x4"/>
    </TTGlyph>
    <TTGlyph name="Lslash" xMin="20" yMin="0" xMax="455" yMax="685">
      <contour>
        <pt x="169" y="685" on="1"/>
        <pt x="169" y="376" on="1"/>
        <pt x="351" y="488" on="1"/>
        <pt x="377" y="448" on="1"/>
        <pt x="169" y="320" on="1"/>
        <pt x="169" y="52" on="1"/>
        <pt x="455" y="52" on="1"/>
        <pt x="447" y="0" on="1"/>
        <pt x="110" y="0" on="1"/>
        <pt x="110" y="283" on="1"/>
        <pt x="46" y="244" on="1"/>
        <pt x="20" y="284" on="1"/>
        <pt x="110" y="339" on="1"/>
        <pt x="110" y="685" on="1"/>
      </contour>
    </TTGlyph>
    <TTGlyph name="M" xMin="70" yMin="0" xMax="709" yMax="685">
      <contour>
        <pt x="652" y="0" on="1"/>
        <pt x="617" y="347" on="1"/>
        <pt x="612" y="392" on="0"/>
        <pt x="606" y="462" on="0"/>
        <pt x="601" y="524" on="0"/>
        <pt x="596" y="585" on="0"/>
        <pt x="594" y="621" on="1"/>
        <pt x="592" y="621" on="1"/>
        <pt x="418" y="81" on="1"/>
        <pt x="360" y="81" on="1"/>
        <pt x="182" y="621" on="1"/>
        <pt x="180" y="621" on="1"/>
        <pt x="177" y="585" on="0"/>
        <pt x="173" y="524" on="0"/>
        <pt x="167" y="462" on="0"/>
        <pt x="161" y="392" on="0"/>
        <pt x="157" y="347" on="1"/>
        <pt x="126" y="0" on="1"/>
        <pt x="70" y="0" on="1"/>
        <pt x="135" y="685" on="1"/>
        <pt x="217" y="685" on="1"/>
        <pt x="388" y="154" on="1"/>
        <pt x="392" y="154" on="1"/>
        <pt x="560" y="685" on="1"/>
        <pt x="643" y="685" on="1"/>
        <pt x="709" y="0" on="1"/>
      </contour>
    </TTGlyph>
    <TTGlyph name="Mu" xMin="70" yMin="0" xMax="709" yMax="685">
      <component glyphName="M" x="0" y="0" flags="0x204"/>
    </TTGlyph>
    <TTGlyph name="N" xMin="110" yMin="0" xMax="562" yMax="685">
      <contour>
        <pt x="506" y="685" on="1"/>
        <pt x="562" y="685" on="1"/>
        <pt x="562" y="0" on="1"/>
        <pt x="483" y="0" on="1"/>
        <pt x="160" y="619" on="1"/>
        <pt x="158" y="619" on="1"/>
        <pt x="162" y="573" on="0"/>
        <pt x="166" y="467" on="0"/>
        <pt x="166" y="404" on="1"/>
        <pt x="166" y="0" on="1"/>
        <pt x="110" y="0" on="1"/>
        <pt x="110" y="685" on="1"/>
        <pt x="188" y="685" on="1"/>
        <pt x="512" y="65" on="1"/>
        <pt x="514" y="65" on="1"/>
        <pt x="511" y="110" on="0"/>
        <pt x="506" y="217" on="0"/>
        <pt x="506" y="280" on="1"/>
      </contour>
    </TTGlyph>
    <TTGlyph name="Nacute" xMin="110" yMin="0" xMax="562" yMax="884">
      <component glyphName="N" x="0" y="0" flags="0x204"/>
      <component glyphName="glyph00860" x="669" y="0" flags="0x4"/>
    </TTGlyph>
    <TTGlyph name="Ncaron" xMin="110" yMin="0" xMax="562" yMax="887">
      <component glyphName="N" x="0" y="0" flags="0x204"/>
      <component glyphName="glyph00869" x="630" y="0" flags="0x4"/>
    </TTGlyph>
    <TTGlyph name="Ntilde" xMin="110" yMin="0" xMax="562" yMax="866">
      <component glyphName="N" x="0" y="0" flags="0x204"/>
      <component glyphName="glyph00862" x="675" y="0" flags="0x4"/>
    </TTGlyph>
    <TTGlyph name="Nu" xMin="110" yMin="0" xMax="562" yMax="685">
      <component glyphName="N" x="0" y="0" flags="0x204"/>
    </TTGlyph>
    <TTGlyph name="O" xMin="70" yMin="-11" xMax="613" yMax="696">
      <contour>
        <pt x="613" y="342" on="1"/>
        <pt x="613" y="258" on="0"/>
        <pt x="573" y="127" on="0"/>
        <pt x="502" y="37" on="0"/>
        <pt x="402" y="-11" on="0"/>
        <pt x="342" y="-11" on="1"/>
        <pt x="282" y="-11" on="0"/>
        <pt x="182" y="35" on="0"/>
        <pt x="110" y="124" on="0"/>
        <pt x="70" y="255" on="0"/>
        <pt x="70" y="341" on="1"/>
        <pt x="70" y="425" on="0"/>
        <pt x="110" y="557" on="0"/>
        <pt x="182" y="648" on="0"/>
        <pt x="282" y="696" on="0"/>
        <pt x="342" y="696" on="1"/>
        <pt x="402" y="696" on="0"/>
        <pt x="502" y="650" on="0"/>
        <pt x="573" y="560" on="0"/>
        <pt x="613" y="428" on="0"/>
      </contour>
      <contour>
        <pt x="342" y="40" on="1"/>
        <pt x="389" y="40" on="0"/>
        <pt x="466" y="77" on="0"/>
        <pt x="521" y="152" on="0"/>
        <pt x="551" y="265" on="0"/>
        <pt x="551" y="342" on="1"/>
        <pt x="551" y="496" on="0"/>
        <pt x="436" y="645" on="0"/>
        <pt x="342" y="645" on="1"/>
        <pt x="295" y="645" on="0"/>
        <pt x="217" y="608" on="0"/>
        <pt x="162" y="532" on="0"/>
        <pt x="132" y="418" on="0"/>
        <pt x="132" y="341" on="1"/>
        <pt x="132" y="264" on="0"/>
        <pt x="163" y="150" on="0"/>
        <pt x="218" y="76" on="0"/>
        <pt x="295" y="40" on="0"/>
      </contour>
    </TTGlyph>
    <TTGlyph name="OE" xMin="70" yMin="-11" xMax="831" yMax="696">
      <contour>
        <pt x="778" y="380" on="1"/>
        <pt x="778" y="330" on="1"/>
        <pt x="587" y="330" on="1"/>
        <pt x="585" y="232" on="0"/>
        <pt x="538" y="95" on="0"/>
        <pt x="490" y="50" on="1"/>
        <pt x="831" y="50" on="1"/>
        <pt x="831" y="0" on="1"/>
        <pt x="416" y="0" on="1"/>
        <pt x="380" y="-11" on="0"/>
        <pt x="342" y="-11" on="1"/>
        <pt x="282" y="-11" on="0"/>
        <pt x="182" y="35" on="0"/>
        <pt x="110" y="124" on="0"/>
        <pt x="70" y="255" on="0"/>
        <pt x="70" y="341" on="1"/>
        <pt x="70" y="425" on="0"/>
        <pt x="110" y="557" on="0"/>
        <pt x="182" y="648" on="0"/>
        <pt x="282" y="696" on="0"/>
        <pt x="342" y="696" on="1"/>
        <pt x="381" y="696" on="0"/>
        <pt x="417" y="685" on="1"/>
        <pt x="823" y="685" on="1"/>
        <pt x="816" y="635" on="1"/>
        <pt x="492" y="635" on="1"/>
        <pt x="578" y="557" on="0"/>
        <pt x="586" y="380" on="1"/>
      </contour>
      <contour>
        <pt x="342" y="41" on="1"/>
        <pt x="428" y="41" on="0"/>
        <pt x="531" y="189" on="0"/>
        <pt x="531" y="342" on="1"/>
        <pt x="531" y="496" on="0"/>
        <pt x="428" y="644" on="0"/>
        <pt x="342" y="644" on="1"/>
        <pt x="295" y="644" on="0"/>
        <pt x="217" y="607" on="0"/>
        <pt x="162" y="532" on="0"/>
        <pt x="132" y="418" on="0"/>
        <pt x="132" y="341" on="1"/>
        <pt x="132" y="264" on="0"/>
        <pt x="163" y="151" on="0"/>
        <pt x="218" y="77" on="0"/>
        <pt x="295" y="41" on="0"/>
      </contour>
    </TTGlyph>
    <TTGlyph name="Oacute" xMin="70" yMin="-11" xMax="613" yMax="884">
      <component glyphName="O" x="0" y="0" flags="0x204"/>
      <component glyphName="glyph00860" x="675" y="0" flags="0x4"/>
    </TTGlyph>
    <TTGlyph name="Obreve" xMin="70" yMin="-11" xMax="613" yMax="873">
      <component glyphName="O" x="0" y="0" flags="0x204"/>
      <component glyphName="glyph00864" x="677" y="0" flags="0x4"/>
    </TTGlyph>
    <TTGlyph name="Ocircumflex" xMin="70" yMin="-11" xMax="613" yMax="887">
      <component glyphName="O" x="0" y="0" flags="0x204"/>
      <component glyphName="glyph00861" x="681" y="0" flags="0x4"/>
    </TTGlyph>
    <TTGlyph name="Odieresis" xMin="70" yMin="-11" xMax="613" yMax="837">
      <component glyphName="O" x="0" y="0" flags="0x204"/>
      <component glyphName="glyph00866" x="681" y="0" flags="0x4"/>
    </TTGlyph>
    <TTGlyph name="Ograve" xMin="70" yMin="-11" xMax="613" yMax="884">
      <component glyphName="O" x="0" y="0" flags="0x204"/>
      <component glyphName="glyph00859" x="655" y="0" flags="0x4"/>
    </TTGlyph>
    <TTGlyph name="Ohungarumlaut" xMin="70" yMin="-11" xMax="613" yMax="934">
      <component glyphName="O" x="0" y="0" flags="0x204"/>
      <component glyphName="glyph00868" x="697" y="0" flags="0x4"/>
    </TTGlyph>
    <TTGlyph name="Omacron" xMin="70" yMin="-11" xMax="613" yMax="844">
      <component glyphName="O" x="0" y="0" flags="0x204"/>
      <component glyphName="glyph00863" x="674" y="0" flags="0x4"/>
    </TTGlyph>
    <TTGlyph name="Omega" xMin="80" yMin="0" xMax="624" yMax="696">
      <contour>
        <pt x="352" y="645" on="1"/>
        <pt x="255" y="645" on="0"/>
        <pt x="142" y="502" on="0"/>
        <pt x="142" y="347" on="1"/>
        <pt x="142" y="283" on="0"/>
        <pt x="168" y="187" on="0"/>
        <pt x="210" y="117" on="0"/>
        <pt x="266" y="68" on="0"/>
        <pt x="296" y="50" on="1"/>
        <pt x="296" y="0" on="1"/>
        <pt x="95" y="0" on="1"/>
        <pt x="95" y="53" on="1"/>
        <pt x="224" y="53" on="1"/>
        <pt x="224" y="56" on="1"/>
        <pt x="194" y="75" on="0"/>
        <pt x="141" y="125" on="0"/>
        <pt x="102" y="195" on="0"/>
        <pt x="80" y="287" on="0"/>
        <pt x="80" y="347" on="1"/>
        <pt x="80" y="431" on="0"/>
        <pt x="120" y="561" on="0"/>
        <pt x="192" y="650" on="0"/>
        <pt x="292" y="696" on="0"/>
        <pt x="352" y="696" on="1"/>
        <pt x="412" y="696" on="0"/>
        <pt x="512" y="650" on="0"/>
        <pt x="584" y="561" on="0"/>
        <pt x="624" y="431" on="0"/>
        <pt x="624" y="347" on="1"/>
        <pt x="624" y="287" on="0"/>
        <pt x="601" y="195" on="0"/>
        <pt x="561" y="125" on="0"/>
        <pt x="508" y="75" on="0"/>
        <pt x="477" y="56" on="1"/>
        <pt x="477" y="53" on="1"/>
        <pt x="609" y="53" on="1"/>
        <pt x="609" y="0" on="1"/>
        <pt x="408" y="0" on="1"/>
        <pt x="408" y="50" on="1"/>
        <pt x="438" y="68" on="0"/>
        <pt x="494" y="116" on="0"/>
        <pt x="537" y="186" on="0"/>
        <pt x="562" y="282" on="0"/>
        <pt x="562" y="347" on="1"/>
        <pt x="562" y="424" on="0"/>
        <pt x="532" y="536" on="0"/>
        <pt x="477" y="610" on="0"/>
        <pt x="399" y="645" on="0"/>
      </contour>
    </TTGlyph>
    <TTGlyph name="Omegatonos" xMin="20" yMin="0" xMax="636" yMax="696">
      <component glyphName="Omega" x="12" y="0" flags="0x4"/>
      <component glyphName="glyph00884" x="145" y="0" flags="0x4"/>
    </TTGlyph>
    <TTGlyph name="Omicron" xMin="70" yMin="-11" xMax="613" yMax="696">
      <component glyphName="O" x="0" y="0" flags="0x204"/>
    </TTGlyph>
    <TTGlyph name="Omicrontonos" xMin="20" yMin="-11" xMax="625" yMax="696">
      <component glyphName="O" x="12" y="0" flags="0x4"/>
      <component glyphName="glyph00884" x="145" y="0" flags="0x4"/>
    </TTGlyph>
    <TTGlyph name="Oslash" xMin="70" yMin="-121" xMax="613" yMax="810">
      <contour>
        <pt x="613" y="342" on="1"/>
        <pt x="613" y="258" on="0"/>
        <pt x="573" y="127" on="0"/>
        <pt x="502" y="37" on="0"/>
        <pt x="402" y="-11" on="0"/>
        <pt x="342" y="-11" on="1"/>
        <pt x="301" y="-11" on="0"/>
        <pt x="267" y="-1" on="1"/>
        <pt x="232" y="-121" on="1"/>
        <pt x="179" y="-107" on="1"/>
        <pt x="219" y="18" on="1"/>
        <pt x="150" y="55" on="0"/>
        <pt x="70" y="216" on="0"/>
        <pt x="70" y="341" on="1"/>
        <pt x="70" y="425" on="0"/>
        <pt x="110" y="557" on="0"/>
        <pt x="182" y="648" on="0"/>
        <pt x="282" y="696" on="0"/>
        <pt x="342" y="696" on="1"/>
        <pt x="361" y="696" on="0"/>
        <pt x="397" y="691" on="0"/>
        <pt x="414" y="686" on="1"/>
        <pt x="450" y="810" on="1"/>
        <pt x="503" y="796" on="1"/>
        <pt x="462" y="667" on="1"/>
        <pt x="532" y="630" on="0"/>
        <pt x="613" y="467" on="0"/>
      </contour>
      <contour>
        <pt x="342" y="645" on="1"/>
        <pt x="295" y="645" on="0"/>
        <pt x="217" y="608" on="0"/>
        <pt x="162" y="532" on="0"/>
        <pt x="132" y="418" on="0"/>
        <pt x="132" y="341" on="1"/>
        <pt x="132" y="232" on="0"/>
        <pt x="187" y="99" on="0"/>
        <pt x="237" y="68" on="1"/>
        <pt x="402" y="637" on="1"/>
        <pt x="372" y="645" on="0"/>
      </contour>
      <contour>
        <pt x="342" y="40" on="1"/>
        <pt x="389" y="40" on="0"/>
        <pt x="466" y="77" on="0"/>
        <pt x="521" y="152" on="0"/>
        <pt x="551" y="265" on="0"/>
        <pt x="551" y="342" on="1"/>
        <pt x="551" y="451" on="0"/>
        <pt x="496" y="585" on="0"/>
        <pt x="446" y="617" on="1"/>
        <pt x="282" y="48" on="1"/>
        <pt x="296" y="43" on="0"/>
        <pt x="325" y="40" on="0"/>
      </contour>
    </TTGlyph>
    <TTGlyph name="Oslashacute" xMin="70" yMin="-121" xMax="613" yMax="904">
      <component glyphName="Oslash" x="0" y="0" flags="0x204"/>
      <component glyphName="glyph00860" x="645" y="20" flags="0x4"/>
    </TTGlyph>
    <TTGlyph name="Otilde" xMin="70" yMin="-11" xMax="613" yMax="866">
      <component glyphName="O" x="0" y="0" flags="0x204"/>
      <component glyphName="glyph00862" x="675" y="0" flags="0x4"/>
    </TTGlyph>
    <TTGlyph name="P" xMin="110" yMin="0" xMax="529" yMax="685">
      <contour>
        <pt x="169" y="267" on="1"/>
        <pt x="169" y="0" on="1"/>
        <pt x="110" y="0" on="1"/>
        <pt x="110" y="685" on="1"/>
        <pt x="266" y="685" on="1"/>
        <pt x="393" y="685" on="0"/>
        <pt x="529" y="590" on="0"/>
        <pt x="529" y="481" on="1"/>
        <pt x="529" y="422" on="0"/>
        <pt x="491" y="341" on="0"/>
        <pt x="423" y="290" on="0"/>
        <pt x="326" y="267" on="0"/>
        <pt x="268" y="267" on="1"/>
      </contour>
      <contour>
        <pt x="169" y="317" on="1"/>
        <pt x="273" y="317" on="1"/>
        <pt x="316" y="317" on="0"/>
        <pt x="388" y="332" on="0"/>
        <pt x="439" y="369" on="0"/>
        <pt x="467" y="432" on="0"/>
        <pt x="467" y="480" on="1"/>
        <pt x="467" y="564" on="0"/>
        <pt x="363" y="635" on="0"/>
        <pt x="272" y="635" on="1"/>
        <pt x="169" y="635" on="1"/>
      </contour>
    </TTGlyph>
    <TTGlyph name="Phi" xMin="50" yMin="0" xMax="742" yMax="685">
      <contour>
        <pt x="425" y="685" on="1"/>
        <pt x="425" y="615" on="1"/>
        <pt x="490" y="613" on="0"/>
        <pt x="606" y="586" on="0"/>
        <pt x="692" y="524" on="0"/>
        <pt x="742" y="422" on="0"/>
        <pt x="742" y="346" on="1"/>
        <pt x="742" y="273" on="0"/>
        <pt x="693" y="171" on="0"/>
        <pt x="608" y="106" on="0"/>
        <pt x="492" y="76" on="0"/>
        <pt x="425" y="74" on="1"/>
        <pt x="425" y="0" on="1"/>
        <pt x="367" y="0" on="1"/>
        <pt x="367" y="74" on="1"/>
        <pt x="301" y="76" on="0"/>
        <pt x="186" y="104" on="0"/>
        <pt x="100" y="166" on="0"/>
        <pt x="50" y="268" on="0"/>
        <pt x="50" y="344" on="1"/>
        <pt x="50" y="417" on="0"/>
        <pt x="99" y="519" on="0"/>
        <pt x="184" y="583" on="0"/>
        <pt x="300" y="614" on="0"/>
        <pt x="367" y="616" on="1"/>
        <pt x="367" y="685" on="1"/>
      </contour>
      <contour>
        <pt x="112" y="344" on="1"/>
        <pt x="112" y="276" on="0"/>
        <pt x="154" y="190" on="0"/>
        <pt x="225" y="141" on="0"/>
        <pt x="317" y="122" on="0"/>
        <pt x="367" y="121" on="1"/>
        <pt x="367" y="569" on="1"/>
        <pt x="317" y="568" on="0"/>
        <pt x="224" y="547" on="0"/>
        <pt x="154" y="496" on="0"/>
        <pt x="112" y="410" on="0"/>
      </contour>
      <contour>
        <pt x="680" y="346" on="1"/>
        <pt x="680" y="413" on="0"/>
        <pt x="638" y="499" on="0"/>
        <pt x="567" y="549" on="0"/>
        <pt x="475" y="568" on="0"/>
        <pt x="425" y="569" on="1"/>
        <pt x="425" y="121" on="1"/>
        <pt x="475" y="122" on="0"/>
        <pt x="567" y="143" on="0"/>
        <pt x="638" y="194" on="0"/>
        <pt x="680" y="280" on="0"/>
      </contour>
    </TTGlyph>
    <TTGlyph name="Pi" xMin="110" yMin="0" xMax="550" yMax="685">
      <component glyphName="uni041F" x="0" y="0" flags="0x204"/>
    </TTGlyph>
    <TTGlyph name="Psi" xMin="40" yMin="0" xMax="632" yMax="685">
      <contour>
        <pt x="99" y="685" on="1"/>
        <pt x="99" y="446" on="1"/>
        <pt x="99" y="358" on="0"/>
        <pt x="201" y="260" on="0"/>
        <pt x="307" y="254" on="1"/>
        <pt x="307" y="685" on="1"/>
        <pt x="365" y="685" on="1"/>
        <pt x="365" y="254" on="1"/>
        <pt x="471" y="260" on="0"/>
        <pt x="573" y="358" on="0"/>
        <pt x="573" y="446" on="1"/>
        <pt x="573" y="685" on="1"/>
        <pt x="632" y="685" on="1"/>
        <pt x="632" y="443" on="1"/>
        <pt x="632" y="340" on="0"/>
        <pt x="498" y="212" on="0"/>
        <pt x="365" y="205" on="1"/>
        <pt x="365" y="0" on="1"/>
        <pt x="307" y="0" on="1"/>
        <pt x="307" y="205" on="1"/>
        <pt x="174" y="212" on="0"/>
        <pt x="40" y="338" on="0"/>
        <pt x="40" y="443" on="1"/>
        <pt x="40" y="685" on="1"/>
      </contour>
    </TTGlyph>
    <TTGlyph name="Q" xMin="70" yMin="-93" xMax="658" yMax="696">
      <contour>
        <pt x="342" y="-9" on="1"/>
        <pt x="282" y="-9" on="0"/>
        <pt x="182" y="36" on="0"/>
        <pt x="110" y="124" on="0"/>
        <pt x="70" y="255" on="0"/>
        <pt x="70" y="341" on="1"/>
        <pt x="70" y="425" on="0"/>
        <pt x="110" y="557" on="0"/>
        <pt x="182" y="648" on="0"/>
        <pt x="282" y="696" on="0"/>
        <pt x="342" y="696" on="1"/>
        <pt x="402" y="696" on="0"/>
        <pt x="502" y="650" on="0"/>
        <pt x="573" y="560" on="0"/>
        <pt x="613" y="428" on="0"/>
        <pt x="613" y="342" on="1"/>
        <pt x="613" y="216" on="0"/>
        <pt x="530" y="58" on="0"/>
        <pt x="453" y="23" on="1"/>
        <pt x="454" y="21" on="1"/>
        <pt x="510" y="21" on="0"/>
        <pt x="620" y="-10" on="0"/>
        <pt x="658" y="-42" on="1"/>
        <pt x="619" y="-93" on="1"/>
        <pt x="563" y="-44" on="0"/>
        <pt x="433" y="-9" on="0"/>
      </contour>
      <contour>
        <pt x="342" y="40" on="1"/>
        <pt x="389" y="40" on="0"/>
        <pt x="466" y="77" on="0"/>
        <pt x="521" y="152" on="0"/>
        <pt x="551" y="265" on="0"/>
        <pt x="551" y="342" on="1"/>
        <pt x="551" y="496" on="0"/>
        <pt x="436" y="645" on="0"/>
        <pt x="342" y="645" on="1"/>
        <pt x="295" y="645" on="0"/>
        <pt x="217" y="608" on="0"/>
        <pt x="162" y="532" on="0"/>
        <pt x="132" y="418" on="0"/>
        <pt x="132" y="341" on="1"/>
        <pt x="132" y="264" on="0"/>
        <pt x="163" y="150" on="0"/>
        <pt x="218" y="76" on="0"/>
        <pt x="295" y="40" on="0"/>
      </contour>
    </TTGlyph>
    <TTGlyph name="R" xMin="110" yMin="0" xMax="560" yMax="685">
      <contour>
        <pt x="293" y="308" on="1"/>
        <pt x="169" y="308" on="1"/>
        <pt x="169" y="0" on="1"/>
        <pt x="110" y="0" on="1"/>
        <pt x="110" y="685" on="1"/>
        <pt x="280" y="685" on="1"/>
        <pt x="404" y="685" on="0"/>
        <pt x="527" y="594" on="0"/>
        <pt x="527" y="499" on="1"/>
        <pt x="527" y="455" on="0"/>
        <pt x="499" y="393" on="0"/>
        <pt x="452" y="349" on="0"/>
        <pt x="389" y="323" on="0"/>
        <pt x="354" y="316" on="1"/>
        <pt x="560" y="0" on="1"/>
        <pt x="489" y="0" on="1"/>
      </contour>
      <contour>
        <pt x="169" y="357" on="1"/>
        <pt x="287" y="357" on="1"/>
        <pt x="326" y="357" on="0"/>
        <pt x="391" y="372" on="0"/>
        <pt x="439" y="405" on="0"/>
        <pt x="465" y="460" on="0"/>
        <pt x="465" y="499" on="1"/>
        <pt x="465" y="572" on="0"/>
        <pt x="376" y="635" on="0"/>
        <pt x="283" y="635" on="1"/>
        <pt x="169" y="635" on="1"/>
      </contour>
    </TTGlyph>
    <TTGlyph name="Racute" xMin="110" yMin="0" xMax="560" yMax="884">
      <component glyphName="R" x="0" y="0" flags="0x204"/>
      <component glyphName="glyph00860" x="631" y="0" flags="0x4"/>
    </TTGlyph>
    <TTGlyph name="Rcaron" xMin="110" yMin="0" xMax="560" yMax="887">
      <component glyphName="R" x="0" y="0" flags="0x204"/>
      <component glyphName="glyph00869" x="602" y="0" flags="0x4"/>
    </TTGlyph>
    <TTGlyph name="Rho" xMin="110" yMin="0" xMax="529" yMax="685">
      <component glyphName="P" x="0" y="0" flags="0x204"/>
    </TTGlyph>
    <TTGlyph name="S" xMin="35" yMin="-11" xMax="498" yMax="696">
      <contour>
        <pt x="439" y="584" on="1"/>
        <pt x="403" y="616" on="0"/>
        <pt x="326" y="645" on="0"/>
        <pt x="274" y="645" on="1"/>
        <pt x="210" y="645" on="0"/>
        <pt x="126" y="588" on="0"/>
        <pt x="126" y="533" on="1"/>
        <pt x="126" y="506" on="0"/>
        <pt x="143" y="466" on="0"/>
        <pt x="181" y="434" on="0"/>
        <pt x="244" y="407" on="0"/>
        <pt x="290" y="393" on="1"/>
        <pt x="335" y="379" on="0"/>
        <pt x="412" y="346" on="0"/>
        <pt x="467" y="300" on="0"/>
        <pt x="498" y="235" on="0"/>
        <pt x="498" y="189" on="1"/>
        <pt x="498" y="144" on="0"/>
        <pt x="466" y="71" on="0"/>
        <pt x="405" y="18" on="0"/>
        <pt x="317" y="-11" on="0"/>
        <pt x="262" y="-11" on="1"/>
        <pt x="190" y="-11" on="0"/>
        <pt x="77" y="32" on="0"/>
        <pt x="35" y="72" on="1"/>
        <pt x="70" y="113" on="1"/>
        <pt x="108" y="79" on="0"/>
        <pt x="202" y="40" on="0"/>
        <pt x="262" y="40" on="1"/>
        <pt x="340" y="40" on="0"/>
        <pt x="436" y="116" on="0"/>
        <pt x="436" y="187" on="1"/>
        <pt x="436" y="219" on="0"/>
        <pt x="416" y="265" on="0"/>
        <pt x="375" y="300" on="0"/>
        <pt x="310" y="328" on="0"/>
        <pt x="265" y="342" on="1"/>
        <pt x="213" y="358" on="0"/>
        <pt x="138" y="393" on="0"/>
        <pt x="89" y="437" on="0"/>
        <pt x="65" y="493" on="0"/>
        <pt x="65" y="531" on="1"/>
        <pt x="65" y="568" on="0"/>
        <pt x="95" y="629" on="0"/>
        <pt x="150" y="672" on="0"/>
        <pt x="226" y="696" on="0"/>
        <pt x="272" y="696" on="1"/>
        <pt x="342" y="696" on="0"/>
        <pt x="436" y="656" on="0"/>
        <pt x="475" y="623" on="1"/>
      </contour>
    </TTGlyph>
    <TTGlyph name="Sacute" xMin="35" yMin="-11" xMax="498" yMax="884">
      <component glyphName="S" x="0" y="0" flags="0x204"/>
      <component glyphName="glyph00860" x="605" y="0" flags="0x4"/>
    </TTGlyph>
    <TTGlyph name="Scaron" xMin="35" yMin="-11" xMax="498" yMax="887">
      <component glyphName="S" x="0" y="0" flags="0x204"/>
      <component glyphName="glyph00869" x="576" y="0" flags="0x4"/>
    </TTGlyph>
    <TTGlyph name="Scedilla" xMin="35" yMin="-226" xMax="498" yMax="696">
      <contour>
        <pt x="316" y="-142" on="1"/>
        <pt x="316" y="-116" on="0"/>
        <pt x="273" y="-99" on="0"/>
        <pt x="237" y="-98" on="1"/>
        <pt x="243" y="-10" on="1"/>
        <pt x="114" y="-4" on="0"/>
        <pt x="35" y="72" on="1"/>
        <pt x="70" y="113" on="1"/>
        <pt x="108" y="79" on="0"/>
        <pt x="202" y="40" on="0"/>
        <pt x="262" y="40" on="1"/>
        <pt x="340" y="40" on="0"/>
        <pt x="436" y="116" on="0"/>
        <pt x="436" y="187" on="1"/>
        <pt x="436" y="219" on="0"/>
        <pt x="416" y="265" on="0"/>
        <pt x="375" y="300" on="0"/>
        <pt x="310" y="328" on="0"/>
        <pt x="265" y="342" on="1"/>
        <pt x="213" y="358" on="0"/>
        <pt x="138" y="393" on="0"/>
        <pt x="89" y="437" on="0"/>
        <pt x="65" y="493" on="0"/>
        <pt x="65" y="531" on="1"/>
        <pt x="65" y="568" on="0"/>
        <pt x="95" y="629" on="0"/>
        <pt x="150" y="672" on="0"/>
        <pt x="226" y="696" on="0"/>
        <pt x="272" y="696" on="1"/>
        <pt x="342" y="696" on="0"/>
        <pt x="436" y="656" on="0"/>
        <pt x="475" y="623" on="1"/>
        <pt x="439" y="584" on="1"/>
        <pt x="403" y="616" on="0"/>
        <pt x="326" y="645" on="0"/>
        <pt x="274" y="645" on="1"/>
        <pt x="210" y="645" on="0"/>
        <pt x="126" y="588" on="0"/>
        <pt x="126" y="533" on="1"/>
        <pt x="126" y="506" on="0"/>
        <pt x="143" y="466" on="0"/>
        <pt x="181" y="434" on="0"/>
        <pt x="244" y="407" on="0"/>
        <pt x="290" y="393" on="1"/>
        <pt x="335" y="379" on="0"/>
        <pt x="412" y="346" on="0"/>
        <pt x="467" y="300" on="0"/>
        <pt x="498" y="235" on="0"/>
        <pt x="498" y="189" on="1"/>
        <pt x="498" y="104" on="0"/>
        <pt x="388" y="-2" on="0"/>
        <pt x="289" y="-10" on="1"/>
        <pt x="289" y="-67" on="1"/>
        <pt x="334" y="-72" on="0"/>
        <pt x="373" y="-111" on="0"/>
        <pt x="373" y="-143" on="1"/>
        <pt x="373" y="-185" on="0"/>
        <pt x="310" y="-226" on="0"/>
        <pt x="265" y="-226" on="1"/>
        <pt x="237" y="-226" on="0"/>
        <pt x="197" y="-216" on="0"/>
        <pt x="180" y="-207" on="1"/>
        <pt x="202" y="-168" on="1"/>
        <pt x="213" y="-174" on="0"/>
        <pt x="245" y="-182" on="0"/>
        <pt x="260" y="-182" on="1"/>
        <pt x="285" y="-182" on="0"/>
        <pt x="316" y="-165" on="0"/>
      </contour>
    </TTGlyph>
    <TTGlyph name="Scircumflex" xMin="35" yMin="-11" xMax="498" yMax="887">
      <component glyphName="S" x="0" y="0" flags="0x204"/>
      <component glyphName="glyph00861" x="621" y="0" flags="0x4"/>
    </TTGlyph>
    <TTGlyph name="Sigma" xMin="30" yMin="0" xMax="438" yMax="685">
      <contour>
        <pt x="318" y="325" on="1"/>
        <pt x="103" y="51" on="1"/>
        <pt x="438" y="51" on="1"/>
        <pt x="438" y="0" on="1"/>
        <pt x="30" y="0" on="1"/>
        <pt x="30" y="43" on="1"/>
        <pt x="264" y="341" on="1"/>
        <pt x="30" y="642" on="1"/>
        <pt x="30" y="685" on="1"/>
        <pt x="438" y="685" on="1"/>
        <pt x="438" y="635" on="1"/>
        <pt x="102" y="635" on="1"/>
        <pt x="318" y="358" on="1"/>
      </contour>
    </TTGlyph>
    <TTGlyph name="T" xMin="20" yMin="0" xMax="484" yMax="685">
      <contour>
        <pt x="222" y="0" on="1"/>
        <pt x="222" y="633" on="1"/>
        <pt x="20" y="633" on="1"/>
        <pt x="20" y="685" on="1"/>
        <pt x="484" y="685" on="1"/>
        <pt x="477" y="633" on="1"/>
        <pt x="281" y="633" on="1"/>
        <pt x="281" y="0" on="1"/>
      </contour>
    </TTGlyph>
    <TTGlyph name="Tau" xMin="20" yMin="0" xMax="484" yMax="685">
      <component glyphName="T" x="0" y="0" flags="0x204"/>
    </TTGlyph>
    <TTGlyph name="Tbar" xMin="20" yMin="0" xMax="484" yMax="685">
      <contour>
        <pt x="222" y="0" on="1"/>
        <pt x="222" y="374" on="1"/>
        <pt x="98" y="374" on="1"/>
        <pt x="98" y="422" on="1"/>
        <pt x="222" y="422" on="1"/>
        <pt x="222" y="633" on="1"/>
        <pt x="20" y="633" on="1"/>
        <pt x="20" y="685" on="1"/>
        <pt x="484" y="685" on="1"/>
        <pt x="477" y="633" on="1"/>
        <pt x="281" y="633" on="1"/>
        <pt x="281" y="422" on="1"/>
        <pt x="405" y="422" on="1"/>
        <pt x="405" y="374" on="1"/>
        <pt x="281" y="374" on="1"/>
        <pt x="281" y="0" on="1"/>
      </contour>
    </TTGlyph>
    <TTGlyph name="Tcaron" xMin="20" yMin="0" xMax="484" yMax="887">
      <component glyphName="T" x="0" y="0" flags="0x204"/>
      <component glyphName="glyph00869" x="544" y="0" flags="0x4"/>
    </TTGlyph>
    <TTGlyph name="Theta" xMin="70" yMin="-11" xMax="613" yMax="696">
      <contour>
        <pt x="205" y="325" on="1"/>
        <pt x="205" y="373" on="1"/>
        <pt x="478" y="373" on="1"/>
        <pt x="478" y="325" on="1"/>
      </contour>
      <contour>
        <pt x="613" y="342" on="1"/>
        <pt x="613" y="258" on="0"/>
        <pt x="573" y="127" on="0"/>
        <pt x="502" y="37" on="0"/>
        <pt x="402" y="-11" on="0"/>
        <pt x="342" y="-11" on="1"/>
        <pt x="282" y="-11" on="0"/>
        <pt x="182" y="35" on="0"/>
        <pt x="110" y="124" on="0"/>
        <pt x="70" y="255" on="0"/>
        <pt x="70" y="341" on="1"/>
        <pt x="70" y="425" on="0"/>
        <pt x="110" y="557" on="0"/>
        <pt x="182" y="648" on="0"/>
        <pt x="282" y="696" on="0"/>
        <pt x="342" y="696" on="1"/>
        <pt x="402" y="696" on="0"/>
        <pt x="502" y="650" on="0"/>
        <pt x="573" y="560" on="0"/>
        <pt x="613" y="428" on="0"/>
      </contour>
      <contour>
        <pt x="342" y="40" on="1"/>
        <pt x="389" y="40" on="0"/>
        <pt x="466" y="77" on="0"/>
        <pt x="521" y="152" on="0"/>
        <pt x="551" y="265" on="0"/>
        <pt x="551" y="342" on="1"/>
        <pt x="551" y="496" on="0"/>
        <pt x="436" y="645" on="0"/>
        <pt x="342" y="645" on="1"/>
        <pt x="295" y="645" on="0"/>
        <pt x="217" y="608" on="0"/>
        <pt x="162" y="532" on="0"/>
        <pt x="132" y="418" on="0"/>
        <pt x="132" y="341" on="1"/>
        <pt x="132" y="264" on="0"/>
        <pt x="163" y="150" on="0"/>
        <pt x="218" y="76" on="0"/>
        <pt x="295" y="40" on="0"/>
      </contour>
    </TTGlyph>
    <TTGlyph name="Thorn" xMin="110" yMin="0" xMax="529" yMax="685">
      <contour>
        <pt x="169" y="565" on="1"/>
        <pt x="266" y="565" on="1"/>
        <pt x="393" y="565" on="0"/>
        <pt x="529" y="466" on="0"/>
        <pt x="529" y="356" on="1"/>
        <pt x="529" y="297" on="0"/>
        <pt x="491" y="214" on="0"/>
        <pt x="423" y="161" on="0"/>
        <pt x="326" y="137" on="0"/>
        <pt x="268" y="137" on="1"/>
        <pt x="169" y="137" on="1"/>
        <pt x="169" y="0" on="1"/>
        <pt x="110" y="0" on="1"/>
        <pt x="110" y="685" on="1"/>
        <pt x="169" y="685" on="1"/>
      </contour>
      <contour>
        <pt x="273" y="187" on="1"/>
        <pt x="316" y="187" on="0"/>
        <pt x="388" y="203" on="0"/>
        <pt x="439" y="241" on="0"/>
        <pt x="467" y="306" on="0"/>
        <pt x="467" y="355" on="1"/>
        <pt x="467" y="441" on="0"/>
        <pt x="363" y="515" on="0"/>
        <pt x="272" y="515" on="1"/>
        <pt x="169" y="515" on="1"/>
        <pt x="169" y="187" on="1"/>
      </contour>
    </TTGlyph>
    <TTGlyph name="U" xMin="100" yMin="-11" xMax="552" yMax="685">
      <contour>
        <pt x="159" y="685" on="1"/>
        <pt x="159" y="221" on="1"/>
        <pt x="159" y="40" on="0"/>
        <pt x="326" y="40" on="1"/>
        <pt x="493" y="40" on="0"/>
        <pt x="493" y="221" on="1"/>
        <pt x="493" y="685" on="1"/>
        <pt x="552" y="685" on="1"/>
        <pt x="552" y="218" on="1"/>
        <pt x="552" y="111" on="0"/>
        <pt x="436" y="-11" on="0"/>
        <pt x="326" y="-11" on="1"/>
        <pt x="216" y="-11" on="0"/>
        <pt x="100" y="109" on="0"/>
        <pt x="100" y="218" on="1"/>
        <pt x="100" y="685" on="1"/>
      </contour>
    </TTGlyph>
    <TTGlyph name="Uacute" xMin="100" yMin="-11" xMax="552" yMax="884">
      <component glyphName="U" x="0" y="0" flags="0x204"/>
      <component glyphName="glyph00860" x="659" y="0" flags="0x4"/>
    </TTGlyph>
    <TTGlyph name="Ubreve" xMin="100" yMin="-11" xMax="552" yMax="873">
      <component glyphName="U" x="0" y="0" flags="0x204"/>
      <component glyphName="glyph00864" x="662" y="0" flags="0x4"/>
    </TTGlyph>
    <TTGlyph name="Ucircumflex" xMin="100" yMin="-11" xMax="552" yMax="887">
      <component glyphName="U" x="0" y="0" flags="0x204"/>
      <component glyphName="glyph00861" x="665" y="0" flags="0x4"/>
    </TTGlyph>
    <TTGlyph name="Udieresis" xMin="100" yMin="-11" xMax="552" yMax="837">
      <component glyphName="U" x="0" y="0" flags="0x204"/>
      <component glyphName="glyph00866" x="666" y="0" flags="0x4"/>
    </TTGlyph>
    <TTGlyph name="Ugrave" xMin="100" yMin="-11" xMax="552" yMax="884">
      <component glyphName="U" x="0" y="0" flags="0x204"/>
      <component glyphName="glyph00859" x="639" y="0" flags="0x4"/>
    </TTGlyph>
    <TTGlyph name="Uhungarumlaut" xMin="100" yMin="-11" xMax="552" yMax="934">
      <component glyphName="U" x="0" y="0" flags="0x204"/>
      <component glyphName="glyph00868" x="671" y="0" flags="0x4"/>
    </TTGlyph>
    <TTGlyph name="Umacron" xMin="100" yMin="-11" xMax="552" yMax="844">
      <component glyphName="U" x="0" y="0" flags="0x204"/>
      <component glyphName="glyph00863" x="659" y="0" flags="0x4"/>
    </TTGlyph>
    <TTGlyph name="Uogonek" xMin="100" yMin="-226" xMax="552" yMax="685">
      <contour>
        <pt x="159" y="685" on="1"/>
        <pt x="159" y="221" on="1"/>
        <pt x="159" y="40" on="0"/>
        <pt x="326" y="40" on="1"/>
        <pt x="493" y="40" on="0"/>
        <pt x="493" y="221" on="1"/>
        <pt x="493" y="685" on="1"/>
        <pt x="552" y="685" on="1"/>
        <pt x="552" y="218" on="1"/>
        <pt x="552" y="143" on="0"/>
        <pt x="493" y="39" on="0"/>
        <pt x="439" y="11" on="1"/>
        <pt x="410" y="-4" on="0"/>
        <pt x="371" y="-37" on="0"/>
        <pt x="347" y="-72" on="0"/>
        <pt x="337" y="-107" on="0"/>
        <pt x="337" y="-123" on="1"/>
        <pt x="337" y="-148" on="0"/>
        <pt x="367" y="-182" on="0"/>
        <pt x="398" y="-182" on="1"/>
        <pt x="415" y="-182" on="0"/>
        <pt x="444" y="-175" on="0"/>
        <pt x="452" y="-170" on="1"/>
        <pt x="469" y="-208" on="1"/>
        <pt x="448" y="-219" on="0"/>
        <pt x="412" y="-226" on="0"/>
        <pt x="391" y="-226" on="1"/>
        <pt x="335" y="-226" on="0"/>
        <pt x="280" y="-172" on="0"/>
        <pt x="280" y="-130" on="1"/>
        <pt x="280" y="-96" on="0"/>
        <pt x="317" y="-33" on="0"/>
        <pt x="349" y="-9" on="1"/>
        <pt x="344" y="-10" on="0"/>
        <pt x="332" y="-11" on="0"/>
        <pt x="326" y="-11" on="1"/>
        <pt x="216" y="-11" on="0"/>
        <pt x="100" y="109" on="0"/>
        <pt x="100" y="218" on="1"/>
        <pt x="100" y="685" on="1"/>
      </contour>
    </TTGlyph>
    <TTGlyph name="Upsilon" xMin="5" yMin="0" xMax="512" yMax="685">
      <component glyphName="Y" x="0" y="0" flags="0x204"/>
    </TTGlyph>
    <TTGlyph name="Upsilondieresis" xMin="5" yMin="0" xMax="512" yMax="837">
      <component glyphName="Y" x="0" y="0" flags="0x204"/>
      <component glyphName="glyph00866" x="598" y="0" flags="0x4"/>
    </TTGlyph>
    <TTGlyph name="Upsilontonos" xMin="-50" yMin="0" xMax="582" yMax="689">
      <component glyphName="Y" x="70" y="0" flags="0x4"/>
      <component glyphName="glyph00884" x="75" y="0" flags="0x4"/>
    </TTGlyph>
    <TTGlyph name="Uring" xMin="100" yMin="-11" xMax="552" yMax="924">
      <component glyphName="U" x="0" y="0" flags="0x204"/>
      <component glyphName="glyph00867" x="667" y="0" flags="0x4"/>
    </TTGlyph>
    <TTGlyph name="Utilde" xMin="100" yMin="-11" xMax="552" yMax="866">
      <component glyphName="U" x="0" y="0" flags="0x204"/>
      <component glyphName="glyph00862" x="660" y="0" flags="0x4"/>
    </TTGlyph>
    <TTGlyph name="V" xMin="15" yMin="0" xMax="529" yMax="685">
      <contour>
        <pt x="529" y="685" on="1"/>
        <pt x="306" y="0" on="1"/>
        <pt x="240" y="0" on="1"/>
        <pt x="15" y="685" on="1"/>
        <pt x="79" y="685" on="1"/>
        <pt x="272" y="65" on="1"/>
        <pt x="274" y="65" on="1"/>
        <pt x="467" y="685" on="1"/>
      </contour>
    </TTGlyph>
    <TTGlyph name="W" xMin="25" yMin="0" xMax="771" yMax="685">
      <contour>
        <pt x="584" y="64" on="1"/>
        <pt x="586" y="64" on="1"/>
        <pt x="715" y="685" on="1"/>
        <pt x="771" y="685" on="1"/>
        <pt x="622" y="0" on="1"/>
        <pt x="548" y="0" on="1"/>
        <pt x="398" y="610" on="1"/>
        <pt x="396" y="610" on="1"/>
        <pt x="246" y="0" on="1"/>
        <pt x="174" y="0" on="1"/>
        <pt x="25" y="685" on="1"/>
        <pt x="84" y="685" on="1"/>
        <pt x="211" y="64" on="1"/>
        <pt x="213" y="64" on="1"/>
        <pt x="365" y="685" on="1"/>
        <pt x="430" y="685" on="1"/>
      </contour>
    </TTGlyph>
    <TTGlyph name="Wcircumflex" xMin="25" yMin="0" xMax="771" yMax="887">
      <component glyphName="W" x="0" y="0" flags="0x204"/>
      <component glyphName="glyph00861" x="737" y="0" flags="0x4"/>
    </TTGlyph>
    <TTGlyph name="X" xMin="5" yMin="0" xMax="514" yMax="685">
      <contour>
        <pt x="259" y="409" on="1"/>
        <pt x="420" y="685" on="1"/>
        <pt x="486" y="685" on="1"/>
        <pt x="293" y="371" on="1"/>
        <pt x="514" y="0" on="1"/>
        <pt x="444" y="0" on="1"/>
        <pt x="258" y="328" on="1"/>
        <pt x="256" y="328" on="1"/>
        <pt x="72" y="0" on="1"/>
        <pt x="5" y="0" on="1"/>
        <pt x="222" y="368" on="1"/>
        <pt x="32" y="685" on="1"/>
        <pt x="102" y="685" on="1"/>
        <pt x="257" y="409" on="1"/>
      </contour>
    </TTGlyph>
    <TTGlyph name="Xi" xMin="50" yMin="0" xMax="436" yMax="685">
      <contour>
        <pt x="50" y="0" on="1"/>
        <pt x="50" y="56" on="1"/>
        <pt x="434" y="56" on="1"/>
        <pt x="434" y="0" on="1"/>
      </contour>
      <contour>
        <pt x="436" y="685" on="1"/>
        <pt x="429" y="630" on="1"/>
        <pt x="50" y="630" on="1"/>
        <pt x="50" y="685" on="1"/>
      </contour>
      <contour>
        <pt x="110" y="383" on="1"/>
        <pt x="373" y="383" on="1"/>
        <pt x="373" y="328" on="1"/>
        <pt x="110" y="328" on="1"/>
      </contour>
    </TTGlyph>
    <TTGlyph name="Y" xMin="5" yMin="0" xMax="512" yMax="685">
      <contour>
        <pt x="512" y="685" on="1"/>
        <pt x="289" y="277" on="1"/>
        <pt x="289" y="0" on="1"/>
        <pt x="230" y="0" on="1"/>
        <pt x="230" y="276" on="1"/>
        <pt x="5" y="685" on="1"/>
        <pt x="72" y="685" on="1"/>
        <pt x="259" y="331" on="1"/>
        <pt x="261" y="331" on="1"/>
        <pt x="449" y="685" on="1"/>
      </contour>
    </TTGlyph>
    <TTGlyph name="Yacute" xMin="5" yMin="0" xMax="512" yMax="884">
      <component glyphName="Y" x="0" y="0" flags="0x204"/>
      <component glyphName="glyph00860" x="592" y="0" flags="0x4"/>
    </TTGlyph>
    <TTGlyph name="Ycircumflex" xMin="5" yMin="0" xMax="512" yMax="887">
      <component glyphName="Y" x="0" y="0" flags="0x204"/>
      <component glyphName="glyph00861" x="599" y="0" flags="0x4"/>
    </TTGlyph>
    <TTGlyph name="Ydieresis" xMin="5" yMin="0" xMax="512" yMax="837">
      <component glyphName="Y" x="0" y="0" flags="0x204"/>
      <component glyphName="glyph00866" x="599" y="0" flags="0x4"/>
    </TTGlyph>
    <TTGlyph name="Z" xMin="35" yMin="0" xMax="465" yMax="685">
      <contour>
        <pt x="451" y="0" on="1"/>
        <pt x="35" y="0" on="1"/>
        <pt x="35" y="49" on="1"/>
        <pt x="400" y="634" on="1"/>
        <pt x="72" y="634" on="1"/>
        <pt x="72" y="685" on="1"/>
        <pt x="465" y="685" on="1"/>
        <pt x="465" y="636" on="1"/>
        <pt x="101" y="52" on="1"/>
        <pt x="458" y="52" on="1"/>
      </contour>
    </TTGlyph>
    <TTGlyph name="Zacute" xMin="35" yMin="0" xMax="465" yMax="884">
      <component glyphName="Z" x="0" y="0" flags="0x204"/>
      <component glyphName="glyph00860" x="588" y="0" flags="0x4"/>
    </TTGlyph>
    <TTGlyph name="Zcaron" xMin="35" yMin="0" xMax="465" yMax="887">
      <component glyphName="Z" x="0" y="0" flags="0x204"/>
      <component glyphName="glyph00869" x="559" y="0" flags="0x4"/>
    </TTGlyph>
    <TTGlyph name="Zdotaccent" xMin="35" yMin="0" xMax="465" yMax="854">
      <component glyphName="Z" x="0" y="0" flags="0x204"/>
      <component glyphName="glyph00865" x="607" y="0" flags="0x4"/>
    </TTGlyph>
    <TTGlyph name="Zeta" xMin="35" yMin="0" xMax="465" yMax="685">
      <component glyphName="Z" x="0" y="0" flags="0x204"/>
    </TTGlyph>
    <TTGlyph name="a" xMin="45" yMin="-11" xMax="471" yMax="534">
      <contour>
        <pt x="371" y="78" on="1"/>
        <pt x="343" y="31" on="0"/>
        <pt x="257" y="-11" on="0"/>
        <pt x="206" y="-11" on="1"/>
        <pt x="130" y="-11" on="0"/>
        <pt x="45" y="75" on="0"/>
        <pt x="45" y="146" on="1"/>
        <pt x="45" y="228" on="0"/>
        <pt x="168" y="312" on="0"/>
        <pt x="274" y="312" on="1"/>
        <pt x="364" y="312" on="1"/>
        <pt x="364" y="364" on="1"/>
        <pt x="364" y="426" on="0"/>
        <pt x="306" y="485" on="0"/>
        <pt x="239" y="485" on="1"/>
        <pt x="210" y="485" on="0"/>
        <pt x="141" y="473" on="0"/>
        <pt x="98" y="456" on="1"/>
        <pt x="82" y="501" on="1"/>
        <pt x="130" y="520" on="0"/>
        <pt x="210" y="534" on="0"/>
        <pt x="247" y="534" on="1"/>
        <pt x="340" y="534" on="0"/>
        <pt x="421" y="446" on="0"/>
        <pt x="421" y="367" on="1"/>
        <pt x="421" y="114" on="1"/>
        <pt x="421" y="71" on="0"/>
        <pt x="446" y="37" on="0"/>
        <pt x="471" y="29" on="1"/>
        <pt x="458" y="-11" on="1"/>
        <pt x="423" y="-5" on="0"/>
        <pt x="379" y="32" on="0"/>
        <pt x="371" y="77" on="1"/>
      </contour>
      <contour>
        <pt x="364" y="267" on="1"/>
        <pt x="277" y="267" on="1"/>
        <pt x="192" y="267" on="0"/>
        <pt x="106" y="209" on="0"/>
        <pt x="106" y="149" on="1"/>
        <pt x="106" y="95" on="0"/>
        <pt x="165" y="38" on="0"/>
        <pt x="220" y="38" on="1"/>
        <pt x="269" y="38" on="0"/>
        <pt x="342" y="90" on="0"/>
        <pt x="364" y="133" on="1"/>
      </contour>
    </TTGlyph>
    <TTGlyph name="aacute" xMin="45" yMin="-11" xMax="471" yMax="756">
      <component glyphName="a" x="0" y="0" flags="0x204"/>
      <component glyphName="acutecomb" x="533" y="0" flags="0x4"/>
    </TTGlyph>
    <TTGlyph name="abreve" xMin="45" yMin="-11" xMax="471" yMax="743">
      <component glyphName="a" x="0" y="0" flags="0x204"/>
      <component glyphName="uni0306" x="539" y="0" flags="0x4"/>
    </TTGlyph>
    <TTGlyph name="acircumflex" xMin="45" yMin="-11" xMax="471" yMax="757">
      <component glyphName="a" x="0" y="0" flags="0x204"/>
      <component glyphName="uni0302" x="574" y="0" flags="0x4"/>
    </TTGlyph>
    <TTGlyph name="acute" xMin="30" yMin="617" xMax="244" yMax="756">
      <contour>
        <pt x="30" y="651" on="1"/>
        <pt x="212" y="756" on="1"/>
        <pt x="244" y="704" on="1"/>
        <pt x="50" y="617" on="1"/>
      </contour>
    </TTGlyph>
    <TTGlyph name="acutecomb" xMin="-387" yMin="617" xMax="-173" yMax="756">
      <contour>
        <pt x="-387" y="651" on="1"/>
        <pt x="-205" y="756" on="1"/>
        <pt x="-173" y="704" on="1"/>
        <pt x="-367" y="617" on="1"/>
      </contour>
    </TTGlyph>
    <TTGlyph name="adieresis" xMin="45" yMin="-11" xMax="471" yMax="707">
      <component glyphName="a" x="0" y="0" flags="0x204"/>
      <component glyphName="uni0308" x="532" y="0" flags="0x4"/>
    </TTGlyph>
    <TTGlyph name="ae" xMin="45" yMin="-11" xMax="772" yMax="534">
      <contour>
        <pt x="424" y="239" on="1"/>
        <pt x="427" y="186" on="0"/>
        <pt x="454" y="111" on="0"/>
        <pt x="498" y="61" on="0"/>
        <pt x="557" y="38" on="0"/>
        <pt x="590" y="38" on="1"/>
        <pt x="632" y="38" on="0"/>
        <pt x="697" y="62" on="0"/>
        <pt x="730" y="91" on="1"/>
        <pt x="757" y="52" on="1"/>
        <pt x="688" y="-11" on="0"/>
        <pt x="588" y="-11" on="1"/>
        <pt x="522" y="-11" on="0"/>
        <pt x="427" y="48" on="0"/>
        <pt x="399" y="97" on="1"/>
        <pt x="358" y="35" on="0"/>
        <pt x="264" y="-11" on="0"/>
        <pt x="206" y="-11" on="1"/>
        <pt x="130" y="-11" on="0"/>
        <pt x="45" y="76" on="0"/>
        <pt x="45" y="147" on="1"/>
        <pt x="45" y="229" on="0"/>
        <pt x="168" y="312" on="0"/>
        <pt x="274" y="312" on="1"/>
        <pt x="364" y="312" on="1"/>
        <pt x="364" y="364" on="1"/>
        <pt x="364" y="421" on="0"/>
        <pt x="306" y="485" on="0"/>
        <pt x="239" y="485" on="1"/>
        <pt x="210" y="485" on="0"/>
        <pt x="141" y="473" on="0"/>
        <pt x="98" y="456" on="1"/>
        <pt x="82" y="501" on="1"/>
        <pt x="130" y="520" on="0"/>
        <pt x="210" y="534" on="0"/>
        <pt x="247" y="534" on="1"/>
        <pt x="317" y="534" on="0"/>
        <pt x="395" y="479" on="0"/>
        <pt x="406" y="428" on="1"/>
        <pt x="428" y="479" on="0"/>
        <pt x="521" y="534" on="0"/>
        <pt x="575" y="534" on="1"/>
        <pt x="673" y="534" on="0"/>
        <pt x="772" y="400" on="0"/>
        <pt x="772" y="277" on="1"/>
        <pt x="772" y="268" on="0"/>
        <pt x="771" y="247" on="0"/>
        <pt x="770" y="239" on="1"/>
      </contour>
      <contour>
        <pt x="379" y="145" on="1"/>
        <pt x="364" y="194" on="0"/>
        <pt x="364" y="259" on="1"/>
        <pt x="364" y="267" on="1"/>
        <pt x="277" y="267" on="1"/>
        <pt x="192" y="267" on="0"/>
        <pt x="106" y="211" on="0"/>
        <pt x="106" y="152" on="1"/>
        <pt x="106" y="98" on="0"/>
        <pt x="166" y="38" on="0"/>
        <pt x="220" y="38" on="1"/>
        <pt x="269" y="38" on="0"/>
        <pt x="350" y="91" on="0"/>
      </contour>
      <contour>
        <pt x="575" y="485" on="1"/>
        <pt x="512" y="485" on="0"/>
        <pt x="429" y="389" on="0"/>
        <pt x="424" y="284" on="1"/>
        <pt x="715" y="284" on="1"/>
        <pt x="713" y="381" on="0"/>
        <pt x="646" y="485" on="0"/>
      </contour>
    </TTGlyph>
    <TTGlyph name="aeacute" xMin="45" yMin="-11" xMax="772" yMax="756">
      <component glyphName="ae" x="0" y="0" flags="0x204"/>
      <component glyphName="acutecomb" x="721" y="0" flags="0x4"/>
    </TTGlyph>
    <TTGlyph name="agrave" xMin="45" yMin="-11" xMax="471" yMax="756">
      <component glyphName="a" x="0" y="0" flags="0x204"/>
      <component glyphName="gravecomb" x="533" y="0" flags="0x4"/>
    </TTGlyph>
    <TTGlyph name="alpha" xMin="65" yMin="-11" xMax="541" yMax="534">
      <contour>
        <pt x="424" y="186" on="1"/>
        <pt x="409" y="132" on="0"/>
        <pt x="374" y="56" on="0"/>
        <pt x="330" y="10" on="0"/>
        <pt x="275" y="-11" on="0"/>
        <pt x="240" y="-11" on="1"/>
        <pt x="159" y="-11" on="0"/>
        <pt x="65" y="130" on="0"/>
        <pt x="65" y="263" on="1"/>
        <pt x="65" y="323" on="0"/>
        <pt x="89" y="422" on="0"/>
        <pt x="136" y="494" on="0"/>
        <pt x="204" y="534" on="0"/>
        <pt x="249" y="534" on="1"/>
        <pt x="290" y="534" on="0"/>
        <pt x="349" y="508" on="0"/>
        <pt x="391" y="456" on="0"/>
        <pt x="419" y="380" on="0"/>
        <pt x="428" y="329" on="1"/>
        <pt x="430" y="329" on="1"/>
        <pt x="475" y="517" on="1"/>
        <pt x="533" y="500" on="1"/>
        <pt x="454" y="263" on="1"/>
        <pt x="500" y="97" on="1"/>
        <pt x="506" y="75" on="0"/>
        <pt x="525" y="53" on="0"/>
        <pt x="541" y="47" on="1"/>
        <pt x="518" y="-8" on="1"/>
        <pt x="498" y="-4" on="0"/>
        <pt x="466" y="21" on="0"/>
        <pt x="456" y="60" on="1"/>
        <pt x="426" y="186" on="1"/>
      </contour>
      <contour>
        <pt x="254" y="485" on="1"/>
        <pt x="197" y="485" on="0"/>
        <pt x="125" y="373" on="0"/>
        <pt x="125" y="263" on="1"/>
        <pt x="125" y="147" on="0"/>
        <pt x="193" y="38" on="0"/>
        <pt x="244" y="38" on="1"/>
        <pt x="269" y="38" on="0"/>
        <pt x="314" y="57" on="0"/>
        <pt x="354" y="108" on="0"/>
        <pt x="388" y="194" on="0"/>
        <pt x="402" y="262" on="1"/>
        <pt x="389" y="322" on="0"/>
        <pt x="361" y="406" on="0"/>
        <pt x="326" y="460" on="0"/>
        <pt x="282" y="485" on="0"/>
      </contour>
    </TTGlyph>
    <TTGlyph name="alphatonos" xMin="65" yMin="-11" xMax="541" yMax="770">
      <component glyphName="alpha" x="0" y="0" flags="0x204"/>
      <component glyphName="tonos" x="346" y="0" flags="0x4"/>
    </TTGlyph>
    <TTGlyph name="amacron" xMin="45" yMin="-11" xMax="471" yMax="714">
      <component glyphName="a" x="0" y="0" flags="0x204"/>
      <component glyphName="uni0304" x="536" y="0" flags="0x4"/>
    </TTGlyph>
    <TTGlyph name="ampersand" xMin="115" yMin="-11" xMax="722" yMax="696">
      <contour>
        <pt x="660" y="351" on="1"/>
        <pt x="641" y="283" on="0"/>
        <pt x="594" y="181" on="0"/>
        <pt x="568" y="140" on="1"/>
        <pt x="722" y="0" on="1"/>
        <pt x="639" y="0" on="1"/>
        <pt x="535" y="96" on="1"/>
        <pt x="486" y="39" on="0"/>
        <pt x="377" y="-11" on="0"/>
        <pt x="317" y="-11" on="1"/>
        <pt x="272" y="-11" on="0"/>
        <pt x="197" y="14" on="0"/>
        <pt x="144" y="61" on="0"/>
        <pt x="115" y="126" on="0"/>
        <pt x="115" y="167" on="1"/>
        <pt x="115" y="231" on="0"/>
        <pt x="181" y="323" on="0"/>
        <pt x="249" y="367" on="1"/>
        <pt x="223" y="391" on="0"/>
        <pt x="183" y="434" on="0"/>
        <pt x="156" y="476" on="0"/>
        <pt x="142" y="520" on="0"/>
        <pt x="142" y="547" on="1"/>
        <pt x="142" y="578" on="0"/>
        <pt x="165" y="632" on="0"/>
        <pt x="208" y="673" on="0"/>
        <pt x="270" y="696" on="0"/>
        <pt x="309" y="696" on="1"/>
        <pt x="349" y="696" on="0"/>
        <pt x="412" y="672" on="0"/>
        <pt x="456" y="633" on="0"/>
        <pt x="478" y="583" on="0"/>
        <pt x="478" y="556" on="1"/>
        <pt x="478" y="527" on="0"/>
        <pt x="462" y="478" on="0"/>
        <pt x="427" y="432" on="0"/>
        <pt x="372" y="386" on="0"/>
        <pt x="333" y="361" on="1"/>
        <pt x="526" y="177" on="1"/>
        <pt x="549" y="214" on="0"/>
        <pt x="588" y="313" on="0"/>
        <pt x="604" y="372" on="1"/>
      </contour>
      <contour>
        <pt x="319" y="39" on="1"/>
        <pt x="366" y="39" on="0"/>
        <pt x="455" y="84" on="0"/>
        <pt x="495" y="132" on="1"/>
        <pt x="287" y="332" on="1"/>
        <pt x="255" y="311" on="0"/>
        <pt x="212" y="276" on="0"/>
        <pt x="186" y="238" on="0"/>
        <pt x="175" y="194" on="0"/>
        <pt x="175" y="166" on="1"/>
        <pt x="175" y="110" on="0"/>
        <pt x="253" y="39" on="0"/>
      </contour>
      <contour>
        <pt x="199" y="547" on="1"/>
        <pt x="199" y="529" on="0"/>
        <pt x="208" y="496" on="0"/>
        <pt x="230" y="462" on="0"/>
        <pt x="267" y="422" on="0"/>
        <pt x="295" y="396" on="1"/>
        <pt x="330" y="418" on="0"/>
        <pt x="378" y="454" on="0"/>
        <pt x="407" y="489" on="0"/>
        <pt x="420" y="527" on="0"/>
        <pt x="420" y="550" on="1"/>
        <pt x="420" y="594" on="0"/>
        <pt x="357" y="650" on="0"/>
        <pt x="309" y="650" on="1"/>
        <pt x="256" y="650" on="0"/>
        <pt x="199" y="590" on="0"/>
      </contour>
    </TTGlyph>
    <TTGlyph name="aogonek" xMin="45" yMin="-226" xMax="506" yMax="534">
      <contour>
        <pt x="371" y="78" on="1"/>
        <pt x="343" y="31" on="0"/>
        <pt x="257" y="-11" on="0"/>
        <pt x="206" y="-11" on="1"/>
        <pt x="130" y="-11" on="0"/>
        <pt x="45" y="75" on="0"/>
        <pt x="45" y="146" on="1"/>
        <pt x="45" y="228" on="0"/>
        <pt x="168" y="312" on="0"/>
        <pt x="274" y="312" on="1"/>
        <pt x="364" y="312" on="1"/>
        <pt x="364" y="364" on="1"/>
        <pt x="364" y="426" on="0"/>
        <pt x="306" y="485" on="0"/>
        <pt x="239" y="485" on="1"/>
        <pt x="210" y="485" on="0"/>
        <pt x="141" y="473" on="0"/>
        <pt x="98" y="456" on="1"/>
        <pt x="82" y="501" on="1"/>
        <pt x="130" y="520" on="0"/>
        <pt x="210" y="534" on="0"/>
        <pt x="247" y="534" on="1"/>
        <pt x="340" y="534" on="0"/>
        <pt x="421" y="446" on="0"/>
        <pt x="421" y="367" on="1"/>
        <pt x="421" y="114" on="1"/>
        <pt x="421" y="71" on="0"/>
        <pt x="446" y="37" on="0"/>
        <pt x="471" y="29" on="1"/>
        <pt x="458" y="-11" on="1"/>
        <pt x="410" y="-37" on="0"/>
        <pt x="374" y="-91" on="0"/>
        <pt x="374" y="-123" on="1"/>
        <pt x="374" y="-148" on="0"/>
        <pt x="404" y="-182" on="0"/>
        <pt x="435" y="-182" on="1"/>
        <pt x="452" y="-182" on="0"/>
        <pt x="481" y="-175" on="0"/>
        <pt x="489" y="-170" on="1"/>
        <pt x="506" y="-208" on="1"/>
        <pt x="485" y="-219" on="0"/>
        <pt x="449" y="-226" on="0"/>
        <pt x="428" y="-226" on="1"/>
        <pt x="372" y="-226" on="0"/>
        <pt x="317" y="-172" on="0"/>
        <pt x="317" y="-130" on="1"/>
        <pt x="317" y="-85" on="0"/>
        <pt x="370" y="-17" on="0"/>
        <pt x="415" y="3" on="1"/>
        <pt x="398" y="13" on="0"/>
        <pt x="376" y="48" on="0"/>
      </contour>
      <contour>
        <pt x="364" y="267" on="1"/>
        <pt x="277" y="267" on="1"/>
        <pt x="192" y="267" on="0"/>
        <pt x="106" y="209" on="0"/>
        <pt x="106" y="149" on="1"/>
        <pt x="106" y="95" on="0"/>
        <pt x="165" y="38" on="0"/>
        <pt x="220" y="38" on="1"/>
        <pt x="269" y="38" on="0"/>
        <pt x="342" y="90" on="0"/>
        <pt x="364" y="133" on="1"/>
      </contour>
    </TTGlyph>
    <TTGlyph name="approxequal" xMin="90" yMin="197" xMax="470" yMax="466">
      <contour>
        <pt x="356" y="370" on="1"/>
        <pt x="335" y="370" on="0"/>
        <pt x="293" y="384" on="0"/>
        <pt x="253" y="401" on="0"/>
        <pt x="218" y="415" on="0"/>
        <pt x="203" y="415" on="1"/>
        <pt x="155" y="415" on="0"/>
        <pt x="127" y="371" on="1"/>
        <pt x="90" y="394" on="1"/>
        <pt x="109" y="429" on="0"/>
        <pt x="171" y="466" on="0"/>
        <pt x="205" y="466" on="1"/>
        <pt x="227" y="466" on="0"/>
        <pt x="268" y="452" on="0"/>
        <pt x="307" y="435" on="0"/>
        <pt x="341" y="421" on="0"/>
        <pt x="356" y="421" on="1"/>
        <pt x="379" y="421" on="0"/>
        <pt x="418" y="444" on="0"/>
        <pt x="432" y="465" on="1"/>
        <pt x="470" y="439" on="1"/>
        <pt x="450" y="404" on="0"/>
        <pt x="391" y="370" on="0"/>
      </contour>
      <contour>
        <pt x="356" y="197" on="1"/>
        <pt x="335" y="197" on="0"/>
        <pt x="293" y="211" on="0"/>
        <pt x="253" y="228" on="0"/>
        <pt x="218" y="242" on="0"/>
        <pt x="203" y="242" on="1"/>
        <pt x="155" y="242" on="0"/>
        <pt x="127" y="198" on="1"/>
        <pt x="90" y="221" on="1"/>
        <pt x="109" y="256" on="0"/>
        <pt x="171" y="293" on="0"/>
        <pt x="205" y="293" on="1"/>
        <pt x="227" y="293" on="0"/>
        <pt x="268" y="279" on="0"/>
        <pt x="307" y="262" on="0"/>
        <pt x="341" y="248" on="0"/>
        <pt x="356" y="248" on="1"/>
        <pt x="379" y="248" on="0"/>
        <pt x="418" y="271" on="0"/>
        <pt x="432" y="292" on="1"/>
        <pt x="470" y="266" on="1"/>
        <pt x="450" y="231" on="0"/>
        <pt x="391" y="197" on="0"/>
      </contour>
    </TTGlyph>
    <TTGlyph name="aring" xMin="45" yMin="-11" xMax="471" yMax="794">
      <component glyphName="a" x="0" y="0" flags="0x204"/>
      <component glyphName="uni030A" x="538" y="0" flags="0x4"/>
    </TTGlyph>
    <TTGlyph name="arrowboth" xMin="130" yMin="41" xMax="1150" yMax="617">
      <contour>
        <pt x="219" y="354" on="1"/>
        <pt x="1061" y="354" on="1"/>
        <pt x="1062" y="357" on="1"/>
        <pt x="1048" y="368" on="0"/>
        <pt x="1011" y="402" on="0"/>
        <pt x="991" y="423" on="1"/>
        <pt x="850" y="581" on="1"/>
        <pt x="891" y="617" on="1"/>
        <pt x="1150" y="329" on="1"/>
        <pt x="891" y="41" on="1"/>
        <pt x="850" y="77" on="1"/>
        <pt x="991" y="235" on="1"/>
        <pt x="1011" y="257" on="0"/>
        <pt x="1048" y="291" on="0"/>
        <pt x="1062" y="302" on="1"/>
        <pt x="1061" y="305" on="1"/>
        <pt x="219" y="305" on="1"/>
        <pt x="218" y="302" on="1"/>
        <pt x="232" y="291" on="0"/>
        <pt x="269" y="257" on="0"/>
        <pt x="289" y="235" on="1"/>
        <pt x="430" y="77" on="1"/>
        <pt x="389" y="41" on="1"/>
        <pt x="130" y="329" on="1"/>
        <pt x="389" y="617" on="1"/>
        <pt x="430" y="581" on="1"/>
        <pt x="289" y="423" on="1"/>
        <pt x="269" y="402" on="0"/>
        <pt x="232" y="368" on="0"/>
        <pt x="218" y="357" on="1"/>
      </contour>
    </TTGlyph>
    <TTGlyph name="arrowdown" xMin="160" yMin="-20" xMax="740" yMax="620">
      <contour>
        <pt x="477" y="620" on="1"/>
        <pt x="477" y="69" on="1"/>
        <pt x="480" y="68" on="1"/>
        <pt x="491" y="82" on="0"/>
        <pt x="523" y="117" on="0"/>
        <pt x="545" y="137" on="1"/>
        <pt x="703" y="278" on="1"/>
        <pt x="740" y="240" on="1"/>
        <pt x="450" y="-20" on="1"/>
        <pt x="160" y="240" on="1"/>
        <pt x="197" y="278" on="1"/>
        <pt x="355" y="137" on="1"/>
        <pt x="376" y="117" on="0"/>
        <pt x="409" y="82" on="0"/>
        <pt x="420" y="68" on="1"/>
        <pt x="423" y="69" on="1"/>
        <pt x="423" y="620" on="1"/>
      </contour>
    </TTGlyph>
    <TTGlyph name="arrowleft" xMin="140" yMin="41" xMax="760" yMax="617">
      <contour>
        <pt x="760" y="304" on="1"/>
        <pt x="229" y="304" on="1"/>
        <pt x="228" y="301" on="1"/>
        <pt x="242" y="290" on="0"/>
        <pt x="279" y="256" on="0"/>
        <pt x="299" y="235" on="1"/>
        <pt x="440" y="77" on="1"/>
        <pt x="399" y="41" on="1"/>
        <pt x="140" y="329" on="1"/>
        <pt x="399" y="617" on="1"/>
        <pt x="440" y="581" on="1"/>
        <pt x="299" y="423" on="1"/>
        <pt x="279" y="402" on="0"/>
        <pt x="242" y="368" on="0"/>
        <pt x="228" y="357" on="1"/>
        <pt x="229" y="354" on="1"/>
        <pt x="760" y="354" on="1"/>
      </contour>
    </TTGlyph>
    <TTGlyph name="arrowright" xMin="140" yMin="41" xMax="760" yMax="617">
      <contour>
        <pt x="140" y="354" on="1"/>
        <pt x="671" y="354" on="1"/>
        <pt x="672" y="357" on="1"/>
        <pt x="658" y="368" on="0"/>
        <pt x="621" y="402" on="0"/>
        <pt x="601" y="423" on="1"/>
        <pt x="460" y="581" on="1"/>
        <pt x="501" y="617" on="1"/>
        <pt x="760" y="329" on="1"/>
        <pt x="501" y="41" on="1"/>
        <pt x="460" y="77" on="1"/>
        <pt x="601" y="235" on="1"/>
        <pt x="621" y="256" on="0"/>
        <pt x="658" y="290" on="0"/>
        <pt x="672" y="301" on="1"/>
        <pt x="671" y="304" on="1"/>
        <pt x="140" y="304" on="1"/>
      </contour>
    </TTGlyph>
    <TTGlyph name="arrowup" xMin="160" yMin="0" xMax="740" yMax="640">
      <contour>
        <pt x="423" y="0" on="1"/>
        <pt x="423" y="551" on="1"/>
        <pt x="420" y="552" on="1"/>
        <pt x="409" y="538" on="0"/>
        <pt x="376" y="503" on="0"/>
        <pt x="355" y="483" on="1"/>
        <pt x="197" y="342" on="1"/>
        <pt x="160" y="380" on="1"/>
        <pt x="450" y="640" on="1"/>
        <pt x="740" y="380" on="1"/>
        <pt x="703" y="342" on="1"/>
        <pt x="545" y="483" on="1"/>
        <pt x="523" y="502" on="0"/>
        <pt x="491" y="538" on="0"/>
        <pt x="480" y="552" on="1"/>
        <pt x="477" y="551" on="1"/>
        <pt x="477" y="0" on="1"/>
      </contour>
    </TTGlyph>
    <TTGlyph name="arrowupdn" xMin="160" yMin="-170" xMax="740" yMax="850">
      <contour>
        <pt x="477" y="-81" on="1"/>
        <pt x="480" y="-82" on="1"/>
        <pt x="491" y="-68" on="0"/>
        <pt x="523" y="-33" on="0"/>
        <pt x="545" y="-13" on="1"/>
        <pt x="703" y="128" on="1"/>
        <pt x="740" y="90" on="1"/>
        <pt x="450" y="-170" on="1"/>
        <pt x="160" y="90" on="1"/>
        <pt x="197" y="128" on="1"/>
        <pt x="355" y="-13" on="1"/>
        <pt x="376" y="-33" on="0"/>
        <pt x="410" y="-68" on="0"/>
        <pt x="421" y="-82" on="1"/>
        <pt x="424" y="-81" on="1"/>
        <pt x="424" y="761" on="1"/>
        <pt x="421" y="762" on="1"/>
        <pt x="410" y="748" on="0"/>
        <pt x="376" y="713" on="0"/>
        <pt x="355" y="693" on="1"/>
        <pt x="197" y="552" on="1"/>
        <pt x="160" y="590" on="1"/>
        <pt x="450" y="850" on="1"/>
        <pt x="740" y="590" on="1"/>
        <pt x="703" y="552" on="1"/>
        <pt x="545" y="693" on="1"/>
        <pt x="523" y="712" on="0"/>
        <pt x="491" y="748" on="0"/>
        <pt x="480" y="762" on="1"/>
        <pt x="477" y="761" on="1"/>
      </contour>
    </TTGlyph>
    <TTGlyph name="asciicircum" xMin="45" yMin="527" xMax="475" yMax="832">
      <contour>
        <pt x="284" y="832" on="1"/>
        <pt x="475" y="527" on="1"/>
        <pt x="411" y="527" on="1"/>
        <pt x="260" y="776" on="1"/>
        <pt x="109" y="527" on="1"/>
        <pt x="45" y="527" on="1"/>
        <pt x="236" y="832" on="1"/>
      </contour>
    </TTGlyph>
    <TTGlyph name="asciitilde" xMin="90" yMin="280" xMax="470" yMax="376">
      <contour>
        <pt x="356" y="280" on="1"/>
        <pt x="335" y="280" on="0"/>
        <pt x="293" y="294" on="0"/>
        <pt x="253" y="311" on="0"/>
        <pt x="218" y="325" on="0"/>
        <pt x="203" y="325" on="1"/>
        <pt x="155" y="325" on="0"/>
        <pt x="127" y="281" on="1"/>
        <pt x="90" y="304" on="1"/>
        <pt x="109" y="339" on="0"/>
        <pt x="171" y="376" on="0"/>
        <pt x="205" y="376" on="1"/>
        <pt x="227" y="376" on="0"/>
        <pt x="268" y="362" on="0"/>
        <pt x="307" y="345" on="0"/>
        <pt x="341" y="331" on="0"/>
        <pt x="356" y="331" on="1"/>
        <pt x="379" y="331" on="0"/>
        <pt x="418" y="354" on="0"/>
        <pt x="432" y="375" on="1"/>
        <pt x="470" y="349" on="1"/>
        <pt x="450" y="314" on="0"/>
        <pt x="391" y="280" on="0"/>
      </contour>
    </TTGlyph>
    <TTGlyph name="asterisk" xMin="37" yMin="387" xMax="403" yMax="736">
      <contour>
        <pt x="240" y="579" on="1"/>
        <pt x="386" y="635" on="1"/>
        <pt x="403" y="582" on="1"/>
        <pt x="252" y="541" on="1"/>
        <pt x="351" y="419" on="1"/>
        <pt x="306" y="387" on="1"/>
        <pt x="220" y="517" on="1"/>
        <pt x="134" y="387" on="1"/>
        <pt x="89" y="419" on="1"/>
        <pt x="187" y="541" on="1"/>
        <pt x="37" y="582" on="1"/>
        <pt x="54" y="635" on="1"/>
        <pt x="200" y="579" on="1"/>
        <pt x="192" y="736" on="1"/>
        <pt x="248" y="736" on="1"/>
      </contour>
    </TTGlyph>
    <TTGlyph name="at" xMin="85" yMin="-205" xMax="935" yMax="696">
      <contour>
        <pt x="746" y="-168" on="1"/>
        <pt x="722" y="-177" on="0"/>
        <pt x="674" y="-190" on="0"/>
        <pt x="622" y="-200" on="0"/>
        <pt x="564" y="-205" on="0"/>
        <pt x="530" y="-205" on="1"/>
        <pt x="432" y="-205" on="0"/>
        <pt x="268" y="-144" on="0"/>
        <pt x="150" y="-29" on="0"/>
        <pt x="85" y="137" on="0"/>
        <pt x="85" y="242" on="1"/>
        <pt x="85" y="336" on="0"/>
        <pt x="149" y="501" on="0"/>
        <pt x="267" y="624" on="0"/>
        <pt x="435" y="696" on="0"/>
        <pt x="539" y="696" on="1"/>
        <pt x="637" y="696" on="0"/>
        <pt x="785" y="633" on="0"/>
        <pt x="885" y="526" on="0"/>
        <pt x="935" y="385" on="0"/>
        <pt x="935" y="308" on="1"/>
        <pt x="935" y="233" on="0"/>
        <pt x="907" y="123" on="0"/>
        <pt x="859" y="50" on="0"/>
        <pt x="794" y="14" on="0"/>
        <pt x="756" y="14" on="1"/>
        <pt x="729" y="14" on="0"/>
        <pt x="686" y="30" on="0"/>
        <pt x="656" y="57" on="0"/>
        <pt x="637" y="91" on="0"/>
        <pt x="634" y="109" on="1"/>
        <pt x="630" y="109" on="1"/>
        <pt x="616" y="75" on="0"/>
        <pt x="548" y="21" on="0"/>
        <pt x="489" y="21" on="1"/>
        <pt x="453" y="21" on="0"/>
        <pt x="390" y="49" on="0"/>
        <pt x="343" y="103" on="0"/>
        <pt x="316" y="182" on="0"/>
        <pt x="316" y="233" on="1"/>
        <pt x="316" y="297" on="0"/>
        <pt x="355" y="388" on="0"/>
        <pt x="417" y="447" on="0"/>
        <pt x="493" y="474" on="0"/>
        <pt x="531" y="474" on="1"/>
        <pt x="553" y="474" on="0"/>
        <pt x="589" y="470" on="0"/>
        <pt x="622" y="462" on="0"/>
        <pt x="654" y="449" on="0"/>
        <pt x="671" y="441" on="1"/>
        <pt x="671" y="171" on="1"/>
        <pt x="671" y="111" on="0"/>
        <pt x="718" y="60" on="0"/>
        <pt x="755" y="60" on="1"/>
        <pt x="780" y="60" on="0"/>
        <pt x="824" y="85" on="0"/>
        <pt x="857" y="142" on="0"/>
        <pt x="877" y="237" on="0"/>
        <pt x="877" y="306" on="1"/>
        <pt x="877" y="378" on="0"/>
        <pt x="832" y="503" on="0"/>
        <pt x="745" y="594" on="0"/>
        <pt x="619" y="647" on="0"/>
        <pt x="539" y="647" on="1"/>
        <pt x="447" y="647" on="0"/>
        <pt x="300" y="583" on="0"/>
        <pt x="198" y="473" on="0"/>
        <pt x="144" y="326" on="0"/>
        <pt x="144" y="242" on="1"/>
        <pt x="144" y="153" on="0"/>
        <pt x="199" y="7" on="0"/>
        <pt x="299" y="-98" on="0"/>
        <pt x="442" y="-156" on="0"/>
        <pt x="531" y="-156" on="1"/>
        <pt x="593" y="-156" on="0"/>
        <pt x="691" y="-135" on="0"/>
        <pt x="730" y="-121" on="1"/>
      </contour>
      <contour>
        <pt x="532" y="428" on="1"/>
        <pt x="500" y="428" on="0"/>
        <pt x="442" y="403" on="0"/>
        <pt x="399" y="354" on="0"/>
        <pt x="373" y="281" on="0"/>
        <pt x="373" y="233" on="1"/>
        <pt x="373" y="149" on="0"/>
        <pt x="443" y="68" on="0"/>
        <pt x="498" y="68" on="1"/>
        <pt x="525" y="68" on="0"/>
        <pt x="565" y="87" on="0"/>
        <pt x="595" y="114" on="0"/>
        <pt x="613" y="144" on="0"/>
        <pt x="617" y="155" on="1"/>
        <pt x="617" y="411" on="1"/>
        <pt x="600" y="419" on="0"/>
        <pt x="559" y="428" on="0"/>
      </contour>
    </TTGlyph>
    <TTGlyph name="atilde" xMin="45" yMin="-11" xMax="471" yMax="736">
      <component glyphName="a" x="0" y="0" flags="0x204"/>
      <component glyphName="tildecomb" x="540" y="0" flags="0x4"/>
    </TTGlyph>
    <TTGlyph name="b" xMin="110" yMin="-11" xMax="515" yMax="743">
      <contour>
        <pt x="160" y="0" on="1"/>
        <pt x="110" y="0" on="1"/>
        <pt x="110" y="736" on="1"/>
        <pt x="167" y="743" on="1"/>
        <pt x="167" y="442" on="1"/>
        <pt x="196" y="486" on="0"/>
        <pt x="275" y="534" on="0"/>
        <pt x="327" y="534" on="1"/>
        <pt x="375" y="534" on="0"/>
        <pt x="446" y="497" on="0"/>
        <pt x="493" y="427" on="0"/>
        <pt x="515" y="327" on="0"/>
        <pt x="515" y="264" on="1"/>
        <pt x="515" y="202" on="0"/>
        <pt x="488" y="101" on="0"/>
        <pt x="436" y="29" on="0"/>
        <pt x="361" y="-11" on="0"/>
        <pt x="313" y="-11" on="1"/>
        <pt x="265" y="-11" on="0"/>
        <pt x="193" y="28" on="0"/>
        <pt x="164" y="71" on="1"/>
      </contour>
      <contour>
        <pt x="316" y="485" on="1"/>
        <pt x="266" y="485" on="0"/>
        <pt x="193" y="423" on="0"/>
        <pt x="167" y="379" on="1"/>
        <pt x="167" y="129" on="1"/>
        <pt x="191" y="90" on="0"/>
        <pt x="260" y="39" on="0"/>
        <pt x="304" y="39" on="1"/>
        <pt x="376" y="39" on="0"/>
        <pt x="454" y="150" on="0"/>
        <pt x="454" y="264" on="1"/>
        <pt x="454" y="485" on="0"/>
      </contour>
    </TTGlyph>
    <TTGlyph name="backslash" xMin="120" yMin="-107" xMax="400" yMax="804">
      <contour>
        <pt x="400" y="-95" on="1"/>
        <pt x="351" y="-107" on="1"/>
        <pt x="120" y="792" on="1"/>
        <pt x="169" y="804" on="1"/>
      </contour>
    </TTGlyph>
    <TTGlyph name="bar" xMin="165" yMin="-101" xMax="215" yMax="801">
      <contour>
        <pt x="165" y="801" on="1"/>
        <pt x="215" y="801" on="1"/>
        <pt x="215" y="-101" on="1"/>
        <pt x="165" y="-101" on="1"/>
      </contour>
    </TTGlyph>
    <TTGlyph name="beta" xMin="75" yMin="-11" xMax="518" yMax="743">
      <contour>
        <pt x="75" y="354" on="1"/>
        <pt x="75" y="456" on="0"/>
        <pt x="118" y="603" on="0"/>
        <pt x="190" y="698" on="0"/>
        <pt x="284" y="743" on="0"/>
        <pt x="336" y="743" on="1"/>
        <pt x="405" y="743" on="0"/>
        <pt x="478" y="668" on="0"/>
        <pt x="478" y="613" on="1"/>
        <pt x="478" y="553" on="0"/>
        <pt x="400" y="468" on="0"/>
        <pt x="313" y="435" on="1"/>
        <pt x="313" y="432" on="1"/>
        <pt x="418" y="432" on="0"/>
        <pt x="518" y="323" on="0"/>
        <pt x="518" y="221" on="1"/>
        <pt x="518" y="170" on="0"/>
        <pt x="485" y="85" on="0"/>
        <pt x="427" y="23" on="0"/>
        <pt x="346" y="-11" on="0"/>
        <pt x="297" y="-11" on="1"/>
        <pt x="178" y="-11" on="0"/>
        <pt x="75" y="172" on="0"/>
      </contour>
      <contour>
        <pt x="297" y="37" on="1"/>
        <pt x="369" y="37" on="0"/>
        <pt x="457" y="131" on="0"/>
        <pt x="457" y="219" on="1"/>
        <pt x="457" y="302" on="0"/>
        <pt x="385" y="395" on="0"/>
        <pt x="303" y="395" on="1"/>
        <pt x="263" y="395" on="0"/>
        <pt x="174" y="363" on="0"/>
        <pt x="132" y="343" on="1"/>
        <pt x="132" y="334" on="1"/>
        <pt x="132" y="189" on="0"/>
        <pt x="208" y="37" on="0"/>
      </contour>
      <contour>
        <pt x="333" y="697" on="1"/>
        <pt x="296" y="697" on="0"/>
        <pt x="228" y="667" on="0"/>
        <pt x="174" y="597" on="0"/>
        <pt x="137" y="478" on="0"/>
        <pt x="133" y="390" on="1"/>
        <pt x="222" y="425" on="0"/>
        <pt x="334" y="481" on="0"/>
        <pt x="397" y="532" on="0"/>
        <pt x="419" y="582" on="0"/>
        <pt x="419" y="612" on="1"/>
        <pt x="419" y="649" on="0"/>
        <pt x="375" y="697" on="0"/>
      </contour>
    </TTGlyph>
    <TTGlyph name="braceleft" xMin="45" yMin="-101" xMax="260" yMax="800">
      <contour>
        <pt x="173" y="12" on="1"/>
        <pt x="173" y="-30" on="0"/>
        <pt x="214" y="-57" on="0"/>
        <pt x="260" y="-57" on="1"/>
        <pt x="260" y="-101" on="1"/>
        <pt x="228" y="-101" on="0"/>
        <pt x="176" y="-91" on="0"/>
        <pt x="140" y="-65" on="0"/>
        <pt x="121" y="-22" on="0"/>
        <pt x="121" y="11" on="1"/>
        <pt x="121" y="245" on="1"/>
        <pt x="121" y="287" on="0"/>
        <pt x="80" y="324" on="0"/>
        <pt x="45" y="324" on="1"/>
        <pt x="45" y="375" on="1"/>
        <pt x="84" y="375" on="0"/>
        <pt x="121" y="412" on="0"/>
        <pt x="121" y="457" on="1"/>
        <pt x="121" y="688" on="1"/>
        <pt x="121" y="721" on="0"/>
        <pt x="140" y="764" on="0"/>
        <pt x="176" y="790" on="0"/>
        <pt x="228" y="800" on="0"/>
        <pt x="260" y="800" on="1"/>
        <pt x="260" y="756" on="1"/>
        <pt x="214" y="756" on="0"/>
        <pt x="173" y="729" on="0"/>
        <pt x="173" y="687" on="1"/>
        <pt x="173" y="455" on="1"/>
        <pt x="173" y="417" on="0"/>
        <pt x="147" y="363" on="0"/>
        <pt x="103" y="351" on="1"/>
        <pt x="103" y="348" on="1"/>
        <pt x="138" y="340" on="0"/>
        <pt x="173" y="291" on="0"/>
        <pt x="173" y="246" on="1"/>
      </contour>
    </TTGlyph>
    <TTGlyph name="braceright" xMin="65" yMin="-101" xMax="280" yMax="800">
      <contour>
        <pt x="152" y="246" on="1"/>
        <pt x="152" y="291" on="0"/>
        <pt x="187" y="340" on="0"/>
        <pt x="222" y="348" on="1"/>
        <pt x="222" y="351" on="1"/>
        <pt x="178" y="363" on="0"/>
        <pt x="152" y="417" on="0"/>
        <pt x="152" y="455" on="1"/>
        <pt x="152" y="687" on="1"/>
        <pt x="152" y="729" on="0"/>
        <pt x="111" y="756" on="0"/>
        <pt x="65" y="756" on="1"/>
        <pt x="65" y="800" on="1"/>
        <pt x="97" y="800" on="0"/>
        <pt x="149" y="790" on="0"/>
        <pt x="185" y="764" on="0"/>
        <pt x="204" y="721" on="0"/>
        <pt x="204" y="688" on="1"/>
        <pt x="204" y="457" on="1"/>
        <pt x="204" y="412" on="0"/>
        <pt x="241" y="375" on="0"/>
        <pt x="280" y="375" on="1"/>
        <pt x="280" y="324" on="1"/>
        <pt x="245" y="324" on="0"/>
        <pt x="204" y="287" on="0"/>
        <pt x="204" y="245" on="1"/>
        <pt x="204" y="11" on="1"/>
        <pt x="204" y="-22" on="0"/>
        <pt x="185" y="-65" on="0"/>
        <pt x="149" y="-91" on="0"/>
        <pt x="97" y="-101" on="0"/>
        <pt x="65" y="-101" on="1"/>
        <pt x="65" y="-57" on="1"/>
        <pt x="111" y="-57" on="0"/>
        <pt x="152" y="-30" on="0"/>
        <pt x="152" y="12" on="1"/>
      </contour>
    </TTGlyph>
    <TTGlyph name="bracketleft" xMin="90" yMin="-101" xMax="255" yMax="795">
      <contour>
        <pt x="90" y="-101" on="1"/>
        <pt x="90" y="795" on="1"/>
        <pt x="255" y="795" on="1"/>
        <pt x="255" y="751" on="1"/>
        <pt x="142" y="751" on="1"/>
        <pt x="142" y="-57" on="1"/>
        <pt x="255" y="-57" on="1"/>
        <pt x="255" y="-101" on="1"/>
      </contour>
    </TTGlyph>
    <TTGlyph name="bracketright" xMin="70" yMin="-101" xMax="235" yMax="795">
      <contour>
        <pt x="235" y="795" on="1"/>
        <pt x="235" y="-101" on="1"/>
        <pt x="70" y="-101" on="1"/>
        <pt x="70" y="-57" on="1"/>
        <pt x="183" y="-57" on="1"/>
        <pt x="183" y="751" on="1"/>
        <pt x="70" y="751" on="1"/>
        <pt x="70" y="795" on="1"/>
      </contour>
    </TTGlyph>
    <TTGlyph name="breve" xMin="30" yMin="625" xMax="278" yMax="743">
      <contour>
        <pt x="154" y="625" on="1"/>
        <pt x="127" y="625" on="0"/>
        <pt x="84" y="643" on="0"/>
        <pt x="52" y="673" on="0"/>
        <pt x="33" y="712" on="0"/>
        <pt x="30" y="733" on="1"/>
        <pt x="68" y="743" on="1"/>
        <pt x="79" y="708" on="0"/>
        <pt x="120" y="672" on="0"/>
        <pt x="154" y="672" on="1"/>
        <pt x="188" y="672" on="0"/>
        <pt x="229" y="708" on="0"/>
        <pt x="240" y="743" on="1"/>
        <pt x="278" y="733" on="1"/>
        <pt x="275" y="712" on="0"/>
        <pt x="256" y="673" on="0"/>
        <pt x="225" y="643" on="0"/>
        <pt x="182" y="625" on="0"/>
      </contour>
    </TTGlyph>
    <TTGlyph name="brokenbar" xMin="165" yMin="-101" xMax="215" yMax="801">
      <contour>
        <pt x="165" y="445" on="1"/>
        <pt x="165" y="801" on="1"/>
        <pt x="215" y="801" on="1"/>
        <pt x="215" y="445" on="1"/>
      </contour>
      <contour>
        <pt x="165" y="254" on="1"/>
        <pt x="215" y="254" on="1"/>
        <pt x="215" y="-101" on="1"/>
        <pt x="165" y="-101" on="1"/>
      </contour>
    </TTGlyph>
    <TTGlyph name="bullet" xMin="95" yMin="238" xMax="305" yMax="445">
      <contour>
        <pt x="200" y="238" on="1"/>
        <pt x="155" y="238" on="0"/>
        <pt x="95" y="297" on="0"/>
        <pt x="95" y="342" on="1"/>
        <pt x="95" y="387" on="0"/>
        <pt x="155" y="445" on="0"/>
        <pt x="200" y="445" on="1"/>
        <pt x="245" y="445" on="0"/>
        <pt x="305" y="386" on="0"/>
        <pt x="305" y="341" on="1"/>
        <pt x="305" y="296" on="0"/>
        <pt x="245" y="238" on="0"/>
      </contour>
    </TTGlyph>
    <TTGlyph name="c" xMin="65" yMin="-11" xMax="444" yMax="534">
      <contour>
        <pt x="414" y="441" on="1"/>
        <pt x="385" y="464" on="0"/>
        <pt x="324" y="485" on="0"/>
        <pt x="288" y="485" on="1"/>
        <pt x="216" y="485" on="0"/>
        <pt x="126" y="373" on="0"/>
        <pt x="126" y="259" on="1"/>
        <pt x="126" y="146" on="0"/>
        <pt x="216" y="38" on="0"/>
        <pt x="288" y="38" on="1"/>
        <pt x="324" y="38" on="0"/>
        <pt x="385" y="59" on="0"/>
        <pt x="416" y="84" on="1"/>
        <pt x="444" y="44" on="1"/>
        <pt x="411" y="17" on="0"/>
        <pt x="329" y="-11" on="0"/>
        <pt x="284" y="-11" on="1"/>
        <pt x="233" y="-11" on="0"/>
        <pt x="152" y="26" on="0"/>
        <pt x="95" y="96" on="0"/>
        <pt x="65" y="196" on="0"/>
        <pt x="65" y="259" on="1"/>
        <pt x="65" y="321" on="0"/>
        <pt x="96" y="422" on="0"/>
        <pt x="155" y="494" on="0"/>
        <pt x="237" y="534" on="0"/>
        <pt x="288" y="534" on="1"/>
        <pt x="333" y="534" on="0"/>
        <pt x="409" y="509" on="0"/>
        <pt x="444" y="480" on="1"/>
      </contour>
    </TTGlyph>
    <TTGlyph name="cacute" xMin="65" yMin="-11" xMax="444" yMax="756">
      <component glyphName="c" x="0" y="0" flags="0x204"/>
      <component glyphName="acutecomb" x="559" y="0" flags="0x4"/>
    </TTGlyph>
    <TTGlyph name="caron" xMin="30" yMin="619" xMax="319" yMax="757">
      <contour>
        <pt x="292" y="757" on="1"/>
        <pt x="319" y="727" on="1"/>
        <pt x="189" y="619" on="1"/>
        <pt x="159" y="619" on="1"/>
        <pt x="30" y="727" on="1"/>
        <pt x="56" y="757" on="1"/>
        <pt x="174" y="674" on="1"/>
      </contour>
    </TTGlyph>
    <TTGlyph name="ccaron" xMin="65" yMin="-11" xMax="444" yMax="757">
      <component glyphName="c" x="0" y="0" flags="0x204"/>
      <component glyphName="uni030C" x="567" y="0" flags="0x4"/>
    </TTGlyph>
    <TTGlyph name="ccedilla" xMin="65" yMin="-226" xMax="444" yMax="534">
      <contour>
        <pt x="319" y="-142" on="1"/>
        <pt x="319" y="-116" on="0"/>
        <pt x="276" y="-99" on="0"/>
        <pt x="240" y="-98" on="1"/>
        <pt x="246" y="-8" on="1"/>
        <pt x="161" y="5" on="0"/>
        <pt x="65" y="145" on="0"/>
        <pt x="65" y="259" on="1"/>
        <pt x="65" y="321" on="0"/>
        <pt x="96" y="422" on="0"/>
        <pt x="155" y="494" on="0"/>
        <pt x="237" y="534" on="0"/>
        <pt x="288" y="534" on="1"/>
        <pt x="333" y="534" on="0"/>
        <pt x="409" y="509" on="0"/>
        <pt x="444" y="480" on="1"/>
        <pt x="414" y="441" on="1"/>
        <pt x="385" y="464" on="0"/>
        <pt x="324" y="485" on="0"/>
        <pt x="288" y="485" on="1"/>
        <pt x="216" y="485" on="0"/>
        <pt x="126" y="373" on="0"/>
        <pt x="126" y="259" on="1"/>
        <pt x="126" y="146" on="0"/>
        <pt x="216" y="38" on="0"/>
        <pt x="288" y="38" on="1"/>
        <pt x="324" y="38" on="0"/>
        <pt x="385" y="59" on="0"/>
        <pt x="416" y="84" on="1"/>
        <pt x="444" y="44" on="1"/>
        <pt x="412" y="18" on="0"/>
        <pt x="334" y="-9" on="0"/>
        <pt x="292" y="-11" on="1"/>
        <pt x="292" y="-67" on="1"/>
        <pt x="337" y="-72" on="0"/>
        <pt x="376" y="-111" on="0"/>
        <pt x="376" y="-143" on="1"/>
        <pt x="376" y="-185" on="0"/>
        <pt x="313" y="-226" on="0"/>
        <pt x="268" y="-226" on="1"/>
        <pt x="240" y="-226" on="0"/>
        <pt x="200" y="-216" on="0"/>
        <pt x="183" y="-207" on="1"/>
        <pt x="205" y="-168" on="1"/>
        <pt x="216" y="-174" on="0"/>
        <pt x="248" y="-182" on="0"/>
        <pt x="263" y="-182" on="1"/>
        <pt x="288" y="-182" on="0"/>
        <pt x="319" y="-165" on="0"/>
      </contour>
    </TTGlyph>
    <TTGlyph name="ccircumflex" xMin="65" yMin="-11" xMax="444" yMax="757">
      <component glyphName="c" x="0" y="0" flags="0x204"/>
      <component glyphName="uni0302" x="601" y="0" flags="0x4"/>
    </TTGlyph>
    <TTGlyph name="cdotaccent" xMin="65" yMin="-11" xMax="444" yMax="725">
      <component glyphName="c" x="0" y="0" flags="0x204"/>
      <component glyphName="uni0307" x="571" y="0" flags="0x4"/>
    </TTGlyph>
    <TTGlyph name="cedilla" xMin="30" yMin="-226" xMax="223" yMax="16">
      <contour>
        <pt x="166" y="-142" on="1"/>
        <pt x="166" y="-116" on="0"/>
        <pt x="123" y="-99" on="0"/>
        <pt x="87" y="-98" on="1"/>
        <pt x="95" y="16" on="1"/>
        <pt x="139" y="16" on="1"/>
        <pt x="139" y="-67" on="1"/>
        <pt x="184" y="-72" on="0"/>
        <pt x="223" y="-111" on="0"/>
        <pt x="223" y="-143" on="1"/>
        <pt x="223" y="-185" on="0"/>
        <pt x="160" y="-226" on="0"/>
        <pt x="115" y="-226" on="1"/>
        <pt x="87" y="-226" on="0"/>
        <pt x="47" y="-216" on="0"/>
        <pt x="30" y="-207" on="1"/>
        <pt x="35" y="-198" on="0"/>
        <pt x="47" y="-177" on="0"/>
        <pt x="52" y="-168" on="1"/>
        <pt x="63" y="-174" on="0"/>
        <pt x="95" y="-182" on="0"/>
        <pt x="110" y="-182" on="1"/>
        <pt x="135" y="-182" on="0"/>
        <pt x="166" y="-165" on="0"/>
      </contour>
    </TTGlyph>
    <TTGlyph name="cent" xMin="94" yMin="-150" xMax="468" yMax="680">
      <contour>
        <pt x="438" y="441" on="1"/>
        <pt x="409" y="465" on="0"/>
        <pt x="349" y="485" on="0"/>
        <pt x="313" y="485" on="1"/>
        <pt x="240" y="485" on="0"/>
        <pt x="155" y="373" on="0"/>
        <pt x="155" y="259" on="1"/>
        <pt x="155" y="148" on="0"/>
        <pt x="244" y="38" on="0"/>
        <pt x="314" y="38" on="1"/>
        <pt x="350" y="38" on="0"/>
        <pt x="409" y="59" on="0"/>
        <pt x="440" y="85" on="1"/>
        <pt x="468" y="44" on="1"/>
        <pt x="440" y="20" on="0"/>
        <pt x="375" y="-5" on="0"/>
        <pt x="340" y="-9" on="1"/>
        <pt x="340" y="-150" on="1"/>
        <pt x="291" y="-150" on="1"/>
        <pt x="291" y="-10" on="1"/>
        <pt x="197" y="-3" on="0"/>
        <pt x="94" y="140" on="0"/>
        <pt x="94" y="259" on="1"/>
        <pt x="94" y="317" on="0"/>
        <pt x="120" y="415" on="0"/>
        <pt x="171" y="486" on="0"/>
        <pt x="245" y="529" on="0"/>
        <pt x="292" y="533" on="1"/>
        <pt x="292" y="680" on="1"/>
        <pt x="340" y="680" on="1"/>
        <pt x="340" y="533" on="1"/>
        <pt x="376" y="529" on="0"/>
        <pt x="440" y="504" on="0"/>
        <pt x="468" y="480" on="1"/>
      </contour>
    </TTGlyph>
    <TTGlyph name="chi" xMin="0" yMin="-205" xMax="433" yMax="534">
      <contour>
        <pt x="228" y="228" on="1"/>
        <pt x="373" y="534" on="1"/>
        <pt x="428" y="523" on="1"/>
        <pt x="258" y="188" on="1"/>
        <pt x="433" y="-187" on="1"/>
        <pt x="378" y="-205" on="1"/>
        <pt x="227" y="138" on="1"/>
        <pt x="225" y="138" on="1"/>
        <pt x="72" y="-205" on="1"/>
        <pt x="17" y="-192" on="1"/>
        <pt x="194" y="182" on="1"/>
        <pt x="177" y="228" on="0"/>
        <pt x="131" y="321" on="0"/>
        <pt x="80" y="408" on="0"/>
        <pt x="26" y="484" on="0"/>
        <pt x="0" y="513" on="1"/>
        <pt x="55" y="534" on="1"/>
        <pt x="78" y="507" on="0"/>
        <pt x="123" y="444" on="0"/>
        <pt x="165" y="370" on="0"/>
        <pt x="206" y="282" on="0"/>
        <pt x="226" y="228" on="1"/>
      </contour>
    </TTGlyph>
    <TTGlyph name="circumflex" xMin="30" yMin="619" xMax="319" yMax="757">
      <contour>
        <pt x="57" y="619" on="1"/>
        <pt x="30" y="649" on="1"/>
        <pt x="160" y="757" on="1"/>
        <pt x="190" y="757" on="1"/>
        <pt x="319" y="649" on="1"/>
        <pt x="293" y="619" on="1"/>
        <pt x="175" y="702" on="1"/>
      </contour>
    </TTGlyph>
    <TTGlyph name="colon" xMin="92" yMin="-11" xMax="188" yMax="473">
      <contour>
        <pt x="92" y="426" on="1"/>
        <pt x="92" y="446" on="0"/>
        <pt x="118" y="473" on="0"/>
        <pt x="140" y="473" on="1"/>
        <pt x="163" y="473" on="0"/>
        <pt x="188" y="446" on="0"/>
        <pt x="188" y="426" on="1"/>
        <pt x="188" y="406" on="0"/>
        <pt x="163" y="379" on="0"/>
        <pt x="140" y="379" on="1"/>
        <pt x="118" y="379" on="0"/>
        <pt x="92" y="406" on="0"/>
      </contour>
      <contour>
        <pt x="92" y="36" on="1"/>
        <pt x="92" y="56" on="0"/>
        <pt x="118" y="83" on="0"/>
        <pt x="140" y="83" on="1"/>
        <pt x="163" y="83" on="0"/>
        <pt x="188" y="56" on="0"/>
        <pt x="188" y="36" on="1"/>
        <pt x="188" y="16" on="0"/>
        <pt x="163" y="-11" on="0"/>
        <pt x="140" y="-11" on="1"/>
        <pt x="118" y="-11" on="0"/>
        <pt x="92" y="16" on="0"/>
      </contour>
    </TTGlyph>
    <TTGlyph name="comma" xMin="69" yMin="-151" xMax="188" yMax="83">
      <contour>
        <pt x="91" y="36" on="1"/>
        <pt x="91" y="56" on="0"/>
        <pt x="118" y="83" on="0"/>
        <pt x="140" y="83" on="1"/>
        <pt x="163" y="83" on="0"/>
        <pt x="188" y="56" on="0"/>
        <pt x="188" y="36" on="1"/>
        <pt x="188" y="22" on="0"/>
        <pt x="181" y="2" on="0"/>
        <pt x="172" y="-18" on="1"/>
        <pt x="110" y="-151" on="1"/>
        <pt x="69" y="-151" on="1"/>
        <pt x="114" y="-5" on="1"/>
        <pt x="91" y="8" on="0"/>
      </contour>
    </TTGlyph>
    <TTGlyph name="copyright" xMin="110" yMin="147" xMax="690" yMax="727">
      <contour>
        <pt x="475" y="541" on="1"/>
        <pt x="458" y="555" on="0"/>
        <pt x="425" y="567" on="0"/>
        <pt x="404" y="567" on="1"/>
        <pt x="366" y="567" on="0"/>
        <pt x="312" y="510" on="0"/>
        <pt x="312" y="440" on="1"/>
        <pt x="312" y="370" on="0"/>
        <pt x="366" y="313" on="0"/>
        <pt x="406" y="313" on="1"/>
        <pt x="429" y="313" on="0"/>
        <pt x="466" y="328" on="0"/>
        <pt x="483" y="341" on="1"/>
        <pt x="508" y="306" on="1"/>
        <pt x="488" y="289" on="0"/>
        <pt x="437" y="268" on="0"/>
        <pt x="404" y="268" on="1"/>
        <pt x="373" y="268" on="0"/>
        <pt x="321" y="290" on="0"/>
        <pt x="282" y="334" on="0"/>
        <pt x="260" y="398" on="0"/>
        <pt x="260" y="440" on="1"/>
        <pt x="260" y="482" on="0"/>
        <pt x="283" y="546" on="0"/>
        <pt x="322" y="588" on="0"/>
        <pt x="373" y="610" on="0"/>
        <pt x="402" y="610" on="1"/>
        <pt x="435" y="610" on="0"/>
        <pt x="481" y="593" on="0"/>
        <pt x="501" y="577" on="1"/>
      </contour>
      <contour>
        <pt x="400" y="187" on="1"/>
        <pt x="452" y="187" on="0"/>
        <pt x="542" y="226" on="0"/>
        <pt x="608" y="293" on="0"/>
        <pt x="645" y="384" on="0"/>
        <pt x="645" y="437" on="1"/>
        <pt x="645" y="489" on="0"/>
        <pt x="608" y="581" on="0"/>
        <pt x="542" y="649" on="0"/>
        <pt x="452" y="688" on="0"/>
        <pt x="400" y="688" on="1"/>
        <pt x="348" y="688" on="0"/>
        <pt x="258" y="649" on="0"/>
        <pt x="192" y="581" on="0"/>
        <pt x="154" y="489" on="0"/>
        <pt x="154" y="437" on="1"/>
        <pt x="154" y="384" on="0"/>
        <pt x="192" y="293" on="0"/>
        <pt x="258" y="226" on="0"/>
        <pt x="348" y="187" on="0"/>
      </contour>
      <contour>
        <pt x="400" y="147" on="1"/>
        <pt x="340" y="147" on="0"/>
        <pt x="234" y="192" on="0"/>
        <pt x="155" y="270" on="0"/>
        <pt x="110" y="376" on="0"/>
        <pt x="110" y="437" on="1"/>
        <pt x="110" y="497" on="0"/>
        <pt x="155" y="603" on="0"/>
        <pt x="234" y="682" on="0"/>
        <pt x="340" y="727" on="0"/>
        <pt x="400" y="727" on="1"/>
        <pt x="461" y="727" on="0"/>
        <pt x="567" y="682" on="0"/>
        <pt x="645" y="603" on="0"/>
        <pt x="690" y="497" on="0"/>
        <pt x="690" y="437" on="1"/>
        <pt x="690" y="376" on="0"/>
        <pt x="645" y="270" on="0"/>
        <pt x="567" y="192" on="0"/>
        <pt x="461" y="147" on="0"/>
      </contour>
    </TTGlyph>
    <TTGlyph name="currency" xMin="51" yMin="103" xMax="509" yMax="578">
      <contour>
        <pt x="281" y="153" on="1"/>
        <pt x="217" y="153" on="0"/>
        <pt x="170" y="186" on="1"/>
        <pt x="87" y="103" on="1"/>
        <pt x="51" y="139" on="1"/>
        <pt x="134" y="222" on="1"/>
        <pt x="95" y="272" on="0"/>
        <pt x="95" y="341" on="1"/>
        <pt x="95" y="376" on="0"/>
        <pt x="115" y="436" on="0"/>
        <pt x="133" y="459" on="1"/>
        <pt x="51" y="542" on="1"/>
        <pt x="87" y="578" on="1"/>
        <pt x="170" y="495" on="1"/>
        <pt x="216" y="529" on="0"/>
        <pt x="281" y="529" on="1"/>
        <pt x="313" y="529" on="0"/>
        <pt x="367" y="511" on="0"/>
        <pt x="390" y="495" on="1"/>
        <pt x="472" y="577" on="1"/>
        <pt x="509" y="542" on="1"/>
        <pt x="428" y="460" on="1"/>
        <pt x="467" y="410" on="0"/>
        <pt x="467" y="341" on="1"/>
        <pt x="467" y="305" on="0"/>
        <pt x="446" y="244" on="0"/>
        <pt x="427" y="220" on="1"/>
        <pt x="509" y="140" on="1"/>
        <pt x="472" y="104" on="1"/>
        <pt x="389" y="185" on="1"/>
        <pt x="366" y="170" on="0"/>
        <pt x="312" y="153" on="0"/>
      </contour>
      <contour>
        <pt x="281" y="200" on="1"/>
        <pt x="343" y="200" on="0"/>
        <pt x="410" y="277" on="0"/>
        <pt x="410" y="341" on="1"/>
        <pt x="410" y="405" on="0"/>
        <pt x="343" y="482" on="0"/>
        <pt x="281" y="482" on="1"/>
        <pt x="219" y="482" on="0"/>
        <pt x="152" y="405" on="0"/>
        <pt x="152" y="341" on="1"/>
        <pt x="152" y="277" on="0"/>
        <pt x="219" y="200" on="0"/>
      </contour>
    </TTGlyph>
    <TTGlyph name="d" xMin="65" yMin="-11" xMax="473" yMax="743">
      <contour>
        <pt x="416" y="743" on="1"/>
        <pt x="473" y="736" on="1"/>
        <pt x="473" y="0" on="1"/>
        <pt x="423" y="0" on="1"/>
        <pt x="416" y="79" on="1"/>
        <pt x="382" y="29" on="0"/>
        <pt x="306" y="-11" on="0"/>
        <pt x="258" y="-11" on="1"/>
        <pt x="210" y="-11" on="0"/>
        <pt x="138" y="27" on="0"/>
        <pt x="89" y="97" on="0"/>
        <pt x="65" y="197" on="0"/>
        <pt x="65" y="259" on="1"/>
        <pt x="65" y="321" on="0"/>
        <pt x="94" y="422" on="0"/>
        <pt x="146" y="494" on="0"/>
        <pt x="221" y="534" on="0"/>
        <pt x="267" y="534" on="1"/>
        <pt x="318" y="534" on="0"/>
        <pt x="388" y="497" on="0"/>
        <pt x="416" y="460" on="1"/>
      </contour>
      <contour>
        <pt x="416" y="396" on="1"/>
        <pt x="391" y="438" on="0"/>
        <pt x="323" y="485" on="0"/>
        <pt x="278" y="485" on="1"/>
        <pt x="207" y="485" on="0"/>
        <pt x="126" y="371" on="0"/>
        <pt x="126" y="259" on="1"/>
        <pt x="126" y="150" on="0"/>
        <pt x="200" y="39" on="0"/>
        <pt x="268" y="39" on="1"/>
        <pt x="318" y="39" on="0"/>
        <pt x="390" y="95" on="0"/>
        <pt x="416" y="140" on="1"/>
      </contour>
    </TTGlyph>
    <TTGlyph name="dagger" xMin="76" yMin="0" xMax="483" yMax="736">
      <contour>
        <pt x="307" y="484" on="1"/>
        <pt x="307" y="0" on="1"/>
        <pt x="251" y="0" on="1"/>
        <pt x="251" y="484" on="1"/>
        <pt x="76" y="484" on="1"/>
        <pt x="76" y="535" on="1"/>
        <pt x="251" y="535" on="1"/>
        <pt x="251" y="736" on="1"/>
        <pt x="307" y="736" on="1"/>
        <pt x="307" y="535" on="1"/>
        <pt x="483" y="535" on="1"/>
        <pt x="483" y="484" on="1"/>
      </contour>
    </TTGlyph>
    <TTGlyph name="daggerdbl" xMin="76" yMin="0" xMax="483" yMax="736">
      <contour>
        <pt x="307" y="484" on="1"/>
        <pt x="307" y="252" on="1"/>
        <pt x="483" y="252" on="1"/>
        <pt x="483" y="201" on="1"/>
        <pt x="307" y="201" on="1"/>
        <pt x="307" y="0" on="1"/>
        <pt x="251" y="0" on="1"/>
        <pt x="251" y="201" on="1"/>
        <pt x="76" y="201" on="1"/>
        <pt x="76" y="252" on="1"/>
        <pt x="251" y="252" on="1"/>
        <pt x="251" y="484" on="1"/>
        <pt x="76" y="484" on="1"/>
        <pt x="76" y="535" on="1"/>
        <pt x="251" y="535" on="1"/>
        <pt x="251" y="736" on="1"/>
        <pt x="307" y="736" on="1"/>
        <pt x="307" y="535" on="1"/>
        <pt x="483" y="535" on="1"/>
        <pt x="483" y="484" on="1"/>
      </contour>
    </TTGlyph>
    <TTGlyph name="dcaron" xMin="65" yMin="-11" xMax="633" yMax="808">
      <component glyphName="d" x="0" y="0" flags="0x4"/>
      <component glyphName="uni0313" x="878" y="-9" flags="0x4"/>
    </TTGlyph>
    <TTGlyph name="dcroat" xMin="65" yMin="-11" xMax="550" yMax="743">
      <contour>
        <pt x="416" y="743" on="1"/>
        <pt x="473" y="736" on="1"/>
        <pt x="473" y="657" on="1"/>
        <pt x="550" y="657" on="1"/>
        <pt x="550" y="609" on="1"/>
        <pt x="473" y="609" on="1"/>
        <pt x="473" y="0" on="1"/>
        <pt x="423" y="0" on="1"/>
        <pt x="416" y="79" on="1"/>
        <pt x="382" y="29" on="0"/>
        <pt x="306" y="-11" on="0"/>
        <pt x="258" y="-11" on="1"/>
        <pt x="210" y="-11" on="0"/>
        <pt x="138" y="27" on="0"/>
        <pt x="89" y="97" on="0"/>
        <pt x="65" y="197" on="0"/>
        <pt x="65" y="259" on="1"/>
        <pt x="65" y="321" on="0"/>
        <pt x="94" y="422" on="0"/>
        <pt x="146" y="494" on="0"/>
        <pt x="221" y="534" on="0"/>
        <pt x="267" y="534" on="1"/>
        <pt x="318" y="534" on="0"/>
        <pt x="388" y="497" on="0"/>
        <pt x="416" y="460" on="1"/>
        <pt x="416" y="609" on="1"/>
        <pt x="232" y="609" on="1"/>
        <pt x="232" y="657" on="1"/>
        <pt x="416" y="657" on="1"/>
      </contour>
      <contour>
        <pt x="416" y="396" on="1"/>
        <pt x="391" y="438" on="0"/>
        <pt x="323" y="485" on="0"/>
        <pt x="278" y="485" on="1"/>
        <pt x="207" y="485" on="0"/>
        <pt x="126" y="371" on="0"/>
        <pt x="126" y="259" on="1"/>
        <pt x="126" y="150" on="0"/>
        <pt x="200" y="39" on="0"/>
        <pt x="268" y="39" on="1"/>
        <pt x="318" y="39" on="0"/>
        <pt x="390" y="95" on="0"/>
        <pt x="416" y="140" on="1"/>
      </contour>
    </TTGlyph>
    <TTGlyph name="degree" xMin="75" yMin="458" xMax="365" yMax="743">
      <contour>
        <pt x="222" y="502" on="1"/>
        <pt x="263" y="502" on="0"/>
        <pt x="310" y="555" on="0"/>
        <pt x="310" y="600" on="1"/>
        <pt x="310" y="646" on="0"/>
        <pt x="263" y="699" on="0"/>
        <pt x="222" y="699" on="1"/>
        <pt x="181" y="699" on="0"/>
        <pt x="130" y="647" on="0"/>
        <pt x="130" y="601" on="1"/>
        <pt x="130" y="555" on="0"/>
        <pt x="181" y="502" on="0"/>
      </contour>
      <contour>
        <pt x="222" y="458" on="1"/>
        <pt x="193" y="458" on="0"/>
        <pt x="140" y="477" on="0"/>
        <pt x="100" y="513" on="0"/>
        <pt x="75" y="566" on="0"/>
        <pt x="75" y="601" on="1"/>
        <pt x="75" y="635" on="0"/>
        <pt x="100" y="688" on="0"/>
        <pt x="140" y="724" on="0"/>
        <pt x="193" y="743" on="0"/>
        <pt x="222" y="743" on="1"/>
        <pt x="250" y="743" on="0"/>
        <pt x="302" y="724" on="0"/>
        <pt x="342" y="687" on="0"/>
        <pt x="365" y="634" on="0"/>
        <pt x="365" y="600" on="1"/>
        <pt x="365" y="566" on="0"/>
        <pt x="342" y="513" on="0"/>
        <pt x="302" y="477" on="0"/>
        <pt x="250" y="458" on="0"/>
      </contour>
    </TTGlyph>
    <TTGlyph name="delta" xMin="60" yMin="-11" xMax="502" yMax="743">
      <contour>
        <pt x="302" y="503" on="1"/>
        <pt x="353" y="481" on="0"/>
        <pt x="428" y="434" on="0"/>
        <pt x="477" y="372" on="0"/>
        <pt x="502" y="293" on="0"/>
        <pt x="502" y="239" on="1"/>
        <pt x="502" y="181" on="0"/>
        <pt x="471" y="89" on="0"/>
        <pt x="414" y="24" on="0"/>
        <pt x="331" y="-11" on="0"/>
        <pt x="280" y="-11" on="1"/>
        <pt x="228" y="-11" on="0"/>
        <pt x="147" y="25" on="0"/>
        <pt x="90" y="91" on="0"/>
        <pt x="60" y="185" on="0"/>
        <pt x="60" y="242" on="1"/>
        <pt x="60" y="333" on="0"/>
        <pt x="152" y="450" on="0"/>
        <pt x="227" y="481" on="1"/>
        <pt x="195" y="496" on="0"/>
        <pt x="153" y="525" on="0"/>
        <pt x="127" y="556" on="0"/>
        <pt x="116" y="590" on="0"/>
        <pt x="116" y="611" on="1"/>
        <pt x="116" y="639" on="0"/>
        <pt x="141" y="688" on="0"/>
        <pt x="187" y="723" on="0"/>
        <pt x="253" y="743" on="0"/>
        <pt x="294" y="743" on="1"/>
        <pt x="343" y="743" on="0"/>
        <pt x="422" y="714" on="0"/>
        <pt x="453" y="689" on="1"/>
        <pt x="420" y="653" on="1"/>
        <pt x="391" y="676" on="0"/>
        <pt x="334" y="697" on="0"/>
        <pt x="292" y="697" on="1"/>
        <pt x="236" y="697" on="0"/>
        <pt x="175" y="647" on="0"/>
        <pt x="175" y="612" on="1"/>
        <pt x="175" y="594" on="0"/>
        <pt x="187" y="568" on="0"/>
        <pt x="215" y="544" on="0"/>
        <pt x="264" y="519" on="0"/>
      </contour>
      <contour>
        <pt x="442" y="239" on="1"/>
        <pt x="442" y="284" on="0"/>
        <pt x="424" y="349" on="0"/>
        <pt x="383" y="400" on="0"/>
        <pt x="317" y="441" on="0"/>
        <pt x="269" y="462" on="1"/>
        <pt x="198" y="433" on="0"/>
        <pt x="121" y="328" on="0"/>
        <pt x="121" y="242" on="1"/>
        <pt x="121" y="143" on="0"/>
        <pt x="205" y="37" on="0"/>
        <pt x="280" y="37" on="1"/>
        <pt x="356" y="37" on="0"/>
        <pt x="442" y="136" on="0"/>
      </contour>
    </TTGlyph>
    <TTGlyph name="dieresis" xMin="30" yMin="629" xMax="298" yMax="707">
      <contour>
        <pt x="30" y="668" on="1"/>
        <pt x="30" y="685" on="0"/>
        <pt x="52" y="707" on="0"/>
        <pt x="70" y="707" on="1"/>
        <pt x="88" y="707" on="0"/>
        <pt x="110" y="685" on="0"/>
        <pt x="110" y="668" on="1"/>
        <pt x="110" y="651" on="0"/>
        <pt x="88" y="629" on="0"/>
        <pt x="70" y="629" on="1"/>
        <pt x="52" y="629" on="0"/>
        <pt x="30" y="651" on="0"/>
      </contour>
      <contour>
        <pt x="218" y="668" on="1"/>
        <pt x="218" y="685" on="0"/>
        <pt x="240" y="707" on="0"/>
        <pt x="258" y="707" on="1"/>
        <pt x="276" y="707" on="0"/>
        <pt x="298" y="685" on="0"/>
        <pt x="298" y="668" on="1"/>
        <pt x="298" y="651" on="0"/>
        <pt x="276" y="629" on="0"/>
        <pt x="258" y="629" on="1"/>
        <pt x="240" y="629" on="0"/>
        <pt x="218" y="651" on="0"/>
      </contour>
    </TTGlyph>
    <TTGlyph name="dieresistonos" xMin="-420" yMin="609" xMax="-139" yMax="851">
      <contour>
        <pt x="-420" y="648" on="1"/>
        <pt x="-420" y="665" on="0"/>
        <pt x="-398" y="687" on="0"/>
        <pt x="-380" y="687" on="1"/>
        <pt x="-362" y="687" on="0"/>
        <pt x="-340" y="665" on="0"/>
        <pt x="-340" y="648" on="1"/>
        <pt x="-340" y="631" on="0"/>
        <pt x="-362" y="609" on="0"/>
        <pt x="-380" y="609" on="1"/>
        <pt x="-398" y="609" on="0"/>
        <pt x="-420" y="631" on="0"/>
      </contour>
      <contour>
        <pt x="-219" y="648" on="1"/>
        <pt x="-219" y="665" on="0"/>
        <pt x="-197" y="687" on="0"/>
        <pt x="-179" y="687" on="1"/>
        <pt x="-161" y="687" on="0"/>
        <pt x="-139" y="665" on="0"/>
        <pt x="-139" y="648" on="1"/>
        <pt x="-139" y="631" on="0"/>
        <pt x="-161" y="609" on="0"/>
        <pt x="-179" y="609" on="1"/>
        <pt x="-197" y="609" on="0"/>
        <pt x="-219" y="631" on="0"/>
      </contour>
      <contour>
        <pt x="-296" y="703" on="1"/>
        <pt x="-265" y="851" on="1"/>
        <pt x="-205" y="840" on="1"/>
        <pt x="-257" y="695" on="1"/>
      </contour>
    </TTGlyph>
    <TTGlyph name="divide" xMin="100" yMin="80" xMax="460" yMax="564">
      <contour>
        <pt x="100" y="296" on="1"/>
        <pt x="100" y="348" on="1"/>
        <pt x="460" y="348" on="1"/>
        <pt x="460" y="296" on="1"/>
      </contour>
      <contour>
        <pt x="232" y="517" on="1"/>
        <pt x="232" y="537" on="0"/>
        <pt x="258" y="564" on="0"/>
        <pt x="280" y="564" on="1"/>
        <pt x="303" y="564" on="0"/>
        <pt x="328" y="537" on="0"/>
        <pt x="328" y="517" on="1"/>
        <pt x="328" y="497" on="0"/>
        <pt x="303" y="470" on="0"/>
        <pt x="280" y="470" on="1"/>
        <pt x="258" y="470" on="0"/>
        <pt x="232" y="497" on="0"/>
      </contour>
      <contour>
        <pt x="232" y="127" on="1"/>
        <pt x="232" y="147" on="0"/>
        <pt x="258" y="174" on="0"/>
        <pt x="280" y="174" on="1"/>
        <pt x="303" y="174" on="0"/>
        <pt x="328" y="147" on="0"/>
        <pt x="328" y="127" on="1"/>
        <pt x="328" y="107" on="0"/>
        <pt x="303" y="80" on="0"/>
        <pt x="280" y="80" on="1"/>
        <pt x="258" y="80" on="0"/>
        <pt x="232" y="107" on="0"/>
      </contour>
    </TTGlyph>
    <TTGlyph name="dollar" xMin="53" yMin="-150" xMax="506" yMax="845">
      <contour>
        <pt x="453" y="585" on="1"/>
        <pt x="418" y="616" on="0"/>
        <pt x="339" y="645" on="0"/>
        <pt x="288" y="645" on="1"/>
        <pt x="226" y="645" on="0"/>
        <pt x="144" y="589" on="0"/>
        <pt x="144" y="531" on="1"/>
        <pt x="144" y="503" on="0"/>
        <pt x="160" y="463" on="0"/>
        <pt x="197" y="431" on="0"/>
        <pt x="258" y="405" on="0"/>
        <pt x="303" y="391" on="1"/>
        <pt x="349" y="376" on="0"/>
        <pt x="424" y="342" on="0"/>
        <pt x="477" y="295" on="0"/>
        <pt x="506" y="231" on="0"/>
        <pt x="506" y="187" on="1"/>
        <pt x="506" y="105" on="0"/>
        <pt x="402" y="1" on="0"/>
        <pt x="309" y="-7" on="1"/>
        <pt x="309" y="-150" on="1"/>
        <pt x="260" y="-150" on="1"/>
        <pt x="260" y="-9" on="1"/>
        <pt x="132" y="-5" on="0"/>
        <pt x="53" y="70" on="1"/>
        <pt x="88" y="110" on="1"/>
        <pt x="125" y="76" on="0"/>
        <pt x="216" y="40" on="0"/>
        <pt x="275" y="40" on="1"/>
        <pt x="351" y="40" on="0"/>
        <pt x="445" y="114" on="0"/>
        <pt x="445" y="186" on="1"/>
        <pt x="445" y="219" on="0"/>
        <pt x="425" y="266" on="0"/>
        <pt x="384" y="301" on="0"/>
        <pt x="320" y="328" on="0"/>
        <pt x="276" y="342" on="1"/>
        <pt x="175" y="373" on="0"/>
        <pt x="83" y="460" on="0"/>
        <pt x="83" y="529" on="1"/>
        <pt x="83" y="563" on="0"/>
        <pt x="109" y="621" on="0"/>
        <pt x="156" y="664" on="0"/>
        <pt x="222" y="690" on="0"/>
        <pt x="262" y="693" on="1"/>
        <pt x="262" y="845" on="1"/>
        <pt x="310" y="845" on="1"/>
        <pt x="310" y="693" on="1"/>
        <pt x="369" y="690" on="0"/>
        <pt x="453" y="653" on="0"/>
        <pt x="488" y="624" on="1"/>
      </contour>
    </TTGlyph>
    <TTGlyph name="dotaccent" xMin="30" yMin="642" xMax="114" yMax="724">
      <contour>
        <pt x="30" y="683" on="1"/>
        <pt x="30" y="701" on="0"/>
        <pt x="53" y="724" on="0"/>
        <pt x="72" y="724" on="1"/>
        <pt x="92" y="724" on="0"/>
        <pt x="114" y="701" on="0"/>
        <pt x="114" y="683" on="1"/>
        <pt x="114" y="665" on="0"/>
        <pt x="92" y="642" on="0"/>
        <pt x="72" y="642" on="1"/>
        <pt x="53" y="642" on="0"/>
        <pt x="30" y="665" on="0"/>
      </contour>
    </TTGlyph>
    <TTGlyph name="dotlessi" xMin="105" yMin="0" xMax="162" yMax="523">
      <contour>
        <pt x="162" y="523" on="1"/>
        <pt x="162" y="0" on="1"/>
        <pt x="105" y="0" on="1"/>
        <pt x="105" y="523" on="1"/>
      </contour>
    </TTGlyph>
    <TTGlyph name="dotmath" xMin="92" yMin="269" xMax="188" yMax="363">
      <component glyphName="periodcentered" x="0" y="0" flags="0x204"/>
    </TTGlyph>
    <TTGlyph name="e" xMin="65" yMin="-11" xMax="478" yMax="534">
      <contour>
        <pt x="124" y="239" on="1"/>
        <pt x="127" y="186" on="0"/>
        <pt x="154" y="111" on="0"/>
        <pt x="199" y="61" on="0"/>
        <pt x="258" y="38" on="0"/>
        <pt x="291" y="38" on="1"/>
        <pt x="333" y="38" on="0"/>
        <pt x="399" y="62" on="0"/>
        <pt x="432" y="91" on="1"/>
        <pt x="459" y="52" on="1"/>
        <pt x="390" y="-11" on="0"/>
        <pt x="289" y="-11" on="1"/>
        <pt x="235" y="-11" on="0"/>
        <pt x="152" y="27" on="0"/>
        <pt x="95" y="97" on="0"/>
        <pt x="65" y="197" on="0"/>
        <pt x="65" y="259" on="1"/>
        <pt x="65" y="321" on="0"/>
        <pt x="94" y="422" on="0"/>
        <pt x="149" y="494" on="0"/>
        <pt x="227" y="534" on="0"/>
        <pt x="276" y="534" on="1"/>
        <pt x="374" y="534" on="0"/>
        <pt x="478" y="397" on="0"/>
        <pt x="478" y="277" on="1"/>
        <pt x="478" y="268" on="0"/>
        <pt x="477" y="247" on="0"/>
        <pt x="476" y="239" on="1"/>
      </contour>
      <contour>
        <pt x="276" y="485" on="1"/>
        <pt x="213" y="485" on="0"/>
        <pt x="129" y="389" on="0"/>
        <pt x="124" y="284" on="1"/>
        <pt x="421" y="284" on="1"/>
        <pt x="419" y="381" on="0"/>
        <pt x="347" y="485" on="0"/>
      </contour>
    </TTGlyph>
    <TTGlyph name="eacute" xMin="65" yMin="-11" xMax="478" yMax="756">
      <component glyphName="e" x="0" y="0" flags="0x204"/>
      <component glyphName="acutecomb" x="559" y="0" flags="0x4"/>
    </TTGlyph>
    <TTGlyph name="ebreve" xMin="65" yMin="-11" xMax="478" yMax="743">
      <component glyphName="e" x="0" y="0" flags="0x204"/>
      <component glyphName="uni0306" x="565" y="0" flags="0x4"/>
    </TTGlyph>
    <TTGlyph name="ecaron" xMin="65" yMin="-11" xMax="478" yMax="757">
      <component glyphName="e" x="0" y="0" flags="0x204"/>
      <component glyphName="uni030C" x="566" y="0" flags="0x4"/>
    </TTGlyph>
    <TTGlyph name="ecircumflex" xMin="65" yMin="-11" xMax="478" yMax="757">
      <component glyphName="e" x="0" y="0" flags="0x204"/>
      <component glyphName="uni0302" x="600" y="0" flags="0x4"/>
    </TTGlyph>
    <TTGlyph name="edieresis" xMin="65" yMin="-11" xMax="478" yMax="707">
      <component glyphName="e" x="0" y="0" flags="0x204"/>
      <component glyphName="uni0308" x="558" y="0" flags="0x4"/>
    </TTGlyph>
    <TTGlyph name="edotaccent" xMin="65" yMin="-11" xMax="478" yMax="725">
      <component glyphName="e" x="0" y="0" flags="0x204"/>
      <component glyphName="uni0307" x="571" y="0" flags="0x4"/>
    </TTGlyph>
    <TTGlyph name="egrave" xMin="65" yMin="-11" xMax="478" yMax="756">
      <component glyphName="e" x="0" y="0" flags="0x204"/>
      <component glyphName="gravecomb" x="559" y="0" flags="0x4"/>
    </TTGlyph>
    <TTGlyph name="eight" xMin="49" yMin="-11" xMax="510" yMax="696">
      <contour>
        <pt x="479" y="531" on="1"/>
        <pt x="479" y="477" on="0"/>
        <pt x="417" y="393" on="0"/>
        <pt x="354" y="361" on="1"/>
        <pt x="430" y="329" on="0"/>
        <pt x="510" y="244" on="0"/>
        <pt x="510" y="182" on="1"/>
        <pt x="510" y="139" on="0"/>
        <pt x="477" y="68" on="0"/>
        <pt x="417" y="17" on="0"/>
        <pt x="332" y="-11" on="0"/>
        <pt x="280" y="-11" on="1"/>
        <pt x="224" y="-11" on="0"/>
        <pt x="138" y="18" on="0"/>
        <pt x="80" y="69" on="0"/>
        <pt x="49" y="139" on="0"/>
        <pt x="49" y="181" on="1"/>
        <pt x="49" y="245" on="0"/>
        <pt x="132" y="339" on="0"/>
        <pt x="201" y="368" on="1"/>
        <pt x="144" y="394" on="0"/>
        <pt x="81" y="470" on="0"/>
        <pt x="81" y="530" on="1"/>
        <pt x="81" y="571" on="0"/>
        <pt x="115" y="633" on="0"/>
        <pt x="170" y="675" on="0"/>
        <pt x="242" y="696" on="0"/>
        <pt x="280" y="696" on="1"/>
        <pt x="317" y="696" on="0"/>
        <pt x="388" y="678" on="0"/>
        <pt x="444" y="638" on="0"/>
        <pt x="479" y="575" on="0"/>
      </contour>
      <contour>
        <pt x="449" y="178" on="1"/>
        <pt x="449" y="212" on="0"/>
        <pt x="425" y="260" on="0"/>
        <pt x="375" y="297" on="0"/>
        <pt x="300" y="330" on="0"/>
        <pt x="248" y="349" on="1"/>
        <pt x="178" y="323" on="0"/>
        <pt x="110" y="235" on="0"/>
        <pt x="110" y="181" on="1"/>
        <pt x="110" y="115" on="0"/>
        <pt x="204" y="39" on="0"/>
        <pt x="280" y="39" on="1"/>
        <pt x="317" y="39" on="0"/>
        <pt x="380" y="59" on="0"/>
        <pt x="424" y="95" on="0"/>
        <pt x="449" y="146" on="0"/>
      </contour>
      <contour>
        <pt x="139" y="531" on="1"/>
        <pt x="139" y="502" on="0"/>
        <pt x="157" y="460" on="0"/>
        <pt x="197" y="425" on="0"/>
        <pt x="261" y="395" on="0"/>
        <pt x="308" y="378" on="1"/>
        <pt x="364" y="409" on="0"/>
        <pt x="421" y="481" on="0"/>
        <pt x="421" y="527" on="1"/>
        <pt x="421" y="583" on="0"/>
        <pt x="344" y="649" on="0"/>
        <pt x="280" y="649" on="1"/>
        <pt x="216" y="649" on="0"/>
        <pt x="139" y="588" on="0"/>
      </contour>
    </TTGlyph>
    <TTGlyph name="ellipsis" xMin="92" yMin="-11" xMax="748" yMax="83">
      <contour>
        <pt x="372" y="36" on="1"/>
        <pt x="372" y="56" on="0"/>
        <pt x="398" y="83" on="0"/>
        <pt x="420" y="83" on="1"/>
        <pt x="443" y="83" on="0"/>
        <pt x="468" y="56" on="0"/>
        <pt x="468" y="36" on="1"/>
        <pt x="468" y="16" on="0"/>
        <pt x="443" y="-11" on="0"/>
        <pt x="420" y="-11" on="1"/>
        <pt x="398" y="-11" on="0"/>
        <pt x="372" y="16" on="0"/>
      </contour>
      <contour>
        <pt x="92" y="36" on="1"/>
        <pt x="92" y="56" on="0"/>
        <pt x="118" y="83" on="0"/>
        <pt x="140" y="83" on="1"/>
        <pt x="163" y="83" on="0"/>
        <pt x="188" y="56" on="0"/>
        <pt x="188" y="36" on="1"/>
        <pt x="188" y="16" on="0"/>
        <pt x="163" y="-11" on="0"/>
        <pt x="140" y="-11" on="1"/>
        <pt x="118" y="-11" on="0"/>
        <pt x="92" y="16" on="0"/>
      </contour>
      <contour>
        <pt x="652" y="36" on="1"/>
        <pt x="652" y="56" on="0"/>
        <pt x="678" y="83" on="0"/>
        <pt x="700" y="83" on="1"/>
        <pt x="723" y="83" on="0"/>
        <pt x="748" y="56" on="0"/>
        <pt x="748" y="36" on="1"/>
        <pt x="748" y="16" on="0"/>
        <pt x="723" y="-11" on="0"/>
        <pt x="700" y="-11" on="1"/>
        <pt x="678" y="-11" on="0"/>
        <pt x="652" y="16" on="0"/>
      </contour>
    </TTGlyph>
    <TTGlyph name="emacron" xMin="65" yMin="-11" xMax="478" yMax="714">
      <component glyphName="e" x="0" y="0" flags="0x204"/>
      <component glyphName="uni0304" x="562" y="0" flags="0x4"/>
    </TTGlyph>
    <TTGlyph name="emdash" xMin="40" yMin="286" xMax="720" yMax="338">
      <contour>
        <pt x="40" y="286" on="1"/>
        <pt x="40" y="338" on="1"/>
        <pt x="720" y="338" on="1"/>
        <pt x="720" y="286" on="1"/>
      </contour>
    </TTGlyph>
    <TTGlyph name="endash" xMin="40" yMin="286" xMax="480" yMax="338">
      <contour>
        <pt x="40" y="286" on="1"/>
        <pt x="40" y="338" on="1"/>
        <pt x="480" y="338" on="1"/>
        <pt x="480" y="286" on="1"/>
      </contour>
    </TTGlyph>
    <TTGlyph name="eng" xMin="110" yMin="-204" xMax="476" yMax="534">
      <contour>
        <pt x="419" y="359" on="1"/>
        <pt x="419" y="427" on="0"/>
        <pt x="375" y="486" on="0"/>
        <pt x="322" y="486" on="1"/>
        <pt x="297" y="486" on="0"/>
        <pt x="252" y="467" on="0"/>
        <pt x="213" y="435" on="0"/>
        <pt x="180" y="395" on="0"/>
        <pt x="167" y="374" on="1"/>
        <pt x="167" y="0" on="1"/>
        <pt x="110" y="0" on="1"/>
        <pt x="110" y="523" on="1"/>
        <pt x="159" y="523" on="1"/>
        <pt x="163" y="434" on="1"/>
        <pt x="195" y="482" on="0"/>
        <pt x="282" y="534" on="0"/>
        <pt x="337" y="534" on="1"/>
        <pt x="412" y="534" on="0"/>
        <pt x="476" y="452" on="0"/>
        <pt x="476" y="375" on="1"/>
        <pt x="476" y="20" on="1"/>
        <pt x="476" y="-34" on="0"/>
        <pt x="457" y="-104" on="0"/>
        <pt x="421" y="-152" on="0"/>
        <pt x="367" y="-186" on="0"/>
        <pt x="331" y="-204" on="1"/>
        <pt x="309" y="-160" on="1"/>
        <pt x="337" y="-146" on="0"/>
        <pt x="379" y="-118" on="0"/>
        <pt x="406" y="-80" on="0"/>
        <pt x="419" y="-24" on="0"/>
        <pt x="419" y="18" on="1"/>
      </contour>
    </TTGlyph>
    <TTGlyph name="eogonek" xMin="65" yMin="-226" xMax="478" yMax="534">
      <contour>
        <pt x="330" y="-123" on="1"/>
        <pt x="330" y="-148" on="0"/>
        <pt x="360" y="-182" on="0"/>
        <pt x="391" y="-182" on="1"/>
        <pt x="408" y="-182" on="0"/>
        <pt x="437" y="-175" on="0"/>
        <pt x="445" y="-170" on="1"/>
        <pt x="462" y="-208" on="1"/>
        <pt x="441" y="-219" on="0"/>
        <pt x="405" y="-226" on="0"/>
        <pt x="384" y="-226" on="1"/>
        <pt x="328" y="-226" on="0"/>
        <pt x="273" y="-172" on="0"/>
        <pt x="273" y="-130" on="1"/>
        <pt x="273" y="-105" on="0"/>
        <pt x="288" y="-66" on="0"/>
        <pt x="311" y="-33" on="0"/>
        <pt x="326" y="-19" on="1"/>
        <pt x="340" y="-6" on="0"/>
        <pt x="355" y="5" on="1"/>
        <pt x="334" y="-3" on="0"/>
        <pt x="317" y="-7" on="1"/>
        <pt x="299" y="-11" on="0"/>
        <pt x="279" y="-11" on="1"/>
        <pt x="231" y="-11" on="0"/>
        <pt x="152" y="27" on="0"/>
        <pt x="96" y="97" on="0"/>
        <pt x="65" y="197" on="0"/>
        <pt x="65" y="259" on="1"/>
        <pt x="65" y="321" on="0"/>
        <pt x="94" y="422" on="0"/>
        <pt x="149" y="494" on="0"/>
        <pt x="227" y="534" on="0"/>
        <pt x="276" y="534" on="1"/>
        <pt x="374" y="534" on="0"/>
        <pt x="478" y="397" on="0"/>
        <pt x="478" y="277" on="1"/>
        <pt x="478" y="268" on="0"/>
        <pt x="477" y="247" on="0"/>
        <pt x="476" y="239" on="1"/>
        <pt x="124" y="239" on="1"/>
        <pt x="127" y="186" on="0"/>
        <pt x="154" y="111" on="0"/>
        <pt x="199" y="61" on="0"/>
        <pt x="258" y="38" on="0"/>
        <pt x="291" y="38" on="1"/>
        <pt x="333" y="38" on="0"/>
        <pt x="399" y="62" on="0"/>
        <pt x="432" y="91" on="1"/>
        <pt x="458" y="54" on="1"/>
        <pt x="419" y="24" on="0"/>
        <pt x="370" y="-28" on="0"/>
        <pt x="341" y="-72" on="0"/>
        <pt x="330" y="-109" on="0"/>
      </contour>
      <contour>
        <pt x="276" y="485" on="1"/>
        <pt x="213" y="485" on="0"/>
        <pt x="129" y="389" on="0"/>
        <pt x="124" y="284" on="1"/>
        <pt x="421" y="284" on="1"/>
        <pt x="419" y="381" on="0"/>
        <pt x="347" y="485" on="0"/>
      </contour>
    </TTGlyph>
    <TTGlyph name="epsilon" xMin="65" yMin="-11" xMax="451" yMax="534">
      <contour>
        <pt x="398" y="448" on="1"/>
        <pt x="370" y="465" on="0"/>
        <pt x="308" y="487" on="0"/>
        <pt x="268" y="487" on="1"/>
        <pt x="208" y="487" on="0"/>
        <pt x="146" y="437" on="0"/>
        <pt x="146" y="393" on="1"/>
        <pt x="146" y="350" on="0"/>
        <pt x="215" y="297" on="0"/>
        <pt x="272" y="297" on="1"/>
        <pt x="326" y="297" on="1"/>
        <pt x="319" y="251" on="1"/>
        <pt x="267" y="251" on="1"/>
        <pt x="238" y="251" on="0"/>
        <pt x="186" y="240" on="0"/>
        <pt x="147" y="214" on="0"/>
        <pt x="125" y="174" on="0"/>
        <pt x="125" y="144" on="1"/>
        <pt x="125" y="93" on="0"/>
        <pt x="198" y="36" on="0"/>
        <pt x="261" y="36" on="1"/>
        <pt x="312" y="36" on="0"/>
        <pt x="388" y="65" on="0"/>
        <pt x="420" y="89" on="1"/>
        <pt x="451" y="52" on="1"/>
        <pt x="416" y="24" on="0"/>
        <pt x="320" y="-11" on="0"/>
        <pt x="259" y="-11" on="1"/>
        <pt x="218" y="-11" on="0"/>
        <pt x="147" y="9" on="0"/>
        <pt x="95" y="49" on="0"/>
        <pt x="65" y="107" on="0"/>
        <pt x="65" y="145" on="1"/>
        <pt x="65" y="202" on="0"/>
        <pt x="136" y="266" on="0"/>
        <pt x="190" y="276" on="1"/>
        <pt x="190" y="278" on="1"/>
        <pt x="143" y="292" on="0"/>
        <pt x="86" y="350" on="0"/>
        <pt x="86" y="397" on="1"/>
        <pt x="86" y="430" on="0"/>
        <pt x="114" y="482" on="0"/>
        <pt x="163" y="516" on="0"/>
        <pt x="228" y="534" on="0"/>
        <pt x="266" y="534" on="1"/>
        <pt x="319" y="534" on="0"/>
        <pt x="400" y="505" on="0"/>
        <pt x="429" y="485" on="1"/>
      </contour>
    </TTGlyph>
    <TTGlyph name="epsilontonos" xMin="65" yMin="-11" xMax="451" yMax="770">
      <component glyphName="epsilon" x="0" y="0" flags="0x204"/>
      <component glyphName="tonos" x="316" y="0" flags="0x4"/>
    </TTGlyph>
    <TTGlyph name="equal" xMin="100" yMin="208" xMax="460" yMax="434">
      <contour>
        <pt x="100" y="382" on="1"/>
        <pt x="100" y="434" on="1"/>
        <pt x="460" y="434" on="1"/>
        <pt x="460" y="382" on="1"/>
      </contour>
      <contour>
        <pt x="100" y="208" on="1"/>
        <pt x="100" y="260" on="1"/>
        <pt x="460" y="260" on="1"/>
        <pt x="460" y="208" on="1"/>
      </contour>
    </TTGlyph>
    <TTGlyph name="estimated" xMin="78" yMin="-12" xMax="867" yMax="702">
      <contour>
        <pt x="223" y="334" on="1"/>
        <pt x="223" y="122" on="1"/>
        <pt x="238" y="99" on="0"/>
        <pt x="294" y="63" on="0"/>
        <pt x="363" y="39" on="0"/>
        <pt x="438" y="27" on="0"/>
        <pt x="473" y="27" on="1"/>
        <pt x="507" y="27" on="0"/>
        <pt x="580" y="39" on="0"/>
        <pt x="648" y="63" on="0"/>
        <pt x="707" y="99" on="0"/>
        <pt x="728" y="123" on="1"/>
        <pt x="785" y="123" on="1"/>
        <pt x="731" y="60" on="0"/>
        <pt x="575" y="-12" on="0"/>
        <pt x="472" y="-12" on="1"/>
        <pt x="388" y="-12" on="0"/>
        <pt x="244" y="41" on="0"/>
        <pt x="138" y="135" on="0"/>
        <pt x="78" y="265" on="0"/>
        <pt x="78" y="342" on="1"/>
        <pt x="78" y="419" on="0"/>
        <pt x="140" y="551" on="0"/>
        <pt x="247" y="647" on="0"/>
        <pt x="391" y="702" on="0"/>
        <pt x="472" y="702" on="1"/>
        <pt x="551" y="702" on="0"/>
        <pt x="694" y="649" on="0"/>
        <pt x="803" y="552" on="0"/>
        <pt x="867" y="416" on="0"/>
        <pt x="867" y="334" on="1"/>
      </contour>
      <contour>
        <pt x="722" y="564" on="1"/>
        <pt x="680" y="609" on="0"/>
        <pt x="560" y="663" on="0"/>
        <pt x="473" y="663" on="1"/>
        <pt x="386" y="663" on="0"/>
        <pt x="261" y="610" on="0"/>
        <pt x="223" y="564" on="1"/>
        <pt x="223" y="373" on="1"/>
        <pt x="722" y="373" on="1"/>
      </contour>
    </TTGlyph>
    <TTGlyph name="eta" xMin="90" yMin="-205" xMax="479" yMax="534">
      <contour>
        <pt x="113" y="333" on="1"/>
        <pt x="113" y="393" on="0"/>
        <pt x="101" y="477" on="0"/>
        <pt x="90" y="518" on="1"/>
        <pt x="145" y="526" on="1"/>
        <pt x="152" y="505" on="0"/>
        <pt x="162" y="459" on="0"/>
        <pt x="165" y="433" on="1"/>
        <pt x="197" y="482" on="0"/>
        <pt x="285" y="534" on="0"/>
        <pt x="340" y="534" on="1"/>
        <pt x="415" y="534" on="0"/>
        <pt x="479" y="452" on="0"/>
        <pt x="479" y="375" on="1"/>
        <pt x="479" y="-197" on="1"/>
        <pt x="423" y="-205" on="1"/>
        <pt x="423" y="365" on="1"/>
        <pt x="423" y="429" on="0"/>
        <pt x="376" y="486" on="0"/>
        <pt x="325" y="486" on="1"/>
        <pt x="300" y="486" on="0"/>
        <pt x="255" y="467" on="0"/>
        <pt x="216" y="435" on="0"/>
        <pt x="183" y="395" on="0"/>
        <pt x="170" y="374" on="1"/>
        <pt x="170" y="0" on="1"/>
        <pt x="113" y="0" on="1"/>
      </contour>
    </TTGlyph>
    <TTGlyph name="etatonos" xMin="90" yMin="-205" xMax="479" yMax="770">
      <component glyphName="eta" x="0" y="0" flags="0x204"/>
      <component glyphName="tonos" x="360" y="0" flags="0x4"/>
    </TTGlyph>
    <TTGlyph name="eth" xMin="65" yMin="-11" xMax="488" yMax="759">
      <contour>
        <pt x="180" y="565" on="1"/>
        <pt x="259" y="648" on="1"/>
        <pt x="202" y="680" on="0"/>
        <pt x="132" y="695" on="1"/>
        <pt x="139" y="743" on="1"/>
        <pt x="184" y="733" on="0"/>
        <pt x="263" y="706" on="0"/>
        <pt x="296" y="686" on="1"/>
        <pt x="365" y="759" on="1"/>
        <pt x="401" y="729" on="1"/>
        <pt x="334" y="661" on="1"/>
        <pt x="413" y="601" on="0"/>
        <pt x="488" y="412" on="0"/>
        <pt x="488" y="275" on="1"/>
        <pt x="488" y="210" on="0"/>
        <pt x="459" y="104" on="0"/>
        <pt x="404" y="29" on="0"/>
        <pt x="324" y="-11" on="0"/>
        <pt x="273" y="-11" on="1"/>
        <pt x="226" y="-11" on="0"/>
        <pt x="150" y="23" on="0"/>
        <pt x="95" y="84" on="0"/>
        <pt x="65" y="170" on="0"/>
        <pt x="65" y="223" on="1"/>
        <pt x="65" y="274" on="0"/>
        <pt x="96" y="361" on="0"/>
        <pt x="149" y="423" on="0"/>
        <pt x="220" y="458" on="0"/>
        <pt x="260" y="458" on="1"/>
        <pt x="313" y="458" on="0"/>
        <pt x="392" y="418" on="0"/>
        <pt x="424" y="379" on="1"/>
        <pt x="415" y="457" on="0"/>
        <pt x="352" y="579" on="0"/>
        <pt x="296" y="622" on="1"/>
        <pt x="222" y="546" on="1"/>
      </contour>
      <contour>
        <pt x="429" y="307" on="1"/>
        <pt x="397" y="357" on="0"/>
        <pt x="317" y="409" on="0"/>
        <pt x="269" y="409" on="1"/>
        <pt x="237" y="409" on="0"/>
        <pt x="184" y="382" on="0"/>
        <pt x="146" y="332" on="0"/>
        <pt x="126" y="264" on="0"/>
        <pt x="126" y="224" on="1"/>
        <pt x="126" y="183" on="0"/>
        <pt x="147" y="115" on="0"/>
        <pt x="186" y="66" on="0"/>
        <pt x="240" y="39" on="0"/>
        <pt x="274" y="39" on="1"/>
        <pt x="351" y="39" on="0"/>
        <pt x="430" y="172" on="0"/>
        <pt x="430" y="293" on="1"/>
      </contour>
    </TTGlyph>
    <TTGlyph name="exclam" xMin="92" yMin="-11" xMax="188" yMax="685">
      <contour>
        <pt x="107" y="195" on="1"/>
        <pt x="107" y="685" on="1"/>
        <pt x="164" y="685" on="1"/>
        <pt x="164" y="195" on="1"/>
      </contour>
      <contour>
        <pt x="92" y="36" on="1"/>
        <pt x="92" y="56" on="0"/>
        <pt x="118" y="83" on="0"/>
        <pt x="140" y="83" on="1"/>
        <pt x="163" y="83" on="0"/>
        <pt x="188" y="56" on="0"/>
        <pt x="188" y="36" on="1"/>
        <pt x="188" y="16" on="0"/>
        <pt x="163" y="-11" on="0"/>
        <pt x="140" y="-11" on="1"/>
        <pt x="118" y="-11" on="0"/>
        <pt x="92" y="16" on="0"/>
      </contour>
    </TTGlyph>
    <TTGlyph name="exclamdown" xMin="92" yMin="-197" xMax="188" yMax="473">
      <contour>
        <pt x="163" y="267" on="1"/>
        <pt x="173" y="-197" on="1"/>
        <pt x="107" y="-197" on="1"/>
        <pt x="117" y="267" on="1"/>
      </contour>
      <contour>
        <pt x="188" y="426" on="1"/>
        <pt x="188" y="406" on="0"/>
        <pt x="162" y="379" on="0"/>
        <pt x="140" y="379" on="1"/>
        <pt x="117" y="379" on="0"/>
        <pt x="92" y="406" on="0"/>
        <pt x="92" y="426" on="1"/>
        <pt x="92" y="446" on="0"/>
        <pt x="117" y="473" on="0"/>
        <pt x="140" y="473" on="1"/>
        <pt x="162" y="473" on="0"/>
        <pt x="188" y="446" on="0"/>
      </contour>
    </TTGlyph>
    <TTGlyph name="f" xMin="25" yMin="0" xMax="388" yMax="743">
      <contour>
        <pt x="25" y="523" on="1"/>
        <pt x="122" y="523" on="1"/>
        <pt x="122" y="612" on="1"/>
        <pt x="122" y="672" on="0"/>
        <pt x="195" y="743" on="0"/>
        <pt x="267" y="743" on="1"/>
        <pt x="301" y="743" on="0"/>
        <pt x="360" y="729" on="0"/>
        <pt x="388" y="715" on="1"/>
        <pt x="369" y="671" on="1"/>
        <pt x="342" y="684" on="0"/>
        <pt x="293" y="694" on="0"/>
        <pt x="270" y="694" on="1"/>
        <pt x="220" y="694" on="0"/>
        <pt x="179" y="652" on="0"/>
        <pt x="179" y="609" on="1"/>
        <pt x="179" y="523" on="1"/>
        <pt x="317" y="523" on="1"/>
        <pt x="310" y="476" on="1"/>
        <pt x="179" y="476" on="1"/>
        <pt x="179" y="0" on="1"/>
        <pt x="122" y="0" on="1"/>
        <pt x="122" y="476" on="1"/>
        <pt x="25" y="476" on="1"/>
      </contour>
    </TTGlyph>
    <TTGlyph name="figuredash" xMin="30" yMin="296" xMax="530" yMax="348">
      <component glyphName="glyph00783" x="0" y="0" flags="0x204"/>
    </TTGlyph>
    <TTGlyph name="five" xMin="71" yMin="-11" xMax="488" yMax="684">
      <contour>
        <pt x="457" y="634" on="1"/>
        <pt x="169" y="634" on="1"/>
        <pt x="169" y="403" on="1"/>
        <pt x="195" y="417" on="0"/>
        <pt x="259" y="432" on="0"/>
        <pt x="291" y="432" on="1"/>
        <pt x="334" y="432" on="0"/>
        <pt x="406" y="402" on="0"/>
        <pt x="459" y="348" on="0"/>
        <pt x="488" y="270" on="0"/>
        <pt x="488" y="222" on="1"/>
        <pt x="488" y="172" on="0"/>
        <pt x="456" y="87" on="0"/>
        <pt x="396" y="25" on="0"/>
        <pt x="313" y="-11" on="0"/>
        <pt x="262" y="-11" on="1"/>
        <pt x="205" y="-11" on="0"/>
        <pt x="109" y="27" on="0"/>
        <pt x="71" y="72" on="1"/>
        <pt x="110" y="105" on="1"/>
        <pt x="142" y="68" on="0"/>
        <pt x="217" y="38" on="0"/>
        <pt x="262" y="38" on="1"/>
        <pt x="339" y="38" on="0"/>
        <pt x="428" y="138" on="0"/>
        <pt x="428" y="221" on="1"/>
        <pt x="428" y="264" on="0"/>
        <pt x="405" y="327" on="0"/>
        <pt x="365" y="367" on="0"/>
        <pt x="311" y="386" on="0"/>
        <pt x="279" y="386" on="1"/>
        <pt x="216" y="386" on="0"/>
        <pt x="159" y="355" on="1"/>
        <pt x="114" y="355" on="1"/>
        <pt x="114" y="684" on="1"/>
        <pt x="465" y="684" on="1"/>
      </contour>
    </TTGlyph>
    <TTGlyph name="fiveeighths" xMin="60" yMin="-78" xMax="875" yMax="743">
      <component glyphName="glyph00701" x="0" y="268" flags="0x4"/>
      <component glyphName="fraction" x="430" y="0" flags="0x4"/>
      <component glyphName="glyph00704" x="520" y="0" flags="0x4"/>
    </TTGlyph>
    <TTGlyph name="florin" xMin="11" yMin="-204" xMax="388" yMax="743">
      <contour>
        <pt x="121" y="476" on="1"/>
        <pt x="24" y="476" on="1"/>
        <pt x="24" y="523" on="1"/>
        <pt x="121" y="523" on="1"/>
        <pt x="121" y="606" on="1"/>
        <pt x="121" y="666" on="0"/>
        <pt x="195" y="743" on="0"/>
        <pt x="267" y="743" on="1"/>
        <pt x="301" y="743" on="0"/>
        <pt x="360" y="728" on="0"/>
        <pt x="388" y="714" on="1"/>
        <pt x="368" y="670" on="1"/>
        <pt x="341" y="683" on="0"/>
        <pt x="293" y="694" on="0"/>
        <pt x="270" y="694" on="1"/>
        <pt x="220" y="694" on="0"/>
        <pt x="178" y="650" on="0"/>
        <pt x="178" y="605" on="1"/>
        <pt x="178" y="523" on="1"/>
        <pt x="316" y="523" on="1"/>
        <pt x="309" y="476" on="1"/>
        <pt x="178" y="476" on="1"/>
        <pt x="178" y="20" on="1"/>
        <pt x="178" y="-31" on="0"/>
        <pt x="159" y="-101" on="0"/>
        <pt x="123" y="-150" on="0"/>
        <pt x="69" y="-186" on="0"/>
        <pt x="33" y="-204" on="1"/>
        <pt x="11" y="-161" on="1"/>
        <pt x="39" y="-147" on="0"/>
        <pt x="81" y="-119" on="0"/>
        <pt x="108" y="-80" on="0"/>
        <pt x="121" y="-24" on="0"/>
        <pt x="121" y="18" on="1"/>
      </contour>
    </TTGlyph>
    <TTGlyph name="four" xMin="54" yMin="0" xMax="496" yMax="696">
      <contour>
        <pt x="350" y="0" on="1"/>
        <pt x="350" y="173" on="1"/>
        <pt x="54" y="173" on="1"/>
        <pt x="54" y="218" on="1"/>
        <pt x="266" y="696" on="1"/>
        <pt x="315" y="676" on="1"/>
        <pt x="115" y="224" on="1"/>
        <pt x="350" y="224" on="1"/>
        <pt x="357" y="418" on="1"/>
        <pt x="407" y="418" on="1"/>
        <pt x="407" y="224" on="1"/>
        <pt x="496" y="224" on="1"/>
        <pt x="496" y="173" on="1"/>
        <pt x="407" y="173" on="1"/>
        <pt x="407" y="0" on="1"/>
      </contour>
    </TTGlyph>
    <TTGlyph name="fraction" xMin="-199" yMin="-78" xMax="249" yMax="743">
      <contour>
        <pt x="-155" y="-78" on="1"/>
        <pt x="-199" y="-57" on="1"/>
        <pt x="206" y="743" on="1"/>
        <pt x="249" y="722" on="1"/>
      </contour>
    </TTGlyph>
    <TTGlyph name="g" xMin="35" yMin="-205" xMax="493" yMax="569">
      <contour>
        <pt x="87" y="-61" on="1"/>
        <pt x="87" y="-113" on="0"/>
        <pt x="161" y="-159" on="0"/>
        <pt x="248" y="-159" on="1"/>
        <pt x="329" y="-159" on="0"/>
        <pt x="412" y="-108" on="0"/>
        <pt x="412" y="-57" on="1"/>
        <pt x="412" y="-16" on="0"/>
        <pt x="355" y="29" on="0"/>
        <pt x="302" y="29" on="1"/>
        <pt x="222" y="29" on="1"/>
        <pt x="151" y="29" on="0"/>
        <pt x="84" y="89" on="0"/>
        <pt x="84" y="130" on="1"/>
        <pt x="84" y="153" on="0"/>
        <pt x="111" y="196" on="0"/>
        <pt x="137" y="213" on="1"/>
        <pt x="101" y="234" on="0"/>
        <pt x="57" y="306" on="0"/>
        <pt x="57" y="357" on="1"/>
        <pt x="57" y="395" on="0"/>
        <pt x="83" y="460" on="0"/>
        <pt x="132" y="507" on="0"/>
        <pt x="203" y="534" on="0"/>
        <pt x="247" y="534" on="1"/>
        <pt x="294" y="534" on="0"/>
        <pt x="364" y="539" on="0"/>
        <pt x="417" y="548" on="0"/>
        <pt x="458" y="561" on="0"/>
        <pt x="476" y="569" on="1"/>
        <pt x="493" y="515" on="1"/>
        <pt x="464" y="505" on="0"/>
        <pt x="400" y="499" on="0"/>
        <pt x="355" y="499" on="1"/>
        <pt x="392" y="481" on="0"/>
        <pt x="438" y="411" on="0"/>
        <pt x="438" y="358" on="1"/>
        <pt x="438" y="278" on="0"/>
        <pt x="335" y="183" on="0"/>
        <pt x="249" y="183" on="1"/>
        <pt x="229" y="183" on="0"/>
        <pt x="193" y="190" on="0"/>
        <pt x="176" y="196" on="1"/>
        <pt x="161" y="185" on="0"/>
        <pt x="139" y="151" on="0"/>
        <pt x="139" y="137" on="1"/>
        <pt x="139" y="113" on="0"/>
        <pt x="174" y="81" on="0"/>
        <pt x="225" y="81" on="1"/>
        <pt x="307" y="81" on="1"/>
        <pt x="349" y="81" on="0"/>
        <pt x="411" y="59" on="0"/>
        <pt x="452" y="22" on="0"/>
        <pt x="472" y="-27" on="0"/>
        <pt x="472" y="-53" on="1"/>
        <pt x="472" y="-130" on="0"/>
        <pt x="351" y="-205" on="0"/>
        <pt x="248" y="-205" on="1"/>
        <pt x="203" y="-205" on="0"/>
        <pt x="125" y="-193" on="0"/>
        <pt x="68" y="-161" on="0"/>
        <pt x="35" y="-105" on="0"/>
        <pt x="35" y="-62" on="1"/>
      </contour>
      <contour>
        <pt x="380" y="357" on="1"/>
        <pt x="380" y="420" on="0"/>
        <pt x="315" y="489" on="0"/>
        <pt x="248" y="489" on="1"/>
        <pt x="184" y="489" on="0"/>
        <pt x="115" y="417" on="0"/>
        <pt x="115" y="357" on="1"/>
        <pt x="115" y="297" on="0"/>
        <pt x="185" y="228" on="0"/>
        <pt x="248" y="228" on="1"/>
        <pt x="311" y="228" on="0"/>
        <pt x="380" y="294" on="0"/>
      </contour>
    </TTGlyph>
    <TTGlyph name="gamma" xMin="0" yMin="-205" xMax="455" yMax="534">
      <contour>
        <pt x="199" y="19" on="1"/>
        <pt x="176" y="115" on="0"/>
        <pt x="133" y="260" on="0"/>
        <pt x="86" y="375" on="0"/>
        <pt x="32" y="469" on="0"/>
        <pt x="0" y="514" on="1"/>
        <pt x="55" y="534" on="1"/>
        <pt x="110" y="464" on="0"/>
        <pt x="198" y="249" on="0"/>
        <pt x="233" y="84" on="1"/>
        <pt x="235" y="84" on="1"/>
        <pt x="396" y="531" on="1"/>
        <pt x="455" y="519" on="1"/>
        <pt x="257" y="19" on="1"/>
        <pt x="246" y="-8" on="0"/>
        <pt x="236" y="-60" on="0"/>
        <pt x="236" y="-89" on="1"/>
        <pt x="236" y="-114" on="0"/>
        <pt x="243" y="-168" on="0"/>
        <pt x="250" y="-199" on="1"/>
        <pt x="204" y="-205" on="1"/>
        <pt x="194" y="-174" on="0"/>
        <pt x="183" y="-118" on="0"/>
        <pt x="183" y="-89" on="1"/>
        <pt x="183" y="-42" on="0"/>
      </contour>
    </TTGlyph>
    <TTGlyph name="gbreve" xMin="35" yMin="-205" xMax="493" yMax="743">
      <component glyphName="g" x="0" y="0" flags="0x204"/>
      <component glyphName="uni0306" x="542" y="0" flags="0x4"/>
    </TTGlyph>
    <TTGlyph name="gcircumflex" xMin="35" yMin="-205" xMax="493" yMax="757">
      <component glyphName="g" x="0" y="0" flags="0x204"/>
      <component glyphName="uni0302" x="576" y="0" flags="0x4"/>
    </TTGlyph>
    <TTGlyph name="gdotaccent" xMin="35" yMin="-205" xMax="493" yMax="725">
      <component glyphName="g" x="0" y="0" flags="0x204"/>
      <component glyphName="uni0307" x="547" y="0" flags="0x4"/>
    </TTGlyph>
    <TTGlyph name="germandbls" xMin="110" yMin="-11" xMax="550" yMax="743">
      <contour>
        <pt x="110" y="543" on="1"/>
        <pt x="110" y="594" on="0"/>
        <pt x="137" y="669" on="0"/>
        <pt x="187" y="719" on="0"/>
        <pt x="255" y="743" on="0"/>
        <pt x="297" y="743" on="1"/>
        <pt x="334" y="743" on="0"/>
        <pt x="394" y="723" on="0"/>
        <pt x="437" y="689" on="0"/>
        <pt x="460" y="641" on="0"/>
        <pt x="460" y="613" on="1"/>
        <pt x="460" y="576" on="0"/>
        <pt x="424" y="528" on="0"/>
        <pt x="380" y="489" on="0"/>
        <pt x="344" y="452" on="0"/>
        <pt x="344" y="427" on="1"/>
        <pt x="344" y="404" on="0"/>
        <pt x="375" y="370" on="0"/>
        <pt x="420" y="338" on="0"/>
        <pt x="474" y="306" on="0"/>
        <pt x="519" y="262" on="0"/>
        <pt x="550" y="204" on="0"/>
        <pt x="550" y="163" on="1"/>
        <pt x="550" y="123" on="0"/>
        <pt x="523" y="59" on="0"/>
        <pt x="475" y="14" on="0"/>
        <pt x="409" y="-11" on="0"/>
        <pt x="370" y="-11" on="1"/>
        <pt x="336" y="-11" on="0"/>
        <pt x="276" y="4" on="0"/>
        <pt x="254" y="18" on="1"/>
        <pt x="276" y="59" on="1"/>
        <pt x="315" y="37" on="0"/>
        <pt x="367" y="37" on="1"/>
        <pt x="421" y="37" on="0"/>
        <pt x="490" y="103" on="0"/>
        <pt x="490" y="165" on="1"/>
        <pt x="490" y="199" on="0"/>
        <pt x="460" y="246" on="0"/>
        <pt x="415" y="283" on="0"/>
        <pt x="362" y="313" on="0"/>
        <pt x="317" y="349" on="0"/>
        <pt x="287" y="394" on="0"/>
        <pt x="287" y="427" on="1"/>
        <pt x="287" y="459" on="0"/>
        <pt x="323" y="501" on="0"/>
        <pt x="367" y="538" on="0"/>
        <pt x="403" y="579" on="0"/>
        <pt x="403" y="612" on="1"/>
        <pt x="403" y="645" on="0"/>
        <pt x="347" y="696" on="0"/>
        <pt x="293" y="696" on="1"/>
        <pt x="231" y="696" on="0"/>
        <pt x="166" y="624" on="0"/>
        <pt x="166" y="546" on="1"/>
        <pt x="166" y="0" on="1"/>
        <pt x="110" y="0" on="1"/>
      </contour>
    </TTGlyph>
    <TTGlyph name="glyph00677" xMin="126" yMin="-110" xMax="1074" yMax="842">
      <contour>
        <pt x="1074" y="366" on="1"/>
        <pt x="1074" y="267" on="0"/>
        <pt x="1000" y="94" on="0"/>
        <pt x="871" y="-35" on="0"/>
        <pt x="699" y="-110" on="0"/>
        <pt x="600" y="-110" on="1"/>
        <pt x="501" y="-110" on="0"/>
        <pt x="329" y="-35" on="0"/>
        <pt x="200" y="94" on="0"/>
        <pt x="126" y="267" on="0"/>
        <pt x="126" y="366" on="1"/>
        <pt x="126" y="465" on="0"/>
        <pt x="200" y="638" on="0"/>
        <pt x="329" y="767" on="0"/>
        <pt x="501" y="842" on="0"/>
        <pt x="600" y="842" on="1"/>
        <pt x="699" y="842" on="0"/>
        <pt x="871" y="767" on="0"/>
        <pt x="1000" y="638" on="0"/>
        <pt x="1074" y="465" on="0"/>
      </contour>
      <contour>
        <pt x="252" y="615" on="1"/>
        <pt x="217" y="567" on="0"/>
        <pt x="177" y="452" on="0"/>
        <pt x="174" y="389" on="1"/>
        <pt x="336" y="389" on="1"/>
        <pt x="338" y="435" on="0"/>
        <pt x="354" y="521" on="0"/>
        <pt x="367" y="561" on="1"/>
        <pt x="303" y="584" on="0"/>
      </contour>
      <contour>
        <pt x="1026" y="389" on="1"/>
        <pt x="1022" y="452" on="0"/>
        <pt x="982" y="567" on="0"/>
        <pt x="947" y="615" on="1"/>
        <pt x="897" y="584" on="0"/>
        <pt x="832" y="561" on="1"/>
        <pt x="846" y="521" on="0"/>
        <pt x="861" y="435" on="0"/>
        <pt x="863" y="389" on="1"/>
      </contour>
      <contour>
        <pt x="174" y="343" on="1"/>
        <pt x="177" y="279" on="0"/>
        <pt x="217" y="165" on="0"/>
        <pt x="252" y="116" on="1"/>
        <pt x="278" y="133" on="0"/>
        <pt x="336" y="160" on="0"/>
        <pt x="367" y="171" on="1"/>
        <pt x="354" y="211" on="0"/>
        <pt x="338" y="296" on="0"/>
        <pt x="336" y="343" on="1"/>
      </contour>
      <contour>
        <pt x="947" y="116" on="1"/>
        <pt x="982" y="165" on="0"/>
        <pt x="1022" y="279" on="0"/>
        <pt x="1026" y="343" on="1"/>
        <pt x="863" y="343" on="1"/>
        <pt x="861" y="296" on="0"/>
        <pt x="846" y="211" on="0"/>
        <pt x="832" y="171" on="1"/>
        <pt x="864" y="160" on="0"/>
        <pt x="921" y="133" on="0"/>
      </contour>
      <contour>
        <pt x="789" y="547" on="1"/>
        <pt x="748" y="536" on="0"/>
        <pt x="666" y="522" on="0"/>
        <pt x="624" y="520" on="1"/>
        <pt x="624" y="389" on="1"/>
        <pt x="817" y="389" on="1"/>
        <pt x="814" y="475" on="0"/>
      </contour>
      <contour>
        <pt x="624" y="211" on="1"/>
        <pt x="708" y="208" on="0"/>
        <pt x="789" y="184" on="1"/>
        <pt x="814" y="258" on="0"/>
        <pt x="817" y="343" on="1"/>
        <pt x="624" y="343" on="1"/>
      </contour>
      <contour>
        <pt x="574" y="520" on="1"/>
        <pt x="489" y="525" on="0"/>
        <pt x="410" y="547" on="1"/>
        <pt x="398" y="510" on="0"/>
        <pt x="384" y="431" on="0"/>
        <pt x="382" y="389" on="1"/>
        <pt x="574" y="389" on="1"/>
      </contour>
      <contour>
        <pt x="410" y="184" on="1"/>
        <pt x="450" y="195" on="0"/>
        <pt x="532" y="209" on="0"/>
        <pt x="574" y="211" on="1"/>
        <pt x="574" y="343" on="1"/>
        <pt x="382" y="343" on="1"/>
        <pt x="384" y="300" on="0"/>
        <pt x="398" y="222" on="0"/>
      </contour>
      <contour>
        <pt x="639" y="792" on="1"/>
        <pt x="629" y="792" on="0"/>
        <pt x="624" y="793" on="1"/>
        <pt x="624" y="562" on="1"/>
        <pt x="661" y="564" on="0"/>
        <pt x="737" y="576" on="0"/>
        <pt x="774" y="586" on="1"/>
        <pt x="751" y="643" on="0"/>
        <pt x="682" y="745" on="0"/>
      </contour>
      <contour>
        <pt x="624" y="-61" on="1"/>
        <pt x="629" y="-60" on="0"/>
        <pt x="639" y="-60" on="1"/>
        <pt x="682" y="-13" on="0"/>
        <pt x="751" y="88" on="0"/>
        <pt x="774" y="145" on="1"/>
        <pt x="737" y="156" on="0"/>
        <pt x="661" y="167" on="0"/>
        <pt x="624" y="169" on="1"/>
      </contour>
      <contour>
        <pt x="574" y="793" on="1"/>
        <pt x="569" y="792" on="0"/>
        <pt x="561" y="792" on="1"/>
        <pt x="517" y="745" on="0"/>
        <pt x="449" y="643" on="0"/>
        <pt x="425" y="586" on="1"/>
        <pt x="462" y="576" on="0"/>
        <pt x="537" y="564" on="0"/>
        <pt x="574" y="562" on="1"/>
      </contour>
      <contour>
        <pt x="561" y="-60" on="1"/>
        <pt x="569" y="-60" on="0"/>
        <pt x="574" y="-61" on="1"/>
        <pt x="574" y="169" on="1"/>
        <pt x="498" y="166" on="0"/>
        <pt x="425" y="145" on="1"/>
        <pt x="449" y="88" on="0"/>
        <pt x="517" y="-13" on="0"/>
      </contour>
      <contour>
        <pt x="499" y="782" on="1"/>
        <pt x="433" y="766" on="0"/>
        <pt x="322" y="698" on="0"/>
        <pt x="279" y="649" on="1"/>
        <pt x="326" y="619" on="0"/>
        <pt x="382" y="600" on="1"/>
        <pt x="404" y="653" on="0"/>
        <pt x="463" y="744" on="0"/>
      </contour>
      <contour>
        <pt x="701" y="-50" on="1"/>
        <pt x="766" y="-34" on="0"/>
        <pt x="877" y="34" on="0"/>
        <pt x="920" y="82" on="1"/>
        <pt x="898" y="97" on="0"/>
        <pt x="847" y="121" on="0"/>
        <pt x="818" y="132" on="1"/>
        <pt x="796" y="79" on="0"/>
        <pt x="736" y="-12" on="0"/>
      </contour>
      <contour>
        <pt x="279" y="82" on="1"/>
        <pt x="322" y="34" on="0"/>
        <pt x="433" y="-34" on="0"/>
        <pt x="499" y="-50" on="1"/>
        <pt x="463" y="-12" on="0"/>
        <pt x="404" y="79" on="0"/>
        <pt x="382" y="132" on="1"/>
        <pt x="353" y="121" on="0"/>
        <pt x="302" y="97" on="0"/>
      </contour>
      <contour>
        <pt x="920" y="649" on="1"/>
        <pt x="877" y="698" on="0"/>
        <pt x="766" y="766" on="0"/>
        <pt x="701" y="782" on="1"/>
        <pt x="736" y="744" on="0"/>
        <pt x="796" y="653" on="0"/>
        <pt x="818" y="600" on="1"/>
        <pt x="875" y="619" on="0"/>
      </contour>
    </TTGlyph>
    <TTGlyph name="glyph00678" xMin="126" yMin="189" xMax="274" yMax="760">
      <component glyphName="glyph00693" x="0" y="268" flags="0x204"/>
    </TTGlyph>
    <TTGlyph name="glyph00679" xMin="126" yMin="189" xMax="274" yMax="760">
      <component glyphName="glyph00694" x="0" y="268" flags="0x204"/>
    </TTGlyph>
    <TTGlyph name="glyph00680" xMin="77" yMin="362" xMax="322" yMax="586">
      <component glyphName="glyph00695" x="0" y="268" flags="0x204"/>
    </TTGlyph>
    <TTGlyph name="glyph00681" xMin="54" yMin="261" xMax="345" yMax="692">
      <component glyphName="glyph00696" x="0" y="268" flags="0x204"/>
    </TTGlyph>
    <TTGlyph name="glyph00682" xMin="77" yMin="268" xMax="262" yMax="685">
      <component glyphName="glyph00697" x="0" y="268" flags="0x204"/>
    </TTGlyph>
    <TTGlyph name="glyph00683" xMin="59" yMin="268" xMax="341" yMax="692">
      <component glyphName="glyph00698" x="0" y="268" flags="0x204"/>
    </TTGlyph>
    <TTGlyph name="glyph00684" xMin="40" yMin="261" xMax="334" yMax="692">
      <component glyphName="glyph00699" x="0" y="268" flags="0x204"/>
    </TTGlyph>
    <TTGlyph name="glyph00685" xMin="51" yMin="268" xMax="349" yMax="695">
      <component glyphName="glyph00700" x="0" y="268" flags="0x204"/>
    </TTGlyph>
    <TTGlyph name="glyph00686" xMin="60" yMin="261" xMax="340" yMax="685">
      <component glyphName="glyph00701" x="0" y="268" flags="0x204"/>
    </TTGlyph>
    <TTGlyph name="glyph00687" xMin="58" yMin="261" xMax="350" yMax="692">
      <component glyphName="glyph00702" x="0" y="268" flags="0x204"/>
    </TTGlyph>
    <TTGlyph name="glyph00688" xMin="61" yMin="258" xMax="340" yMax="685">
      <component glyphName="glyph00703" x="0" y="268" flags="0x204"/>
    </TTGlyph>
    <TTGlyph name="glyph00689" xMin="45" yMin="261" xMax="355" yMax="692">
      <component glyphName="glyph00704" x="0" y="268" flags="0x204"/>
    </TTGlyph>
    <TTGlyph name="glyph00690" xMin="45" yMin="257" xMax="338" yMax="692">
      <component glyphName="glyph00705" x="0" y="268" flags="0x204"/>
    </TTGlyph>
    <TTGlyph name="glyph00691" xMin="77" yMin="401" xMax="322" yMax="546">
      <component glyphName="glyph00706" x="0" y="268" flags="0x204"/>
    </TTGlyph>
    <TTGlyph name="glyph00692" xMin="77" yMin="452" xMax="322" yMax="495">
      <component glyphName="glyph00707" x="0" y="268" flags="0x204"/>
    </TTGlyph>
    <TTGlyph name="glyph00693" xMin="126" yMin="-79" xMax="274" yMax="492">
      <contour>
        <pt x="126" y="206" on="1"/>
        <pt x="126" y="298" on="0"/>
        <pt x="192" y="435" on="0"/>
        <pt x="240" y="492" on="1"/>
        <pt x="274" y="472" on="1"/>
        <pt x="231" y="418" on="0"/>
        <pt x="178" y="288" on="0"/>
        <pt x="178" y="206" on="1"/>
        <pt x="178" y="126" on="0"/>
        <pt x="232" y="-6" on="0"/>
        <pt x="274" y="-60" on="1"/>
        <pt x="240" y="-79" on="1"/>
        <pt x="216" y="-51" on="0"/>
        <pt x="174" y="11" on="0"/>
        <pt x="144" y="80" on="0"/>
        <pt x="126" y="159" on="0"/>
      </contour>
    </TTGlyph>
    <TTGlyph name="glyph00694" xMin="126" yMin="-79" xMax="274" yMax="492">
      <contour>
        <pt x="274" y="206" on="1"/>
        <pt x="274" y="159" on="0"/>
        <pt x="256" y="80" on="0"/>
        <pt x="226" y="11" on="0"/>
        <pt x="184" y="-51" on="0"/>
        <pt x="160" y="-79" on="1"/>
        <pt x="126" y="-60" on="1"/>
        <pt x="168" y="-6" on="0"/>
        <pt x="222" y="126" on="0"/>
        <pt x="222" y="206" on="1"/>
        <pt x="222" y="288" on="0"/>
        <pt x="169" y="418" on="0"/>
        <pt x="126" y="472" on="1"/>
        <pt x="160" y="492" on="1"/>
        <pt x="208" y="435" on="0"/>
        <pt x="274" y="298" on="0"/>
      </contour>
    </TTGlyph>
    <TTGlyph name="glyph00695" xMin="77" yMin="94" xMax="322" yMax="318">
      <contour>
        <pt x="223" y="227" on="1"/>
        <pt x="322" y="227" on="1"/>
        <pt x="322" y="185" on="1"/>
        <pt x="223" y="185" on="1"/>
        <pt x="223" y="94" on="1"/>
        <pt x="174" y="94" on="1"/>
        <pt x="174" y="185" on="1"/>
        <pt x="77" y="185" on="1"/>
        <pt x="77" y="227" on="1"/>
        <pt x="174" y="227" on="1"/>
        <pt x="174" y="318" on="1"/>
        <pt x="223" y="318" on="1"/>
      </contour>
    </TTGlyph>
    <TTGlyph name="glyph00696" xMin="54" yMin="-7" xMax="345" yMax="424">
      <contour>
        <pt x="345" y="209" on="1"/>
        <pt x="345" y="103" on="0"/>
        <pt x="270" y="-7" on="0"/>
        <pt x="199" y="-7" on="1"/>
        <pt x="130" y="-7" on="0"/>
        <pt x="54" y="103" on="0"/>
        <pt x="54" y="209" on="1"/>
        <pt x="54" y="313" on="0"/>
        <pt x="130" y="424" on="0"/>
        <pt x="199" y="424" on="1"/>
        <pt x="270" y="424" on="0"/>
        <pt x="345" y="313" on="0"/>
      </contour>
      <contour>
        <pt x="292" y="209" on="1"/>
        <pt x="292" y="299" on="0"/>
        <pt x="247" y="381" on="0"/>
        <pt x="199" y="381" on="1"/>
        <pt x="152" y="381" on="0"/>
        <pt x="108" y="299" on="0"/>
        <pt x="108" y="209" on="1"/>
        <pt x="108" y="118" on="0"/>
        <pt x="152" y="34" on="0"/>
        <pt x="199" y="34" on="1"/>
        <pt x="247" y="34" on="0"/>
        <pt x="292" y="118" on="0"/>
      </contour>
    </TTGlyph>
    <TTGlyph name="glyph00697" xMin="77" yMin="0" xMax="262" yMax="417">
      <contour>
        <pt x="209" y="0" on="1"/>
        <pt x="209" y="362" on="1"/>
        <pt x="100" y="301" on="1"/>
        <pt x="77" y="336" on="1"/>
        <pt x="221" y="417" on="1"/>
        <pt x="262" y="417" on="1"/>
        <pt x="262" y="0" on="1"/>
      </contour>
    </TTGlyph>
    <TTGlyph name="glyph00698" xMin="59" yMin="0" xMax="341" yMax="424">
      <contour>
        <pt x="335" y="0" on="1"/>
        <pt x="63" y="0" on="1"/>
        <pt x="63" y="36" on="1"/>
        <pt x="110" y="82" on="0"/>
        <pt x="190" y="161" on="0"/>
        <pt x="248" y="228" on="0"/>
        <pt x="280" y="286" on="0"/>
        <pt x="280" y="310" on="1"/>
        <pt x="280" y="342" on="0"/>
        <pt x="238" y="381" on="0"/>
        <pt x="202" y="381" on="1"/>
        <pt x="170" y="381" on="0"/>
        <pt x="118" y="355" on="0"/>
        <pt x="94" y="329" on="1"/>
        <pt x="59" y="353" on="1"/>
        <pt x="89" y="387" on="0"/>
        <pt x="158" y="424" on="0"/>
        <pt x="204" y="424" on="1"/>
        <pt x="232" y="424" on="0"/>
        <pt x="280" y="408" on="0"/>
        <pt x="314" y="379" on="0"/>
        <pt x="334" y="337" on="0"/>
        <pt x="334" y="312" on="1"/>
        <pt x="334" y="283" on="0"/>
        <pt x="306" y="226" on="0"/>
        <pt x="253" y="162" on="0"/>
        <pt x="176" y="88" on="0"/>
        <pt x="126" y="42" on="1"/>
        <pt x="341" y="42" on="1"/>
      </contour>
    </TTGlyph>
    <TTGlyph name="glyph00699" xMin="40" yMin="-7" xMax="334" yMax="424">
      <contour>
        <pt x="154" y="238" on="1"/>
        <pt x="175" y="238" on="1"/>
        <pt x="191" y="238" on="0"/>
        <pt x="225" y="247" on="0"/>
        <pt x="252" y="266" on="0"/>
        <pt x="269" y="294" on="0"/>
        <pt x="269" y="314" on="1"/>
        <pt x="269" y="345" on="0"/>
        <pt x="227" y="381" on="0"/>
        <pt x="187" y="381" on="1"/>
        <pt x="156" y="381" on="0"/>
        <pt x="102" y="359" on="0"/>
        <pt x="77" y="340" on="1"/>
        <pt x="52" y="370" on="1"/>
        <pt x="114" y="424" on="0"/>
        <pt x="190" y="424" on="1"/>
        <pt x="221" y="424" on="0"/>
        <pt x="270" y="407" on="0"/>
        <pt x="305" y="377" on="0"/>
        <pt x="323" y="339" on="0"/>
        <pt x="323" y="318" on="1"/>
        <pt x="323" y="285" on="0"/>
        <pt x="278" y="234" on="0"/>
        <pt x="245" y="226" on="1"/>
        <pt x="245" y="224" on="1"/>
        <pt x="280" y="216" on="0"/>
        <pt x="334" y="161" on="0"/>
        <pt x="334" y="118" on="1"/>
        <pt x="334" y="91" on="0"/>
        <pt x="312" y="45" on="0"/>
        <pt x="271" y="12" on="0"/>
        <pt x="214" y="-7" on="0"/>
        <pt x="180" y="-7" on="1"/>
        <pt x="144" y="-7" on="0"/>
        <pt x="68" y="24" on="0"/>
        <pt x="40" y="51" on="1"/>
        <pt x="71" y="80" on="1"/>
        <pt x="91" y="60" on="0"/>
        <pt x="146" y="34" on="0"/>
        <pt x="179" y="34" on="1"/>
        <pt x="226" y="34" on="0"/>
        <pt x="281" y="78" on="0"/>
        <pt x="281" y="118" on="1"/>
        <pt x="281" y="161" on="0"/>
        <pt x="224" y="199" on="0"/>
        <pt x="178" y="199" on="1"/>
        <pt x="146" y="199" on="1"/>
      </contour>
    </TTGlyph>
    <TTGlyph name="glyph00700" xMin="51" yMin="0" xMax="349" yMax="427">
      <contour>
        <pt x="245" y="0" on="1"/>
        <pt x="245" y="102" on="1"/>
        <pt x="51" y="102" on="1"/>
        <pt x="51" y="137" on="1"/>
        <pt x="189" y="427" on="1"/>
        <pt x="237" y="411" on="1"/>
        <pt x="110" y="145" on="1"/>
        <pt x="245" y="145" on="1"/>
        <pt x="250" y="261" on="1"/>
        <pt x="294" y="261" on="1"/>
        <pt x="294" y="145" on="1"/>
        <pt x="349" y="145" on="1"/>
        <pt x="349" y="102" on="1"/>
        <pt x="294" y="102" on="1"/>
        <pt x="294" y="0" on="1"/>
      </contour>
    </TTGlyph>
    <TTGlyph name="glyph00701" xMin="60" yMin="-7" xMax="340" yMax="417">
      <contour>
        <pt x="314" y="374" on="1"/>
        <pt x="136" y="374" on="1"/>
        <pt x="136" y="255" on="1"/>
        <pt x="169" y="267" on="0"/>
        <pt x="206" y="267" on="1"/>
        <pt x="265" y="267" on="0"/>
        <pt x="340" y="196" on="0"/>
        <pt x="340" y="138" on="1"/>
        <pt x="340" y="107" on="0"/>
        <pt x="318" y="54" on="0"/>
        <pt x="278" y="15" on="0"/>
        <pt x="222" y="-7" on="0"/>
        <pt x="187" y="-7" on="1"/>
        <pt x="154" y="-7" on="0"/>
        <pt x="86" y="19" on="0"/>
        <pt x="60" y="44" on="1"/>
        <pt x="91" y="72" on="1"/>
        <pt x="112" y="52" on="0"/>
        <pt x="161" y="34" on="0"/>
        <pt x="187" y="34" on="1"/>
        <pt x="235" y="34" on="0"/>
        <pt x="287" y="90" on="0"/>
        <pt x="287" y="138" on="1"/>
        <pt x="287" y="186" on="0"/>
        <pt x="238" y="229" on="0"/>
        <pt x="197" y="229" on="1"/>
        <pt x="181" y="229" on="0"/>
        <pt x="140" y="219" on="0"/>
        <pt x="124" y="211" on="1"/>
        <pt x="85" y="211" on="1"/>
        <pt x="85" y="417" on="1"/>
        <pt x="319" y="417" on="1"/>
      </contour>
    </TTGlyph>
    <TTGlyph name="glyph00702" xMin="58" yMin="-7" xMax="350" yMax="424">
      <contour>
        <pt x="229" y="381" on="1"/>
        <pt x="181" y="381" on="0"/>
        <pt x="117" y="293" on="0"/>
        <pt x="110" y="214" on="1"/>
        <pt x="136" y="246" on="0"/>
        <pt x="193" y="275" on="0"/>
        <pt x="222" y="275" on="1"/>
        <pt x="276" y="275" on="0"/>
        <pt x="350" y="208" on="0"/>
        <pt x="350" y="145" on="1"/>
        <pt x="350" y="111" on="0"/>
        <pt x="329" y="55" on="0"/>
        <pt x="292" y="15" on="0"/>
        <pt x="239" y="-7" on="0"/>
        <pt x="208" y="-7" on="1"/>
        <pt x="168" y="-7" on="0"/>
        <pt x="111" y="25" on="0"/>
        <pt x="75" y="77" on="0"/>
        <pt x="58" y="146" on="0"/>
        <pt x="58" y="182" on="1"/>
        <pt x="58" y="229" on="0"/>
        <pt x="80" y="317" on="0"/>
        <pt x="122" y="384" on="0"/>
        <pt x="186" y="424" on="0"/>
        <pt x="228" y="424" on="1"/>
        <pt x="280" y="424" on="0"/>
        <pt x="330" y="391" on="1"/>
        <pt x="305" y="356" on="1"/>
        <pt x="285" y="370" on="0"/>
        <pt x="252" y="381" on="0"/>
      </contour>
      <contour>
        <pt x="213" y="235" on="1"/>
        <pt x="181" y="235" on="0"/>
        <pt x="131" y="203" on="0"/>
        <pt x="111" y="178" on="1"/>
        <pt x="112" y="112" on="0"/>
        <pt x="160" y="34" on="0"/>
        <pt x="208" y="34" on="1"/>
        <pt x="253" y="34" on="0"/>
        <pt x="297" y="95" on="0"/>
        <pt x="297" y="143" on="1"/>
        <pt x="297" y="191" on="0"/>
        <pt x="250" y="235" on="0"/>
      </contour>
    </TTGlyph>
    <TTGlyph name="glyph00703" xMin="61" yMin="-10" xMax="340" yMax="417">
      <contour>
        <pt x="95" y="8" on="1"/>
        <pt x="285" y="373" on="1"/>
        <pt x="61" y="373" on="1"/>
        <pt x="61" y="417" on="1"/>
        <pt x="340" y="417" on="1"/>
        <pt x="340" y="380" on="1"/>
        <pt x="144" y="-10" on="1"/>
      </contour>
    </TTGlyph>
    <TTGlyph name="glyph00704" xMin="45" yMin="-7" xMax="355" yMax="424">
      <contour>
        <pt x="336" y="320" on="1"/>
        <pt x="336" y="290" on="0"/>
        <pt x="296" y="240" on="0"/>
        <pt x="254" y="223" on="1"/>
        <pt x="308" y="203" on="0"/>
        <pt x="355" y="148" on="0"/>
        <pt x="355" y="112" on="1"/>
        <pt x="355" y="60" on="0"/>
        <pt x="271" y="-7" on="0"/>
        <pt x="200" y="-7" on="1"/>
        <pt x="126" y="-7" on="0"/>
        <pt x="45" y="61" on="0"/>
        <pt x="45" y="112" on="1"/>
        <pt x="45" y="150" on="0"/>
        <pt x="104" y="209" on="0"/>
        <pt x="145" y="220" on="1"/>
        <pt x="108" y="237" on="0"/>
        <pt x="66" y="285" on="0"/>
        <pt x="66" y="319" on="1"/>
        <pt x="66" y="345" on="0"/>
        <pt x="89" y="384" on="0"/>
        <pt x="126" y="411" on="0"/>
        <pt x="174" y="424" on="0"/>
        <pt x="200" y="424" on="1"/>
        <pt x="225" y="424" on="0"/>
        <pt x="274" y="412" on="0"/>
        <pt x="313" y="387" on="0"/>
        <pt x="336" y="348" on="0"/>
      </contour>
      <contour>
        <pt x="302" y="110" on="1"/>
        <pt x="302" y="128" on="0"/>
        <pt x="288" y="155" on="0"/>
        <pt x="258" y="176" on="0"/>
        <pt x="212" y="194" on="0"/>
        <pt x="181" y="204" on="1"/>
        <pt x="98" y="171" on="0"/>
        <pt x="98" y="112" on="1"/>
        <pt x="98" y="74" on="0"/>
        <pt x="153" y="34" on="0"/>
        <pt x="200" y="34" on="1"/>
        <pt x="246" y="34" on="0"/>
        <pt x="302" y="75" on="0"/>
      </contour>
      <contour>
        <pt x="118" y="320" on="1"/>
        <pt x="118" y="304" on="0"/>
        <pt x="128" y="281" on="0"/>
        <pt x="152" y="262" on="0"/>
        <pt x="190" y="245" on="0"/>
        <pt x="219" y="236" on="1"/>
        <pt x="284" y="273" on="0"/>
        <pt x="284" y="317" on="1"/>
        <pt x="284" y="348" on="0"/>
        <pt x="239" y="382" on="0"/>
        <pt x="200" y="382" on="1"/>
        <pt x="162" y="382" on="0"/>
        <pt x="118" y="351" on="0"/>
      </contour>
    </TTGlyph>
    <TTGlyph name="glyph00705" xMin="45" yMin="-11" xMax="338" yMax="424">
      <contour>
        <pt x="184" y="194" on="1"/>
        <pt x="247" y="194" on="0"/>
        <pt x="286" y="247" on="1"/>
        <pt x="284" y="307" on="0"/>
        <pt x="238" y="381" on="0"/>
        <pt x="191" y="381" on="1"/>
        <pt x="149" y="381" on="0"/>
        <pt x="99" y="330" on="0"/>
        <pt x="99" y="285" on="1"/>
        <pt x="99" y="240" on="0"/>
        <pt x="148" y="194" on="0"/>
      </contour>
      <contour>
        <pt x="176" y="153" on="1"/>
        <pt x="150" y="153" on="0"/>
        <pt x="102" y="171" on="0"/>
        <pt x="66" y="205" on="0"/>
        <pt x="45" y="253" on="0"/>
        <pt x="45" y="284" on="1"/>
        <pt x="45" y="315" on="0"/>
        <pt x="69" y="367" on="0"/>
        <pt x="110" y="404" on="0"/>
        <pt x="162" y="424" on="0"/>
        <pt x="190" y="424" on="1"/>
        <pt x="227" y="424" on="0"/>
        <pt x="282" y="397" on="0"/>
        <pt x="319" y="350" on="0"/>
        <pt x="338" y="286" on="0"/>
        <pt x="338" y="250" on="1"/>
        <pt x="338" y="197" on="0"/>
        <pt x="303" y="113" on="0"/>
        <pt x="238" y="49" on="0"/>
        <pt x="146" y="4" on="0"/>
        <pt x="88" y="-11" on="1"/>
        <pt x="77" y="28" on="1"/>
        <pt x="112" y="38" on="0"/>
        <pt x="182" y="67" on="0"/>
        <pt x="240" y="110" on="0"/>
        <pt x="281" y="169" on="0"/>
        <pt x="288" y="209" on="1"/>
        <pt x="286" y="210" on="1"/>
        <pt x="262" y="179" on="0"/>
        <pt x="208" y="153" on="0"/>
      </contour>
    </TTGlyph>
    <TTGlyph name="glyph00706" xMin="77" yMin="133" xMax="322" yMax="278">
      <contour>
        <pt x="77" y="236" on="1"/>
        <pt x="77" y="278" on="1"/>
        <pt x="322" y="278" on="1"/>
        <pt x="322" y="236" on="1"/>
      </contour>
      <contour>
        <pt x="77" y="133" on="1"/>
        <pt x="77" y="175" on="1"/>
        <pt x="322" y="175" on="1"/>
        <pt x="322" y="133" on="1"/>
      </contour>
    </TTGlyph>
    <TTGlyph name="glyph00707" xMin="77" yMin="184" xMax="322" yMax="227">
      <contour>
        <pt x="77" y="184" on="1"/>
        <pt x="77" y="227" on="1"/>
        <pt x="322" y="227" on="1"/>
        <pt x="322" y="184" on="1"/>
      </contour>
    </TTGlyph>
    <TTGlyph name="glyph00709" xMin="12" yMin="0" xMax="488" yMax="665">
      <component glyphName="glyph00754" x="0" y="0" flags="0x204"/>
    </TTGlyph>
    <TTGlyph name="glyph00710" xMin="28" yMin="-150" xMax="473" yMax="826">
      <component glyphName="glyph00755" x="0" y="0" flags="0x204"/>
    </TTGlyph>
    <TTGlyph name="glyph00711" xMin="90" yMin="-22" xMax="760" yMax="702">
      <component glyphName="glyph00756" x="0" y="0" flags="0x204"/>
    </TTGlyph>
    <TTGlyph name="glyph00712" xMin="70" yMin="132" xMax="430" yMax="491">
      <component glyphName="glyph00757" x="0" y="0" flags="0x204"/>
    </TTGlyph>
</ttFont>
